<svg width="96" height="100" viewBox="0 0 96 100" fill="none" xmlns="http://www.w3.org/2000/svg">
<g clip-path="url(#clip0_0_154)">
<path d="M96 0H0V100H96V0Z" fill="white"/>
<path d="M16.7594 26.2263L20.2146 29.0909H25.0495L26.6415 27.7533L27.125 29.0909H32.75V25.3858L30.9103 24.9005V14.8863L27.632 12.1165H20.2381L16.9481 14.8863V18.0823H21.4646L21.9481 16.3186H25.3089L25.9339 16.804V18.4256L19.5896 19.42L16.7594 21.6217V26.2263ZM21.783 24.4152V23.5156L22.2429 23.1013L25.9339 22.249V24.4152L25.3089 24.9242H22.3844L21.783 24.4152ZM34.2829 29.0909H42.2075V25.3858L41.099 24.9005V16.804L41.724 16.2949H44.6485L45.2499 16.804V24.9005L44.1415 25.3858V29.0909H52.1132V25.3858L50.2735 24.9005V14.9811L46.8184 12.1165H41.724L40.1321 13.454L39.6486 12.1165H34.2829V15.8333L36.1226 16.3186V24.9005L34.2829 25.3858V29.0909ZM52.9504 19.124H56.5236L57.007 16.0464H58.8702V24.9242L56.8065 25.4095V29.0909H65.9459V25.4095L63.8701 24.9242V16.0464H65.7219L66.2049 19.124H69.7545V12.1165H52.9504V19.124ZM71.7947 29.0909H80.4389V25.4095L78.6107 24.9242V16.3186L80.4389 15.8333V12.1165H71.7947V15.8333L73.6344 16.3186V24.9242L71.7947 25.4095V29.0909ZM16.839 48.6346L21.0224 52.1212H28.2101C28.8187 51.6207 29.4314 51.1159 30.0483 50.6069C30.6737 50.0894 31.2906 49.5677 31.8991 49.0417V45.7333H27.0439L26.5242 47.642H22.962L22.1886 47.0185V38.9891L22.9366 38.391H26.5242L27.0439 40.287H31.8991V36.8513L28.3623 33.8737H20.8702L16.839 37.2458V48.6346ZM34.2317 49.0417L37.946 52.1212H43.1435L44.8549 50.6832L45.3747 52.1212H51.4215V48.1383L49.4439 47.6166V36.8513L45.9198 33.8737H37.9713L34.4345 36.8513V40.287H39.2897L39.8095 38.391H43.4224L44.0943 38.9128V40.656L37.2742 41.7249L34.2317 44.0918V49.0417ZM39.632 47.0948V46.1277L40.1264 45.6824L44.0943 44.7662V47.0948L43.4224 47.642H40.2785L39.632 47.0948ZM52.9681 49.0417L56.6571 52.1212H64.4661L68.1805 49.0417V43.8372L65.1381 41.4577L58.8882 40.4143L58.3178 39.9816V38.9128L58.9897 38.391H62.6028L63.1221 40.287H67.9776V36.8513L64.4407 33.8737H56.4923L52.9681 36.8513V41.8268L56.0613 44.3845L62.2858 45.4279L62.7797 45.8605V47.0948L62.1337 47.642H58.3431L57.8233 45.7333H52.9681V49.0417ZM71.0074 52.1212H80.2994V48.1637L78.3348 47.642V38.391L80.2994 37.8693V33.8737H71.0074V37.8693L72.9847 38.391V47.642L71.0074 48.1637V52.1212ZM17.635 87.2727H32.0542V80.5545L28.6969 79.6685V70.0121L38.8765 87.2727H47.7862V63.9636L51.1435 63.0775V56.2943H36.6813V63.0775L40.017 63.9636V72.8418L30.8705 56.2943H17.635V63.0775L20.9923 63.9636V79.6685L17.635 80.5545V87.2727ZM54.4363 81.7424L61.0861 87.2727H73.6978C74.8172 86.3654 75.9287 85.4436 77.0336 84.5079C78.1524 83.5715 79.2718 82.6497 80.3906 81.7424V61.6951L73.9562 56.2943H60.8712L54.4363 61.6951V81.7424ZM63.5181 78.6533V64.8921L64.7021 63.9636H70.1252L71.3086 64.8921V78.6533L70.0824 79.6685H64.745L63.5181 78.6533Z" fill="black"/>
</g>
<defs>
<clipPath id="clip0_0_154">
<rect width="96" height="100" fill="white"/>
</clipPath>
</defs>
</svg>
