<svg width="1008" height="1262" viewBox="0 0 1008 1262" fill="none" xmlns="http://www.w3.org/2000/svg">
<path d="M321.569 132.843C394.478 86.5191 480.522 64.7762 566.897 70.8496C610.216 73.9537 652.759 83.8874 692.924 100.277C733.165 117.165 770.64 139.911 804.113 167.763C871.433 224.876 918.516 301.885 938.449 387.485C958.428 473.328 950.128 563.261 914.769 644.083C879.41 724.904 818.854 792.358 741.989 836.543C704.186 859.088 662.969 875.449 619.919 885C576.955 894.038 532.83 896.355 489.144 891.866C401.938 882.365 320.04 845.608 255.291 786.909C191.605 728.804 148.344 652.014 131.836 567.775H133.419C155.04 648.503 201.264 720.646 265.777 774.354C329.237 828.018 408.176 860.427 491.32 866.951C532.319 869.431 573.467 866.262 613.588 857.534C653.593 848.488 691.87 833.121 726.953 812.02C797.498 769.986 852.881 706.968 885.229 631.926C901.061 594.366 911.259 554.709 915.499 514.218C919.693 474.227 917.422 433.829 908.773 394.548C900.24 354.818 885.416 316.679 864.851 281.548C843.931 246.399 817.936 214.475 787.692 186.792C725.09 131.275 646.68 96.3551 563.245 86.8346C479.81 77.3141 395.449 93.6612 321.767 133.627L321.569 132.843Z" fill="#EBEBEB" fill-opacity="0.06"/>
<path d="M990.606 365.646C963.593 272.439 908.386 189.927 832.599 129.489C756.813 69.0506 664.181 33.6643 567.478 28.2099C519.907 26.1559 472.293 31.1399 426.172 43.0011C334.39 67.7531 252.551 120.474 191.976 193.871C162.473 230.652 138.412 271.501 120.536 315.159C85.557 403.718 79.1561 501.036 102.233 593.43C113.447 639.519 131.915 683.524 156.944 723.79C182.349 763.971 213.365 800.299 249.049 831.667C322.321 894.232 413.452 931.989 509.421 939.544C606.547 947.831 703.847 925.711 787.898 876.238V877.618C705.217 933.241 606.941 960.884 507.452 956.505C406.825 951.728 310.326 914.982 231.927 851.586C192.907 819.596 158.994 781.821 131.36 739.567C103.809 697.154 83.3353 650.526 70.7443 601.516C64.2983 576.98 59.6933 551.996 56.968 526.771L55 488.709C55 476.087 55 463.465 55 450.843C58.1063 400.087 69.0611 350.121 87.4727 302.734C125.838 207.557 193.283 126.992 280.144 72.5835C366.4 18.5708 467.636 -6.37646 569.052 1.38856C619.144 5.69802 668.304 17.5318 714.884 36.493C761.117 55.8511 803.969 82.4817 841.823 115.379C917.135 180.453 969.459 268.164 991 365.449L990.606 365.646Z" fill="#EBEBEB" fill-opacity="0.06"/>
<path d="M444.163 688.018C454.6 681.386 466.919 678.274 479.284 679.143C485.486 679.587 491.577 681.01 497.327 683.356C503.088 685.774 508.453 689.03 513.245 693.017C522.883 701.194 529.623 712.219 532.477 724.473C535.337 736.763 534.149 749.638 529.087 761.208C524.025 772.779 515.355 782.436 504.351 788.761C498.939 791.989 493.038 794.331 486.875 795.699C480.724 796.993 474.407 797.324 468.153 796.682C455.668 795.322 443.944 790.059 434.674 781.656C425.557 773.337 419.363 762.344 417 750.284H417.227C420.322 761.841 426.939 772.169 436.175 779.858C445.26 787.541 456.562 792.181 468.465 793.115C474.334 793.47 480.225 793.016 485.969 791.767C491.696 790.472 497.176 788.272 502.198 785.251C512.298 779.233 520.227 770.211 524.858 759.468C527.124 754.091 528.584 748.413 529.191 742.617C529.791 736.891 529.466 731.108 528.228 725.484C527.007 719.797 524.884 714.336 521.94 709.307C518.945 704.275 515.224 699.705 510.894 695.742C501.932 687.794 490.706 682.794 478.761 681.431C466.817 680.068 454.74 682.409 444.191 688.13L444.163 688.018Z" fill="#EBEBEB" fill-opacity="0.28"/>
<path d="M539.944 721.347C536.076 708.003 528.173 696.19 517.323 687.538C506.473 678.885 493.212 673.819 479.368 673.039C472.557 672.745 465.741 673.458 459.138 675.156C445.998 678.7 434.282 686.247 425.61 696.755C421.386 702.021 417.941 707.869 415.382 714.119C410.375 726.797 409.458 740.73 412.762 753.957C414.367 760.555 417.011 766.855 420.595 772.62C424.232 778.372 428.672 783.573 433.78 788.063C444.27 797.02 457.317 802.426 471.056 803.507C484.961 804.694 498.891 801.527 510.923 794.444V794.642C499.087 802.605 485.017 806.563 470.774 805.936C456.368 805.252 442.553 799.991 431.329 790.915C425.743 786.335 420.888 780.927 416.932 774.878C412.988 768.806 410.057 762.131 408.254 755.115C407.331 751.602 406.672 748.025 406.282 744.414L406 738.965C406 737.158 406 735.351 406 733.544C406.445 726.277 408.013 719.124 410.649 712.34C416.141 698.714 425.797 687.181 438.232 679.391C450.581 671.659 465.074 668.087 479.593 669.199C486.764 669.816 493.802 671.51 500.471 674.224C507.089 676.996 513.224 680.808 518.643 685.518C529.425 694.834 536.916 707.391 540 721.319L539.944 721.347Z" fill="#EBEBEB" fill-opacity="0.28"/>
<path d="M1002 601.986L944.674 647.317L813.161 687.343L564.588 846L355.999 692.647L316.497 602.95L364.67 756.785L287.593 737.013L263.025 668.053L140.184 647.799L104.536 696.023L52.9904 666.124L0 604.879C29.4131 587.093 59.811 570.993 91.0471 556.655C225.829 494.497 372.878 463.562 521.252 466.15C669.627 468.738 815.509 504.784 948.046 571.605C966.352 581.732 984.176 591.377 1002 601.986Z" fill="url(#paint0_linear_55_34)"/>
<path d="M948 572.019L835.694 705.151L714.711 746.634L796.169 647.268L564.326 846L508.414 647.268L412.014 520.407L451.538 631.35L287.175 736.987L91 556.102C225.866 494.153 372.947 463.414 521.316 466.17C669.684 468.926 815.524 505.105 948 572.019V572.019Z" fill="url(#paint1_linear_55_34)"/>
<path d="M817.636 760.926C823.195 757.364 829.756 755.693 836.341 756.16C839.644 756.398 842.888 757.162 845.95 758.422C849.018 759.721 851.876 761.47 854.428 763.611C859.561 768.003 863.151 773.924 864.67 780.506C866.194 787.107 865.561 794.022 862.865 800.237C860.169 806.451 855.552 811.638 849.691 815.035C846.809 816.769 843.666 818.027 840.384 818.761C837.108 819.456 833.744 819.634 830.413 819.289C823.764 818.559 817.52 815.732 812.583 811.219C807.727 806.751 804.429 800.847 803.17 794.369H803.291C804.939 800.577 808.463 806.124 813.382 810.253C818.221 814.38 824.24 816.872 830.579 817.373C833.705 817.564 836.842 817.32 839.901 816.649C842.951 815.954 845.87 814.772 848.545 813.15C853.924 809.918 858.146 805.072 860.613 799.302C861.82 796.414 862.597 793.365 862.921 790.251C863.24 787.176 863.067 784.07 862.408 781.049C861.757 777.994 860.627 775.062 859.059 772.361C857.464 769.658 855.482 767.203 853.176 765.075C848.403 760.806 842.424 758.121 836.063 757.389C829.701 756.657 823.269 757.914 817.651 760.987L817.636 760.926Z" fill="#EBEBEB" fill-opacity="0.28"/>
<path d="M868.713 778.968C866.642 771.838 862.411 765.527 856.602 760.904C850.793 756.282 843.693 753.575 836.281 753.158C832.634 753.001 828.985 753.382 825.45 754.289C818.415 756.182 812.142 760.215 807.499 765.829C805.238 768.642 803.393 771.767 802.023 775.106C799.342 781.88 798.852 789.324 800.62 796.391C801.48 799.916 802.895 803.282 804.814 806.362C806.761 809.435 809.138 812.214 811.874 814.613C817.49 819.399 824.475 822.286 831.831 822.864C839.275 823.498 846.733 821.806 853.176 818.022V818.128C846.838 822.382 839.305 824.497 831.68 824.162C823.967 823.796 816.57 820.986 810.561 816.137C807.57 813.69 804.971 810.8 802.853 807.568C800.741 804.324 799.172 800.758 798.207 797.009C797.713 795.132 797.36 793.221 797.151 791.292L797 788.381C797 787.415 797 786.45 797 785.484C797.238 781.602 798.078 777.78 799.489 774.156C802.43 766.876 807.599 760.713 814.257 756.552C820.868 752.42 828.628 750.512 836.401 751.106C840.241 751.436 844.009 752.341 847.579 753.791C851.123 755.272 854.407 757.309 857.309 759.825C863.081 764.803 867.092 771.511 868.743 778.953L868.713 778.968Z" fill="#EBEBEB" fill-opacity="0.28"/>
<path d="M205.636 815.926C211.195 812.364 217.756 810.693 224.341 811.16C227.644 811.398 230.888 812.162 233.95 813.422C237.018 814.721 239.876 816.47 242.428 818.611C247.561 823.003 251.151 828.924 252.67 835.506C254.194 842.107 253.561 849.022 250.865 855.237C248.169 861.451 243.552 866.638 237.691 870.035C234.809 871.769 231.666 873.027 228.384 873.761C225.108 874.456 221.744 874.634 218.413 874.289C211.764 873.559 205.52 870.732 200.583 866.219C195.727 861.751 192.429 855.847 191.17 849.369H191.291C192.939 855.577 196.463 861.124 201.382 865.253C206.221 869.38 212.24 871.872 218.579 872.373C221.705 872.564 224.842 872.32 227.901 871.649C230.951 870.954 233.87 869.772 236.545 868.15C241.924 864.918 246.146 860.072 248.613 854.302C249.82 851.414 250.597 848.365 250.921 845.251C251.24 842.176 251.067 839.07 250.408 836.049C249.757 832.994 248.627 830.062 247.059 827.361C245.464 824.658 243.482 822.203 241.176 820.075C236.403 815.806 230.424 813.121 224.063 812.389C217.701 811.657 211.269 812.914 205.651 815.987L205.636 815.926Z" fill="#EBEBEB" fill-opacity="0.28"/>
<path d="M256.713 833.968C254.642 826.838 250.411 820.527 244.602 815.904C238.793 811.282 231.693 808.575 224.281 808.158C220.634 808.001 216.985 808.382 213.45 809.289C206.415 811.182 200.142 815.215 195.499 820.829C193.238 823.642 191.393 826.767 190.023 830.106C187.342 836.88 186.852 844.324 188.62 851.391C189.48 854.916 190.895 858.282 192.814 861.362C194.761 864.435 197.138 867.214 199.874 869.613C205.49 874.399 212.475 877.286 219.831 877.864C227.275 878.498 234.733 876.806 241.176 873.022V873.128C234.838 877.382 227.305 879.497 219.68 879.162C211.967 878.796 204.57 875.986 198.561 871.137C195.57 868.69 192.971 865.8 190.853 862.568C188.741 859.324 187.172 855.758 186.207 852.009C185.713 850.132 185.36 848.221 185.151 846.292L185 843.381C185 842.415 185 841.45 185 840.484C185.238 836.602 186.078 832.78 187.489 829.156C190.43 821.876 195.599 815.713 202.257 811.552C208.868 807.42 216.628 805.512 224.401 806.106C228.241 806.436 232.009 807.341 235.579 808.791C239.123 810.272 242.407 812.309 245.309 814.825C251.081 819.803 255.092 826.511 256.743 833.953L256.713 833.968Z" fill="#EBEBEB" fill-opacity="0.28"/>
<path d="M488.636 991.926C494.195 988.364 500.756 986.693 507.341 987.16C510.644 987.398 513.888 988.162 516.95 989.422C520.018 990.721 522.876 992.47 525.428 994.611C530.561 999.003 534.151 1004.92 535.67 1011.51C537.194 1018.11 536.561 1025.02 533.865 1031.24C531.169 1037.45 526.552 1042.64 520.691 1046.04C517.809 1047.77 514.666 1049.03 511.384 1049.76C508.108 1050.46 504.744 1050.63 501.413 1050.29C494.764 1049.56 488.52 1046.73 483.583 1042.22C478.727 1037.75 475.429 1031.85 474.17 1025.37H474.291C475.939 1031.58 479.463 1037.12 484.382 1041.25C489.221 1045.38 495.24 1047.87 501.579 1048.37C504.705 1048.56 507.842 1048.32 510.901 1047.65C513.951 1046.95 516.87 1045.77 519.545 1044.15C524.924 1040.92 529.146 1036.07 531.613 1030.3C532.82 1027.41 533.597 1024.36 533.921 1021.25C534.24 1018.18 534.067 1015.07 533.408 1012.05C532.757 1008.99 531.627 1006.06 530.059 1003.36C528.464 1000.66 526.482 998.203 524.176 996.075C519.403 991.806 513.424 989.121 507.063 988.389C500.701 987.657 494.269 988.914 488.651 991.987L488.636 991.926Z" fill="#EBEBEB" fill-opacity="0.28"/>
<path d="M539.713 1009.97C537.642 1002.84 533.411 996.527 527.602 991.904C521.793 987.282 514.693 984.575 507.281 984.158C503.634 984.001 499.985 984.382 496.45 985.289C489.415 987.182 483.142 991.215 478.499 996.829C476.238 999.642 474.393 1002.77 473.023 1006.11C470.342 1012.88 469.852 1020.32 471.62 1027.39C472.48 1030.92 473.895 1034.28 475.814 1037.36C477.761 1040.44 480.138 1043.21 482.874 1045.61C488.49 1050.4 495.475 1053.29 502.831 1053.86C510.275 1054.5 517.733 1052.81 524.176 1049.02V1049.13C517.838 1053.38 510.305 1055.5 502.68 1055.16C494.967 1054.8 487.57 1051.99 481.561 1047.14C478.57 1044.69 475.971 1041.8 473.853 1038.57C471.741 1035.32 470.172 1031.76 469.207 1028.01C468.713 1026.13 468.36 1024.22 468.151 1022.29L468 1019.38C468 1018.42 468 1017.45 468 1016.48C468.238 1012.6 469.078 1008.78 470.489 1005.16C473.43 997.876 478.599 991.713 485.257 987.552C491.868 983.42 499.628 981.512 507.401 982.106C511.241 982.436 515.009 983.341 518.579 984.791C522.123 986.272 525.407 988.309 528.309 990.825C534.081 995.803 538.092 1002.51 539.743 1009.95L539.713 1009.97Z" fill="#EBEBEB" fill-opacity="0.28"/>
<path d="M719.163 1025.02C729.6 1018.39 741.919 1015.27 754.284 1016.14C760.486 1016.59 766.577 1018.01 772.327 1020.36C778.088 1022.77 783.453 1026.03 788.245 1030.02C797.883 1038.19 804.623 1049.22 807.477 1061.47C810.337 1073.76 809.149 1086.64 804.087 1098.21C799.025 1109.78 790.355 1119.44 779.351 1125.76C773.939 1128.99 768.038 1131.33 761.875 1132.7C755.724 1133.99 749.407 1134.32 743.153 1133.68C730.668 1132.32 718.944 1127.06 709.674 1118.66C700.557 1110.34 694.363 1099.34 692 1087.28H692.227C695.322 1098.84 701.939 1109.17 711.175 1116.86C720.26 1124.54 731.562 1129.18 743.465 1130.11C749.334 1130.47 755.225 1130.02 760.969 1128.77C766.696 1127.47 772.176 1125.27 777.198 1122.25C787.298 1116.23 795.227 1107.21 799.858 1096.47C802.124 1091.09 803.584 1085.41 804.191 1079.62C804.791 1073.89 804.466 1068.11 803.228 1062.48C802.007 1056.8 799.884 1051.34 796.94 1046.31C793.945 1041.28 790.224 1036.7 785.894 1032.74C776.932 1024.79 765.706 1019.79 753.761 1018.43C741.817 1017.07 729.74 1019.41 719.191 1025.13L719.163 1025.02Z" fill="#EBEBEB" fill-opacity="0.28"/>
<path d="M814.944 1058.35C811.076 1045 803.173 1033.19 792.323 1024.54C781.473 1015.89 768.212 1010.82 754.368 1010.04C747.557 1009.74 740.741 1010.46 734.138 1012.16C720.998 1015.7 709.282 1023.25 700.61 1033.76C696.386 1039.02 692.941 1044.87 690.382 1051.12C685.375 1063.8 684.458 1077.73 687.762 1090.96C689.367 1097.56 692.011 1103.85 695.595 1109.62C699.232 1115.37 703.672 1120.57 708.78 1125.06C719.27 1134.02 732.317 1139.43 746.056 1140.51C759.961 1141.69 773.891 1138.53 785.923 1131.44V1131.64C774.087 1139.6 760.017 1143.56 745.774 1142.94C731.368 1142.25 717.553 1136.99 706.329 1127.92C700.743 1123.34 695.888 1117.93 691.932 1111.88C687.988 1105.81 685.057 1099.13 683.254 1092.11C682.331 1088.6 681.672 1085.03 681.282 1081.41L681 1075.96C681 1074.16 681 1072.35 681 1070.54C681.445 1063.28 683.013 1056.12 685.649 1049.34C691.141 1035.71 700.797 1024.18 713.232 1016.39C725.581 1008.66 740.074 1005.09 754.593 1006.2C761.764 1006.82 768.802 1008.51 775.471 1011.22C782.089 1014 788.224 1017.81 793.643 1022.52C804.425 1031.83 811.916 1044.39 815 1058.32L814.944 1058.35Z" fill="#EBEBEB" fill-opacity="0.28"/>
<path d="M199.268 724.063C201.677 722.546 204.52 721.834 207.373 722.033C208.804 722.134 210.21 722.46 211.537 722.997C212.866 723.55 214.104 724.295 215.21 725.207C217.434 727.078 218.99 729.601 219.648 732.405C220.309 735.217 220.034 738.163 218.866 740.81C217.698 743.458 215.697 745.668 213.158 747.115C211.909 747.853 210.547 748.389 209.125 748.702C207.706 748.998 206.248 749.074 204.805 748.927C201.923 748.616 199.218 747.412 197.079 745.489C194.975 743.586 193.545 741.07 193 738.311H193.052C193.767 740.955 195.294 743.318 197.425 745.078C199.522 746.836 202.13 747.897 204.876 748.111C206.231 748.192 207.59 748.088 208.916 747.803C210.238 747.506 211.502 747.003 212.661 746.312C214.992 744.935 216.822 742.87 217.89 740.412C218.413 739.182 218.75 737.883 218.89 736.556C219.029 735.246 218.954 733.923 218.668 732.636C218.386 731.335 217.896 730.085 217.217 728.935C216.526 727.783 215.667 726.738 214.668 725.831C212.6 724.012 210.009 722.868 207.253 722.556C204.496 722.244 201.709 722.78 199.275 724.089L199.268 724.063Z" fill="#EBEBEB" fill-opacity="0.28"/>
<path d="M220.987 731.845C220.122 728.825 218.352 726.153 215.923 724.195C213.494 722.237 210.525 721.091 207.426 720.914C205.901 720.847 204.375 721.009 202.897 721.393C199.955 722.195 197.332 723.903 195.39 726.28C194.445 727.472 193.673 728.795 193.101 730.209C191.979 733.078 191.774 736.231 192.514 739.224C192.873 740.717 193.465 742.142 194.267 743.447C195.082 744.748 196.076 745.925 197.22 746.941C199.568 748.968 202.489 750.191 205.565 750.436C208.678 750.704 211.796 749.988 214.49 748.385V748.43C211.84 750.232 208.69 751.127 205.502 750.985C202.276 750.831 199.184 749.64 196.671 747.587C195.42 746.55 194.333 745.327 193.447 743.958C192.564 742.584 191.908 741.073 191.505 739.486C191.298 738.691 191.15 737.882 191.063 737.064L191 735.831C191 735.423 191 735.014 191 734.605C191.1 732.961 191.451 731.342 192.041 729.807C193.27 726.724 195.432 724.114 198.216 722.351C200.981 720.602 204.226 719.793 207.476 720.045C209.082 720.185 210.657 720.568 212.15 721.182C213.632 721.809 215.005 722.672 216.219 723.738C218.633 725.846 220.31 728.687 221 731.839L220.987 731.845Z" fill="#EBEBEB" fill-opacity="0.28"/>
<path d="M329.268 868.063C331.677 866.546 334.52 865.834 337.373 866.033C338.804 866.134 340.21 866.46 341.537 866.997C342.866 867.55 344.104 868.295 345.21 869.207C347.434 871.078 348.99 873.601 349.648 876.405C350.309 879.217 350.034 882.163 348.866 884.81C347.698 887.458 345.697 889.668 343.158 891.115C341.909 891.853 340.547 892.389 339.125 892.702C337.706 892.998 336.248 893.074 334.805 892.927C331.923 892.616 329.218 891.412 327.079 889.489C324.975 887.586 323.545 885.07 323 882.311H323.052C323.767 884.955 325.294 887.318 327.425 889.078C329.522 890.836 332.13 891.897 334.876 892.111C336.231 892.192 337.59 892.088 338.916 891.803C340.238 891.506 341.502 891.003 342.661 890.312C344.992 888.935 346.822 886.87 347.89 884.412C348.413 883.182 348.75 881.883 348.89 880.556C349.029 879.246 348.954 877.923 348.668 876.636C348.386 875.335 347.896 874.085 347.217 872.935C346.526 871.783 345.667 870.738 344.668 869.831C342.6 868.012 340.009 866.868 337.253 866.556C334.496 866.244 331.709 866.78 329.275 868.089L329.268 868.063Z" fill="#EBEBEB" fill-opacity="0.28"/>
<path d="M350.987 875.845C350.122 872.825 348.352 870.153 345.923 868.195C343.494 866.237 340.525 865.091 337.426 864.914C335.901 864.847 334.375 865.009 332.897 865.393C329.955 866.195 327.332 867.903 325.39 870.28C324.445 871.472 323.673 872.795 323.101 874.209C321.979 877.078 321.774 880.231 322.514 883.224C322.873 884.717 323.465 886.142 324.267 887.447C325.082 888.748 326.076 889.925 327.22 890.941C329.568 892.968 332.489 894.191 335.565 894.436C338.678 894.704 341.796 893.988 344.49 892.385V892.43C341.84 894.232 338.69 895.127 335.502 894.985C332.276 894.831 329.184 893.64 326.671 891.587C325.42 890.55 324.333 889.327 323.447 887.958C322.564 886.584 321.908 885.073 321.505 883.486C321.298 882.691 321.15 881.882 321.063 881.064L321 879.831C321 879.423 321 879.014 321 878.605C321.1 876.961 321.451 875.342 322.041 873.807C323.27 870.724 325.432 868.114 328.216 866.351C330.981 864.602 334.226 863.793 337.476 864.045C339.082 864.185 340.657 864.568 342.15 865.182C343.632 865.809 345.005 866.672 346.219 867.738C348.633 869.846 350.31 872.687 351 875.839L350.987 875.845Z" fill="#EBEBEB" fill-opacity="0.28"/>
<path d="M586.268 925.063C588.677 923.546 591.52 922.834 594.373 923.033C595.804 923.134 597.21 923.46 598.537 923.997C599.866 924.55 601.104 925.295 602.21 926.207C604.434 928.078 605.99 930.601 606.648 933.405C607.309 936.217 607.034 939.163 605.866 941.81C604.698 944.458 602.697 946.668 600.158 948.115C598.909 948.853 597.547 949.389 596.125 949.702C594.706 949.998 593.248 950.074 591.805 949.927C588.923 949.616 586.218 948.412 584.079 946.489C581.975 944.586 580.545 942.07 580 939.311H580.052C580.767 941.955 582.294 944.318 584.425 946.078C586.522 947.836 589.13 948.897 591.876 949.111C593.231 949.192 594.59 949.088 595.916 948.803C597.238 948.506 598.502 948.003 599.661 947.312C601.992 945.935 603.822 943.87 604.89 941.412C605.413 940.182 605.75 938.883 605.89 937.556C606.029 936.246 605.954 934.923 605.668 933.636C605.386 932.335 604.896 931.085 604.217 929.935C603.526 928.783 602.667 927.738 601.668 926.831C599.6 925.012 597.009 923.868 594.253 923.556C591.496 923.244 588.709 923.78 586.275 925.089L586.268 925.063Z" fill="#EBEBEB" fill-opacity="0.28"/>
<path d="M607.987 932.845C607.122 929.825 605.352 927.153 602.923 925.195C600.494 923.237 597.525 922.091 594.426 921.914C592.901 921.847 591.375 922.009 589.897 922.393C586.955 923.195 584.332 924.903 582.39 927.28C581.445 928.472 580.673 929.795 580.101 931.209C578.979 934.078 578.774 937.231 579.514 940.224C579.873 941.717 580.465 943.142 581.267 944.447C582.082 945.748 583.076 946.925 584.22 947.941C586.568 949.968 589.489 951.191 592.565 951.436C595.678 951.704 598.796 950.988 601.49 949.385V949.43C598.84 951.232 595.69 952.127 592.502 951.985C589.276 951.831 586.184 950.64 583.671 948.587C582.42 947.55 581.333 946.327 580.447 944.958C579.564 943.584 578.908 942.073 578.505 940.486C578.298 939.691 578.15 938.882 578.063 938.064L578 936.831C578 936.423 578 936.014 578 935.605C578.1 933.961 578.451 932.342 579.041 930.807C580.27 927.724 582.432 925.114 585.216 923.351C587.981 921.602 591.226 920.793 594.476 921.045C596.082 921.185 597.657 921.568 599.15 922.182C600.632 922.809 602.005 923.672 603.219 924.738C605.633 926.846 607.31 929.687 608 932.839L607.987 932.845Z" fill="#EBEBEB" fill-opacity="0.28"/>
<path d="M529.268 1179.06C531.677 1177.55 534.52 1176.83 537.373 1177.03C538.804 1177.13 540.21 1177.46 541.537 1178C542.866 1178.55 544.104 1179.29 545.21 1180.21C547.434 1182.08 548.99 1184.6 549.648 1187.4C550.309 1190.22 550.034 1193.16 548.866 1195.81C547.698 1198.46 545.697 1200.67 543.158 1202.11C541.909 1202.85 540.547 1203.39 539.125 1203.7C537.706 1204 536.248 1204.07 534.805 1203.93C531.923 1203.62 529.218 1202.41 527.079 1200.49C524.975 1198.59 523.545 1196.07 523 1193.31H523.052C523.767 1195.96 525.294 1198.32 527.425 1200.08C529.522 1201.84 532.13 1202.9 534.876 1203.11C536.231 1203.19 537.59 1203.09 538.916 1202.8C540.238 1202.51 541.502 1202 542.661 1201.31C544.992 1199.93 546.822 1197.87 547.89 1195.41C548.413 1194.18 548.75 1192.88 548.89 1191.56C549.029 1190.25 548.954 1188.92 548.668 1187.64C548.386 1186.33 547.896 1185.09 547.217 1183.93C546.526 1182.78 545.667 1181.74 544.668 1180.83C542.6 1179.01 540.009 1177.87 537.253 1177.56C534.496 1177.24 531.709 1177.78 529.275 1179.09L529.268 1179.06Z" fill="#EBEBEB" fill-opacity="0.28"/>
<path d="M550.987 1186.84C550.122 1183.83 548.352 1181.15 545.923 1179.19C543.494 1177.24 540.525 1176.09 537.426 1175.91C535.901 1175.85 534.375 1176.01 532.897 1176.39C529.955 1177.19 527.332 1178.9 525.39 1181.28C524.445 1182.47 523.673 1183.8 523.101 1185.21C521.979 1188.08 521.774 1191.23 522.514 1194.22C522.873 1195.72 523.465 1197.14 524.267 1198.45C525.082 1199.75 526.076 1200.93 527.22 1201.94C529.568 1203.97 532.489 1205.19 535.565 1205.44C538.678 1205.7 541.796 1204.99 544.49 1203.39V1203.43C541.84 1205.23 538.69 1206.13 535.502 1205.99C532.276 1205.83 529.184 1204.64 526.671 1202.59C525.42 1201.55 524.333 1200.33 523.447 1198.96C522.564 1197.58 521.908 1196.07 521.505 1194.49C521.298 1193.69 521.15 1192.88 521.063 1192.06L521 1190.83C521 1190.42 521 1190.01 521 1189.6C521.1 1187.96 521.451 1186.34 522.041 1184.81C523.27 1181.72 525.432 1179.11 528.216 1177.35C530.981 1175.6 534.226 1174.79 537.476 1175.04C539.082 1175.18 540.657 1175.57 542.15 1176.18C543.632 1176.81 545.005 1177.67 546.219 1178.74C548.633 1180.85 550.31 1183.69 551 1186.84L550.987 1186.84Z" fill="#EBEBEB" fill-opacity="0.28"/>
<path d="M252.268 1235.06C254.677 1233.55 257.52 1232.83 260.373 1233.03C261.804 1233.13 263.21 1233.46 264.537 1234C265.866 1234.55 267.104 1235.29 268.21 1236.21C270.434 1238.08 271.99 1240.6 272.648 1243.4C273.309 1246.22 273.034 1249.16 271.866 1251.81C270.698 1254.46 268.697 1256.67 266.158 1258.11C264.909 1258.85 263.547 1259.39 262.125 1259.7C260.706 1260 259.248 1260.07 257.805 1259.93C254.923 1259.62 252.218 1258.41 250.079 1256.49C247.975 1254.59 246.545 1252.07 246 1249.31H246.052C246.767 1251.96 248.294 1254.32 250.425 1256.08C252.522 1257.84 255.13 1258.9 257.876 1259.11C259.231 1259.19 260.59 1259.09 261.916 1258.8C263.238 1258.51 264.502 1258 265.661 1257.31C267.992 1255.93 269.822 1253.87 270.89 1251.41C271.413 1250.18 271.75 1248.88 271.89 1247.56C272.029 1246.25 271.954 1244.92 271.668 1243.64C271.386 1242.33 270.896 1241.09 270.217 1239.93C269.526 1238.78 268.667 1237.74 267.668 1236.83C265.6 1235.01 263.009 1233.87 260.253 1233.56C257.496 1233.24 254.709 1233.78 252.275 1235.09L252.268 1235.06Z" fill="#EBEBEB" fill-opacity="0.28"/>
<path d="M273.987 1242.84C273.122 1239.83 271.352 1237.15 268.923 1235.19C266.494 1233.24 263.525 1232.09 260.426 1231.91C258.901 1231.85 257.375 1232.01 255.897 1232.39C252.955 1233.19 250.332 1234.9 248.39 1237.28C247.445 1238.47 246.673 1239.8 246.101 1241.21C244.979 1244.08 244.774 1247.23 245.514 1250.22C245.873 1251.72 246.465 1253.14 247.267 1254.45C248.082 1255.75 249.076 1256.93 250.22 1257.94C252.568 1259.97 255.489 1261.19 258.565 1261.44C261.678 1261.7 264.796 1260.99 267.49 1259.39V1259.43C264.84 1261.23 261.69 1262.13 258.502 1261.99C255.276 1261.83 252.184 1260.64 249.671 1258.59C248.42 1257.55 247.333 1256.33 246.447 1254.96C245.564 1253.58 244.908 1252.07 244.505 1250.49C244.298 1249.69 244.15 1248.88 244.063 1248.06L244 1246.83C244 1246.42 244 1246.01 244 1245.6C244.1 1243.96 244.451 1242.34 245.041 1240.81C246.27 1237.72 248.432 1235.11 251.216 1233.35C253.981 1231.6 257.226 1230.79 260.476 1231.04C262.082 1231.18 263.657 1231.57 265.15 1232.18C266.632 1232.81 268.005 1233.67 269.219 1234.74C271.633 1236.85 273.31 1239.69 274 1242.84L273.987 1242.84Z" fill="#EBEBEB" fill-opacity="0.28"/>
<path d="M858.268 835.063C860.677 833.546 863.52 832.834 866.373 833.033C867.804 833.134 869.21 833.46 870.537 833.997C871.866 834.55 873.104 835.295 874.21 836.207C876.434 838.078 877.99 840.601 878.648 843.405C879.309 846.217 879.034 849.163 877.866 851.81C876.698 854.458 874.697 856.668 872.158 858.115C870.909 858.853 869.547 859.389 868.125 859.702C866.706 859.998 865.248 860.074 863.805 859.927C860.923 859.616 858.218 858.412 856.079 856.489C853.975 854.586 852.545 852.07 852 849.311H852.052C852.767 851.955 854.294 854.318 856.425 856.078C858.522 857.836 861.13 858.897 863.876 859.111C865.231 859.192 866.59 859.088 867.916 858.803C869.238 858.506 870.502 858.003 871.661 857.312C873.992 855.935 875.822 853.87 876.89 851.412C877.413 850.182 877.75 848.883 877.89 847.556C878.029 846.246 877.954 844.923 877.668 843.636C877.386 842.335 876.896 841.085 876.217 839.935C875.526 838.783 874.667 837.738 873.668 836.831C871.6 835.012 869.009 833.868 866.253 833.556C863.496 833.244 860.709 833.78 858.275 835.089L858.268 835.063Z" fill="#EBEBEB" fill-opacity="0.28"/>
<path d="M879.987 842.845C879.122 839.825 877.352 837.153 874.923 835.195C872.494 833.237 869.525 832.091 866.426 831.914C864.901 831.847 863.375 832.009 861.897 832.393C858.955 833.195 856.332 834.903 854.39 837.28C853.445 838.472 852.673 839.795 852.101 841.209C850.979 844.078 850.774 847.231 851.514 850.224C851.873 851.717 852.465 853.142 853.267 854.447C854.082 855.748 855.076 856.925 856.22 857.941C858.568 859.968 861.489 861.191 864.565 861.436C867.678 861.704 870.796 860.988 873.49 859.385V859.43C870.84 861.232 867.69 862.127 864.502 861.985C861.276 861.831 858.184 860.64 855.671 858.587C854.42 857.55 853.333 856.327 852.447 854.958C851.564 853.584 850.908 852.073 850.505 850.486C850.298 849.691 850.15 848.882 850.063 848.064L850 846.831C850 846.423 850 846.014 850 845.605C850.1 843.961 850.451 842.342 851.041 840.807C852.27 837.724 854.432 835.114 857.216 833.351C859.981 831.602 863.226 830.793 866.476 831.045C868.082 831.185 869.657 831.568 871.15 832.182C872.632 832.809 874.005 833.672 875.219 834.738C877.633 836.846 879.31 839.687 880 842.839L879.987 842.845Z" fill="#EBEBEB" fill-opacity="0.28"/>
<path d="M912.163 560.018C922.6 553.386 934.919 550.274 947.284 551.143C953.486 551.587 959.577 553.01 965.327 555.356C971.088 557.774 976.453 561.03 981.245 565.017C990.883 573.194 997.623 584.219 1000.48 596.473C1003.34 608.763 1002.15 621.638 997.087 633.208C992.025 644.779 983.355 654.436 972.351 660.761C966.939 663.989 961.038 666.331 954.875 667.699C948.724 668.993 942.407 669.324 936.153 668.682C923.668 667.322 911.944 662.059 902.674 653.656C893.557 645.337 887.363 634.344 885 622.284H885.227C888.322 633.841 894.939 644.169 904.175 651.858C913.26 659.541 924.562 664.181 936.465 665.115C942.334 665.47 948.225 665.016 953.969 663.767C959.696 662.472 965.176 660.272 970.198 657.251C980.298 651.233 988.227 642.211 992.858 631.468C995.124 626.091 996.584 620.413 997.191 614.617C997.791 608.891 997.466 603.108 996.228 597.484C995.007 591.797 992.884 586.336 989.94 581.307C986.945 576.275 983.224 571.705 978.894 567.742C969.932 559.794 958.706 554.794 946.761 553.431C934.817 552.068 922.74 554.409 912.191 560.13L912.163 560.018Z" fill="#EBEBEB" fill-opacity="0.28"/>
<path d="M1007.94 593.347C1004.08 580.003 996.173 568.19 985.323 559.538C974.473 550.885 961.212 545.819 947.368 545.039C940.557 544.745 933.741 545.458 927.138 547.156C913.998 550.7 902.282 558.247 893.61 568.755C889.386 574.021 885.941 579.869 883.382 586.119C878.375 598.797 877.458 612.73 880.762 625.957C882.367 632.555 885.011 638.855 888.595 644.62C892.232 650.372 896.672 655.573 901.78 660.063C912.27 669.02 925.317 674.426 939.056 675.507C952.961 676.694 966.891 673.527 978.923 666.444V666.642C967.087 674.605 953.017 678.563 938.774 677.936C924.368 677.252 910.553 671.991 899.329 662.915C893.743 658.335 888.888 652.927 884.932 646.878C880.988 640.806 878.057 634.131 876.254 627.115C875.331 623.602 874.672 620.025 874.282 616.414L874 610.965C874 609.158 874 607.351 874 605.544C874.445 598.277 876.013 591.124 878.649 584.34C884.141 570.714 893.797 559.181 906.232 551.391C918.581 543.659 933.074 540.087 947.593 541.199C954.764 541.816 961.802 543.51 968.471 546.224C975.089 548.996 981.224 552.808 986.643 557.518C997.425 566.834 1004.92 579.391 1008 593.319L1007.94 593.347Z" fill="#EBEBEB" fill-opacity="0.28"/>
<path d="M398.636 581.926C404.195 578.364 410.756 576.693 417.341 577.16C420.644 577.398 423.888 578.162 426.95 579.422C430.018 580.721 432.876 582.47 435.428 584.611C440.561 589.003 444.151 594.924 445.67 601.506C447.194 608.107 446.561 615.022 443.865 621.237C441.169 627.451 436.552 632.638 430.691 636.035C427.809 637.769 424.666 639.027 421.384 639.761C418.108 640.456 414.744 640.634 411.413 640.289C404.764 639.559 398.52 636.732 393.583 632.219C388.727 627.751 385.429 621.847 384.17 615.369H384.291C385.939 621.577 389.463 627.124 394.382 631.253C399.221 635.38 405.24 637.872 411.579 638.373C414.705 638.564 417.842 638.32 420.901 637.649C423.951 636.954 426.87 635.772 429.545 634.15C434.924 630.918 439.146 626.072 441.613 620.302C442.82 617.414 443.597 614.365 443.921 611.251C444.24 608.176 444.067 605.07 443.408 602.049C442.757 598.994 441.627 596.062 440.059 593.361C438.464 590.658 436.482 588.203 434.176 586.075C429.403 581.806 423.424 579.121 417.063 578.389C410.701 577.657 404.269 578.914 398.651 581.987L398.636 581.926Z" fill="#EBEBEB" fill-opacity="0.28"/>
<path d="M449.713 599.968C447.642 592.838 443.411 586.527 437.602 581.904C431.793 577.282 424.693 574.575 417.281 574.158C413.634 574.001 409.985 574.382 406.45 575.289C399.415 577.182 393.142 581.215 388.499 586.829C386.238 589.642 384.393 592.767 383.023 596.106C380.342 602.88 379.852 610.324 381.62 617.391C382.48 620.916 383.895 624.282 385.814 627.362C387.761 630.435 390.138 633.214 392.874 635.613C398.49 640.399 405.475 643.286 412.831 643.864C420.275 644.498 427.733 642.806 434.176 639.022V639.128C427.838 643.382 420.305 645.497 412.68 645.162C404.967 644.796 397.57 641.986 391.561 637.137C388.57 634.69 385.971 631.8 383.853 628.568C381.741 625.324 380.172 621.758 379.207 618.009C378.713 616.132 378.36 614.221 378.151 612.292L378 609.381C378 608.415 378 607.45 378 606.484C378.238 602.602 379.078 598.78 380.489 595.156C383.43 587.876 388.599 581.713 395.257 577.552C401.868 573.42 409.628 571.512 417.401 572.106C421.241 572.436 425.009 573.341 428.579 574.791C432.123 576.272 435.407 578.309 438.309 580.825C444.081 585.803 448.092 592.511 449.743 599.953L449.713 599.968Z" fill="#EBEBEB" fill-opacity="0.28"/>
<defs>
<linearGradient id="paint0_linear_55_34" x1="501" y1="466" x2="529.252" y2="1010.04" gradientUnits="userSpaceOnUse">
<stop stop-color="#2A4367"/>
<stop offset="1" stop-color="#095D68"/>
</linearGradient>
<linearGradient id="paint1_linear_55_34" x1="519.5" y1="466" x2="552.5" y2="1009.5" gradientUnits="userSpaceOnUse">
<stop stop-color="#003F63"/>
<stop offset="1" stop-color="#93F2FF"/>
</linearGradient>
</defs>
</svg>
