<svg width="89" height="89" viewBox="0 0 89 89" fill="none" xmlns="http://www.w3.org/2000/svg">
<path d="M61.2894 17.5436L59.4943 18.9615L55.3761 20.2136L47.5924 25.1764L41.0607 20.3795L39.8238 17.5737L41.3322 22.3858L38.9187 21.7673L38.1494 19.6102L34.3027 18.9766L33.1865 20.4851L31.5724 19.5498L29.9131 17.6341C30.8341 17.0777 31.786 16.5741 32.7641 16.1256C36.9846 14.1813 41.5892 13.2136 46.2354 13.2945C50.8815 13.3755 55.4496 14.503 59.5999 16.5932C60.1731 16.91 60.7312 17.2117 61.2894 17.5436Z" fill="#ADADAD"/>
<path d="M59.6 16.5932L56.0852 20.7566L52.299 22.0539L54.8483 18.9465L47.5925 25.1614L45.8427 18.9465L42.8257 14.9792L44.0627 18.4487L38.9188 21.7522L32.7793 16.0954C37.0001 14.1581 41.6031 13.1969 46.2465 13.283C50.8898 13.3692 55.454 14.5006 59.6 16.5932Z" fill="#E1E1E0"/>
<path d="M29.8979 17.5888C35.4569 14.0269 42.0173 12.355 48.603 12.822C51.9059 13.0607 55.1496 13.8245 58.212 15.0847C61.2801 16.3833 64.1375 18.1323 66.6896 20.2739C71.8225 24.6654 75.4123 30.5868 76.9321 37.1688C78.4554 43.7695 77.8226 50.6846 75.1266 56.8991C72.4307 63.1137 67.8136 68.3003 61.953 71.6978C59.0707 73.4313 55.928 74.6894 52.6457 75.4237C49.3699 76.1187 46.0056 76.2969 42.6747 75.9517C36.0257 75.2212 29.7813 72.3948 24.8445 67.8814C19.9888 63.4135 16.6903 57.509 15.4316 51.0317H15.5523C17.2009 57.239 20.7252 62.7863 25.644 66.9159C30.4826 71.0423 36.5013 73.5343 42.8406 74.0359C45.9666 74.2266 49.1039 73.9829 52.163 73.3119C55.2132 72.6163 58.1317 71.4347 60.8066 69.8122C66.1852 66.5801 70.408 61.7345 72.8744 55.9644C74.0815 53.0763 74.859 50.027 75.1823 46.9136C75.502 43.8386 75.3289 40.7323 74.6694 37.7119C74.0189 34.657 72.8886 31.7244 71.3206 29.0231C69.7256 26.3204 67.7436 23.8657 65.4376 21.7371C60.6645 17.4683 54.6861 14.7832 48.3245 14.0512C41.963 13.3191 35.5309 14.5761 29.913 17.6492L29.8979 17.5888Z" fill="#EBEBEB"/>
<path d="M80.9746 35.6302C78.904 28.5009 74.6725 22.1897 68.8636 17.5668C63.0547 12.944 55.9545 10.2374 48.5424 9.82018C44.8961 9.66307 41.2466 10.0443 37.7116 10.9515C30.6766 12.8448 24.4037 16.8773 19.7607 22.4914C17.4993 25.3047 15.6551 28.4292 14.2849 31.7685C11.6039 38.5423 11.1132 45.986 12.8821 53.0531C13.7416 56.5783 15.1572 59.9442 17.0756 63.0241C19.0228 66.0975 21.4002 68.8761 24.1353 71.2754C29.7515 76.061 36.7365 78.9489 44.0924 79.5268C51.537 80.1606 58.9949 78.4688 65.4373 74.6846V74.7902C59.0999 79.0446 51.5672 81.1591 43.9416 80.8241C36.2286 80.4587 28.8321 77.6481 22.8229 72.799C19.8321 70.3522 17.2327 67.4628 15.1146 64.2309C13.0028 60.9867 11.4336 57.4202 10.4685 53.6715C9.97442 51.7948 9.62146 49.8838 9.41257 47.9544L9.26172 45.0431C9.26172 44.0776 9.26172 43.1122 9.26172 42.1468C9.49981 38.2645 10.3395 34.4427 11.7507 30.8181C14.6914 23.5382 19.8609 17.3759 26.5187 13.2142C33.1301 9.0829 40.8897 7.17472 48.6631 7.76865C52.5025 8.09828 56.2706 9.00343 59.8409 10.4537C63.3845 11.9344 66.6691 13.9714 69.5705 16.4876C75.3432 21.465 79.3537 28.1739 81.0048 35.6151L80.9746 35.6302Z" fill="#EBEBEB"/>
<path d="M28.9021 61.3195V60.339C29.4181 60.3956 29.9401 60.3264 30.4235 60.1372C30.9069 59.9481 31.3372 59.6447 31.6777 59.2529C32.3074 58.0415 32.5795 56.676 32.4621 55.3158V35.3737C32.5815 33.9989 32.3096 32.6183 31.6777 31.3914C31.3327 30.9872 30.8936 30.674 30.3991 30.4794C29.9045 30.2847 29.3698 30.2146 28.8418 30.2751V29.3549H43.7455C48.5588 29.1188 53.2705 30.7941 56.8542 34.0161C58.4669 35.5281 59.7395 37.366 60.5874 39.4076C61.4352 41.4493 61.839 43.648 61.7718 45.8576C61.8641 47.9622 61.4946 50.0615 60.6894 52.0081C59.8842 53.9547 58.6627 55.7015 57.1106 57.1259C54.0937 59.9166 49.6889 61.3195 44.1528 61.3195H28.9021ZM42.8254 30.5768H36.7915V54.1693C36.64 55.7635 36.9051 57.3696 37.5608 58.8305C37.9551 59.3009 38.462 59.6637 39.0344 59.8853C39.6068 60.1069 40.2259 60.1799 40.8342 60.0976H44.1377C45.8673 60.1822 47.5942 59.884 49.1952 59.2243C50.7962 58.5646 52.2319 57.5597 53.3998 56.2812C55.7784 53.3687 56.9835 49.6728 56.7787 45.918C56.9947 41.8463 55.6759 37.8416 53.083 34.6949C51.7827 33.2946 50.1887 32.1992 48.4153 31.4872C46.6419 30.7753 44.733 30.4644 42.8254 30.5768Z" fill="#EBEBEB"/>
</svg>
