<svg width="65" height="54" viewBox="0 0 65 54" fill="none" xmlns="http://www.w3.org/2000/svg">
<mask id="mask0_67_143" style="mask-type:luminance" maskUnits="userSpaceOnUse" x="0" y="0" width="65" height="54">
<path d="M65 0H0V54H65V0Z" fill="white"/>
</mask>
<g mask="url(#mask0_67_143)">
<path d="M22.5 28C29.4036 28 35 22.4036 35 15.5C35 8.59644 29.4036 3 22.5 3C15.5964 3 10 8.59644 10 15.5C10 22.4036 15.5964 28 22.5 28Z" fill="white"/>
<path d="M14 49C16.7614 49 19 46.7614 19 44C19 41.2386 16.7614 39 14 39C11.2386 39 9 41.2386 9 44C9 46.7614 11.2386 49 14 49Z" fill="white"/>
<path d="M51 49C53.7614 49 56 46.7614 56 44C56 41.2386 53.7614 39 51 39C48.2386 39 46 41.2386 46 44C46 46.7614 48.2386 49 51 49Z" fill="white"/>
<path d="M42 7H3V43H42V7Z" fill="white"/>
<path d="M22 15L54 15.5L61.5 29L61 44H22V15Z" fill="white"/>
<path d="M50.7813 40.7188C50.1786 40.7188 49.5896 40.8974 49.0885 41.2322C48.5874 41.567 48.1969 42.0429 47.9663 42.5996C47.7357 43.1564 47.6754 43.769 47.7929 44.36C47.9105 44.9511 48.2007 45.494 48.6268 45.9201C49.0529 46.3462 49.5958 46.6364 50.1868 46.754C50.7779 46.8715 51.3905 46.8112 51.9472 46.5806C52.504 46.35 52.9798 45.9594 53.3146 45.4584C53.6494 44.9573 53.8281 44.3682 53.8281 43.7656C53.8272 42.9578 53.5059 42.1834 52.9347 41.6122C52.3635 41.041 51.5891 40.7197 50.7813 40.7188ZM50.7813 44.7812C50.5804 44.7812 50.384 44.7217 50.217 44.6101C50.05 44.4985 49.9198 44.3399 49.8429 44.1543C49.7661 43.9687 49.746 43.7645 49.7851 43.5675C49.8243 43.3705 49.9211 43.1895 50.0631 43.0475C50.2051 42.9054 50.3861 42.8087 50.5831 42.7695C50.7801 42.7303 50.9843 42.7504 51.1699 42.8273C51.3555 42.9042 51.5141 43.0344 51.6257 43.2014C51.7373 43.3684 51.7969 43.5648 51.7969 43.7656C51.7966 44.0349 51.6895 44.293 51.4991 44.4834C51.3087 44.6738 51.0505 44.7809 50.7813 44.7812Z" fill="#FEBD17"/>
<path d="M14.2187 46.8125C14.8214 46.8125 15.4104 46.6338 15.9115 46.299C16.4126 45.9642 16.8031 45.4884 17.0337 44.9316C17.2643 44.3749 17.3246 43.7622 17.2071 43.1712C17.0895 42.5802 16.7993 42.0373 16.3732 41.6112C15.9471 41.185 15.4042 40.8949 14.8132 40.7773C14.2221 40.6597 13.6095 40.7201 13.0528 40.9507C12.496 41.1813 12.0202 41.5718 11.6854 42.0729C11.3506 42.5739 11.1719 43.163 11.1719 43.7656C11.1728 44.5734 11.4941 45.3479 12.0653 45.9191C12.6365 46.4903 13.4109 46.8116 14.2187 46.8125ZM14.2187 42.75C14.4196 42.75 14.616 42.8096 14.783 42.9212C14.95 43.0328 15.0802 43.1914 15.1571 43.377C15.2339 43.5625 15.254 43.7668 15.2149 43.9638C15.1757 44.1608 15.0789 44.3417 14.9369 44.4838C14.7949 44.6258 14.6139 44.7225 14.4169 44.7617C14.2199 44.8009 14.0157 44.7808 13.8301 44.7039C13.6445 44.6271 13.4859 44.4969 13.3743 44.3299C13.2627 44.1629 13.2031 43.9665 13.2031 43.7656C13.2034 43.4964 13.3105 43.2382 13.5009 43.0478C13.6913 42.8574 13.9495 42.7503 14.2187 42.75Z" fill="#FEBD17"/>
<path d="M62.8355 29.0429L54.7105 14.8241C54.6214 14.6688 54.4929 14.5397 54.338 14.4498C54.1831 14.36 54.0072 14.3126 53.8281 14.3125H42.6562V7.2031C42.6562 6.93374 42.5492 6.67541 42.3588 6.48495C42.1683 6.29448 41.91 6.18748 41.6406 6.18748H31.8602C30.63 4.90324 29.1526 3.88127 27.517 3.1831C25.8815 2.48492 24.1215 2.125 22.3431 2.125C20.5647 2.125 18.8048 2.48492 17.1692 3.1831C15.5336 3.88127 14.0562 4.90324 12.8261 6.18748H3.04689C2.77752 6.18748 2.5192 6.29448 2.32873 6.48495C2.13826 6.67541 2.03126 6.93374 2.03126 7.2031V43.7656C2.03126 44.035 2.13826 44.2933 2.32873 44.4838C2.5192 44.6742 2.77752 44.7812 3.04689 44.7812H8.21134C8.35122 45.6031 8.65803 46.3876 9.11285 47.0863C9.56767 47.785 10.1608 48.3831 10.8558 48.8437H2.03126C1.7619 48.8437 1.50356 48.9507 1.31309 49.1412C1.12263 49.3317 1.01563 49.59 1.01562 49.8594C1.01563 50.1287 1.12263 50.387 1.31309 50.5775C1.50356 50.768 1.7619 50.875 2.03126 50.875H58.7793C59.0487 50.875 59.307 50.768 59.4975 50.5775C59.6879 50.387 59.7949 50.1287 59.7949 49.8594C59.7949 49.59 59.6879 49.3317 59.4975 49.1412C59.307 48.9507 59.0487 48.8437 58.7793 48.8437H54.1442C54.8392 48.3831 55.4323 47.785 55.8871 47.0863C56.342 46.3876 56.6488 45.6031 56.7887 44.7812H61.9531C62.2225 44.7812 62.4808 44.6742 62.6713 44.4838C62.8617 44.2933 62.9688 44.035 62.9688 43.7656V29.5469C62.9688 29.3701 62.9229 29.1964 62.8355 29.0429ZM54.9796 19.3906L60.2024 28.5312H47.7344V19.3906H54.9796ZM13.8582 8.06892C14.0266 7.96612 14.1616 7.81661 14.2467 7.63855C16.2704 5.51038 19.0509 4.26499 21.9862 4.17206C24.9215 4.07914 27.7752 5.14615 29.9295 7.14206C32.0837 9.13796 33.3651 11.9021 33.4961 14.8359C33.6272 17.7698 32.5973 20.6371 30.6295 22.8171C28.6617 24.9971 25.9144 26.3142 22.9826 26.4833C20.0507 26.6524 17.1702 25.6598 14.9649 23.7205C12.7595 21.7812 11.4068 19.0512 11.1997 16.1218C10.9926 13.1924 11.9477 10.2993 13.8582 8.06892ZM4.06251 8.21873H11.2227C9.94592 10.2139 9.22945 12.5159 9.14837 14.8832C9.06728 17.2506 9.62458 19.5962 10.7618 21.6741C11.8991 23.752 13.5744 25.4856 15.6121 26.6933C17.6499 27.901 19.975 28.5383 22.3438 28.5383C24.7125 28.5383 27.0376 27.901 29.0754 26.6933C31.1131 25.4856 32.7884 23.752 33.9257 21.6741C35.0629 19.5962 35.6202 17.2506 35.5391 14.8832C35.4581 12.5159 34.7416 10.2139 33.4648 8.21873H40.625V34.625H4.06251V8.21873ZM8.21134 42.75H4.06251V36.6562H40.625V42.75H20.2262C19.9864 41.3301 19.2515 40.0411 18.1518 39.1116C17.0521 38.182 15.6587 37.672 14.2188 37.672C12.7788 37.672 11.3854 38.182 10.2857 39.1116C9.18602 40.0411 8.45111 41.3301 8.21134 42.75ZM14.2188 47.8281C13.4153 47.8281 12.6298 47.5898 11.9617 47.1435C11.2937 46.6971 10.773 46.0626 10.4655 45.3203C10.158 44.5779 10.0776 43.7611 10.2343 42.9731C10.3911 42.185 10.778 41.4611 11.3461 40.893C11.9143 40.3248 12.6381 39.9379 13.4262 39.7812C14.2142 39.6244 15.0311 39.7049 15.7734 40.0123C16.5157 40.3198 17.1502 40.8405 17.5966 41.5086C18.043 42.1767 18.2812 42.9621 18.2812 43.7656C18.28 44.8427 17.8516 45.8753 17.09 46.6369C16.3284 47.3985 15.2958 47.8269 14.2188 47.8281ZM17.5817 48.8437C18.2767 48.3831 18.8698 47.785 19.3247 47.0863C19.7795 46.3876 20.0863 45.6031 20.2262 44.7812H44.7738C44.9137 45.6031 45.2205 46.3876 45.6754 47.0863C46.1302 47.785 46.7233 48.3831 47.4183 48.8437H17.5817ZM50.7812 47.8281C49.9778 47.8281 49.1923 47.5898 48.5242 47.1435C47.8562 46.6971 47.3355 46.0626 47.028 45.3203C46.7205 44.5779 46.6401 43.7611 46.7968 42.9731C46.9536 42.185 47.3405 41.4611 47.9086 40.893C48.4768 40.3248 49.2006 39.9379 49.9887 39.7812C50.7767 39.6244 51.5936 39.7049 52.3359 40.0123C53.0782 40.3198 53.7127 40.8405 54.1591 41.5086C54.6055 42.1767 54.8438 42.9621 54.8438 43.7656C54.8425 44.8427 54.4141 45.8753 53.6525 46.6369C52.8909 47.3985 51.8583 47.8269 50.7812 47.8281ZM60.9375 35.6406H58.9062C58.6369 35.6406 58.3786 35.5336 58.1881 35.3431C57.9976 35.1527 57.8906 34.8943 57.8906 34.625C57.8906 34.3556 57.9976 34.0973 58.1881 33.9068C58.3786 33.7164 58.6369 33.6094 58.9062 33.6094H60.9375V35.6406ZM60.9375 31.5781H58.9062C58.0982 31.5781 57.3232 31.8991 56.7518 32.4705C56.1804 33.0419 55.8594 33.8169 55.8594 34.625C55.8594 35.4331 56.1804 36.208 56.7518 36.7794C57.3232 37.3508 58.0982 37.6719 58.9062 37.6719H60.9375V42.75H56.7887C56.5489 41.3301 55.814 40.0411 54.7143 39.1116C53.6146 38.182 52.2212 37.672 50.7812 37.672C49.3413 37.672 47.9479 38.182 46.8482 39.1116C45.7485 40.0411 45.0136 41.3301 44.7738 42.75H42.6562V16.3437H53.2391L53.8192 17.3594H46.7188C46.4494 17.3594 46.1911 17.4664 46.0006 17.6568C45.8101 17.8473 45.7031 18.1056 45.7031 18.375V29.5469C45.7031 29.8162 45.8101 30.0745 46.0006 30.265C46.1911 30.4555 46.4494 30.5625 46.7188 30.5625H60.9375V31.5781Z" fill="#202020"/>
<path d="M62.8418 48.8438H61.8262C61.5568 48.8438 61.2985 48.9508 61.108 49.1412C60.9175 49.3317 60.8105 49.59 60.8105 49.8594C60.8105 50.1287 60.9175 50.3871 61.108 50.5775C61.2985 50.768 61.5568 50.875 61.8262 50.875H62.8418C63.1112 50.875 63.3695 50.768 63.56 50.5775C63.7504 50.3871 63.8574 50.1287 63.8574 49.8594C63.8574 49.59 63.7504 49.3317 63.56 49.1412C63.3695 48.9508 63.1112 48.8438 62.8418 48.8438Z" fill="#202020"/>
<path d="M15.6406 19.1875L19.7031 22.2344C19.908 22.388 20.1634 22.4586 20.4182 22.432C20.673 22.4053 20.9082 22.2834 21.0769 22.0906L28.1863 13.9656C28.3636 13.7629 28.4532 13.498 28.4353 13.2293C28.4174 12.9605 28.2934 12.7098 28.0907 12.5325C27.8879 12.3551 27.6231 12.2655 27.3543 12.2834C27.0855 12.3014 26.8349 12.4253 26.6575 12.6281L20.1684 20.0442L16.8594 17.5625C16.6439 17.4009 16.373 17.3315 16.1064 17.3696C15.8397 17.4077 15.5991 17.5501 15.4375 17.7656C15.2759 17.9811 15.2065 18.252 15.2446 18.5186C15.2827 18.7853 15.4251 19.0259 15.6406 19.1875Z" fill="#FEBD17"/>
</g>
</svg>
