<svg width="54" height="54" viewBox="0 0 54 54" fill="none" xmlns="http://www.w3.org/2000/svg">
<path d="M33.966 2.07692H9.39597C8.72409 2.07692 8.17786 2.62315 8.17786 3.29607V50.7039C8.17786 51.3768 8.72409 51.9231 9.39701 51.9231H44.6019C45.2748 51.9231 45.821 51.3768 45.821 50.7039V13.932" fill="white"/>
<path d="M33.966 2.07692H9.39597C8.72409 2.07692 8.17786 2.62315 8.17786 3.29607V50.7039C8.17786 51.3768 8.72409 51.9231 9.39701 51.9231H44.6019C45.2748 51.9231 45.8211 51.3768 45.8211 50.7039V13.932" stroke="black" stroke-width="2" stroke-miterlimit="10" stroke-linecap="round" stroke-linejoin="round"/>
<path d="M31.1144 23.1826L34.1893 26.2585L40.4979 19.9499M13.5021 17.9238H26.1132V30.5349H13.5021V17.9238Z" stroke="#F4C046" stroke-width="2" stroke-miterlimit="10" stroke-linecap="round" stroke-linejoin="round"/>
<path d="M13.5021 37.1645H39.8946M13.5021 44.7805H39.8946M33.966 2.07692V12.7139C33.966 13.3868 34.5122 13.933 35.1852 13.933H45.8221L33.966 2.07692Z" stroke="black" stroke-width="2" stroke-miterlimit="10" stroke-linecap="round" stroke-linejoin="round"/>
</svg>
