<svg width="54" height="54" viewBox="0 0 54 54" fill="none" xmlns="http://www.w3.org/2000/svg">
<path d="M46 27.5C46 40.4787 37.2696 51 26.5 51C15.7304 51 7 40.4787 7 27.5C7 14.5213 15.7304 4 26.5 4C37.2696 4 46 14.5213 46 27.5Z" fill="white"/>
<path d="M9.28125 42.1875H6.75C5.85489 42.1875 4.99645 41.8319 4.36351 41.199C3.73058 40.566 3.375 39.7076 3.375 38.8125V32.0625C3.375 31.1674 3.73058 30.309 4.36351 29.676C4.99645 29.0431 5.85489 28.6875 6.75 28.6875H9.28125C9.50503 28.6875 9.71964 28.7764 9.87787 28.9346C10.0361 29.0929 10.125 29.3075 10.125 29.5312V41.3438C10.125 41.5675 10.0361 41.7821 9.87787 41.9404C9.71964 42.0986 9.50503 42.1875 9.28125 42.1875ZM6.75 30.375C6.30245 30.375 5.87322 30.5528 5.55676 30.8693C5.24029 31.1857 5.0625 31.6149 5.0625 32.0625V38.8125C5.0625 39.2601 5.24029 39.6893 5.55676 40.0057C5.87322 40.3222 6.30245 40.5 6.75 40.5H8.4375V30.375H6.75Z" fill="black"/>
<path d="M11.8125 44.7188C10.9174 44.7188 10.0589 44.3632 9.42601 43.7302C8.79308 43.0973 8.4375 42.2389 8.4375 41.3438V29.5312C8.4375 28.6361 8.79308 27.7777 9.42601 27.1448C10.0589 26.5118 10.9174 26.1562 11.8125 26.1562C12.7076 26.1562 13.566 26.5118 14.199 27.1448C14.8319 27.7777 15.1875 28.6361 15.1875 29.5312V41.3438C15.1875 42.2389 14.8319 43.0973 14.199 43.7302C13.566 44.3632 12.7076 44.7188 11.8125 44.7188ZM11.8125 27.8438C11.3649 27.8438 10.9357 28.0215 10.6193 28.338C10.3028 28.6545 10.125 29.0837 10.125 29.5312V41.3438C10.125 41.7913 10.3028 42.2205 10.6193 42.537C10.9357 42.8535 11.3649 43.0312 11.8125 43.0312C12.2601 43.0312 12.6893 42.8535 13.0057 42.537C13.3222 42.2205 13.5 41.7913 13.5 41.3438V29.5312C13.5 29.0837 13.3222 28.6545 13.0057 28.338C12.6893 28.0215 12.2601 27.8438 11.8125 27.8438ZM47.25 42.1875H44.7188C44.495 42.1875 44.2804 42.0986 44.1221 41.9404C43.9639 41.7821 43.875 41.5675 43.875 41.3438V29.5312C43.875 29.3075 43.9639 29.0929 44.1221 28.9346C44.2804 28.7764 44.495 28.6875 44.7188 28.6875H47.25C48.1451 28.6875 49.0035 29.0431 49.6365 29.676C50.2694 30.309 50.625 31.1674 50.625 32.0625V38.8125C50.625 39.7076 50.2694 40.566 49.6365 41.199C49.0035 41.8319 48.1451 42.1875 47.25 42.1875ZM45.5625 40.5H47.25C47.6976 40.5 48.1268 40.3222 48.4432 40.0057C48.7597 39.6893 48.9375 39.2601 48.9375 38.8125V32.0625C48.9375 31.6149 48.7597 31.1857 48.4432 30.8693C48.1268 30.5528 47.6976 30.375 47.25 30.375H45.5625V40.5Z" fill="black"/>
<path d="M42.1875 44.7188C41.2924 44.7188 40.434 44.3632 39.801 43.7302C39.1681 43.0973 38.8125 42.2389 38.8125 41.3438V29.5312C38.8125 28.6361 39.1681 27.7777 39.801 27.1448C40.434 26.5118 41.2924 26.1562 42.1875 26.1562C43.0826 26.1562 43.941 26.5118 44.574 27.1448C45.2069 27.7777 45.5625 28.6361 45.5625 29.5312V41.3438C45.5625 42.2389 45.2069 43.0973 44.574 43.7302C43.941 44.3632 43.0826 44.7188 42.1875 44.7188ZM42.1875 27.8438C41.7399 27.8438 41.3107 28.0215 40.9943 28.338C40.6778 28.6545 40.5 29.0837 40.5 29.5312V41.3438C40.5 41.7913 40.6778 42.2205 40.9943 42.537C41.3107 42.8535 41.7399 43.0312 42.1875 43.0312C42.6351 43.0312 43.0643 42.8535 43.3807 42.537C43.6972 42.2205 43.875 41.7913 43.875 41.3438V29.5312C43.875 29.0837 43.6972 28.6545 43.3807 28.338C43.0643 28.0215 42.6351 27.8438 42.1875 27.8438ZM28.6875 50.625H25.3125C24.6412 50.625 23.9973 50.3583 23.5226 49.8836C23.0479 49.4089 22.7813 48.7651 22.7812 48.0938C22.7812 47.4224 23.0479 46.7786 23.5226 46.3039C23.9973 45.8292 24.6412 45.5625 25.3125 45.5625H28.6875C29.3588 45.5625 30.0027 45.8292 30.4774 46.3039C30.9521 46.7786 31.2188 47.4224 31.2188 48.0938C31.2188 48.7651 30.9521 49.4089 30.4774 49.8836C30.0027 50.3583 29.3588 50.625 28.6875 50.625ZM25.3125 47.25C25.0887 47.25 24.8741 47.3389 24.7159 47.4971C24.5576 47.6554 24.4688 47.87 24.4688 48.0938C24.4688 48.3175 24.5576 48.5321 24.7159 48.6904C24.8741 48.8486 25.0887 48.9375 25.3125 48.9375H28.6875C28.9113 48.9375 29.1259 48.8486 29.2841 48.6904C29.4424 48.5321 29.5312 48.3175 29.5312 48.0938C29.5312 47.87 29.4424 47.6554 29.2841 47.4971C29.1259 47.3389 28.9113 47.25 28.6875 47.25H25.3125Z" fill="black"/>
<path d="M42.1875 48.9375H30.375C30.1512 48.9375 29.9366 48.8486 29.7784 48.6904C29.6201 48.5321 29.5312 48.3175 29.5312 48.0938C29.5312 47.87 29.6201 47.6554 29.7784 47.4971C29.9366 47.3389 30.1512 47.25 30.375 47.25H42.1875C43.3064 47.25 44.3794 46.8055 45.1706 46.0144C45.9618 45.2232 46.4062 44.1501 46.4062 43.0313V41.3438C46.4062 41.12 46.4951 40.9054 46.6534 40.7471C46.8116 40.5889 47.0262 40.5 47.25 40.5C47.4738 40.5 47.6884 40.5889 47.8466 40.7471C48.0049 40.9054 48.0938 41.12 48.0938 41.3438V43.0313C48.0938 44.5977 47.4715 46.1 46.3638 47.2076C45.2562 48.3152 43.7539 48.9375 42.1875 48.9375ZM46.4062 30.375C46.1825 30.375 45.9679 30.2861 45.8096 30.1279C45.6514 29.9696 45.5625 29.755 45.5625 29.5313V23.625C45.5635 22.8151 45.5099 22.0061 45.4022 21.2034C45.3878 21.0926 45.3953 20.9801 45.4244 20.8722C45.4535 20.7643 45.5036 20.6632 45.5718 20.5747C45.6399 20.4862 45.7249 20.4119 45.8217 20.3562C45.9186 20.3005 46.0254 20.2644 46.1362 20.25C46.2471 20.2356 46.3596 20.2432 46.4675 20.2723C46.5754 20.3013 46.6765 20.3514 46.765 20.4196C46.8535 20.4877 46.9278 20.5727 46.9835 20.6695C47.0392 20.7664 47.0753 20.8733 47.0897 20.9841C47.2018 21.8598 47.2554 22.7421 47.25 23.625V29.5313C47.25 29.755 47.1611 29.9696 47.0029 30.1279C46.8446 30.2861 46.63 30.375 46.4062 30.375ZM7.59375 30.375C7.36997 30.375 7.15536 30.2861 6.99713 30.1279C6.83889 29.9696 6.75 29.755 6.75 29.5313V23.625C6.7502 22.7417 6.80939 21.8595 6.92719 20.9841C6.94159 20.8733 6.97768 20.7664 7.03339 20.6695C7.0891 20.5727 7.16334 20.4877 7.25188 20.4196C7.34041 20.3514 7.44151 20.3013 7.54939 20.2723C7.65727 20.2432 7.76982 20.2356 7.88063 20.25C7.99143 20.2644 8.09831 20.3005 8.19516 20.3562C8.29202 20.4119 8.37696 20.4862 8.44512 20.5747C8.51328 20.6632 8.56334 20.7643 8.59244 20.8722C8.62153 20.9801 8.62909 21.0926 8.61469 21.2034C8.50133 22.0057 8.44214 22.8148 8.4375 23.625V29.5313C8.4375 29.755 8.34861 29.9696 8.19037 30.1279C8.03214 30.2861 7.81753 30.375 7.59375 30.375Z" fill="black"/>
<path d="M46.2375 21.9375C44.9327 21.9189 43.6613 21.5224 42.5771 20.7962C41.4929 20.0699 40.6425 19.0449 40.1288 17.8453C39.001 15.2866 37.15 13.1134 34.8033 11.5929C32.4567 10.0724 29.7168 9.27088 26.9207 9.28702C24.1245 9.30316 21.3941 10.1362 19.0652 11.6837C16.7362 13.2312 14.9104 15.4257 13.8122 17.9972C13.3384 19.1514 12.5353 20.1406 11.5029 20.8413C10.4706 21.542 9.25482 21.9233 8.00722 21.9375H7.76254C7.64187 21.9385 7.52238 21.9136 7.41215 21.8646C7.30191 21.8155 7.20348 21.7433 7.12351 21.6529C7.04354 21.5626 6.98388 21.4561 6.94857 21.3407C6.91325 21.2253 6.90309 21.1037 6.91879 20.9841C7.56658 16.1194 9.95899 11.6554 13.6512 8.42235C17.3433 5.18926 22.084 3.40701 26.9916 3.40701C31.8992 3.40701 36.6399 5.18926 40.3321 8.42235C44.0242 11.6554 46.4166 16.1194 47.0644 20.9841C47.0801 21.1037 47.07 21.2253 47.0346 21.3407C46.9993 21.4561 46.9397 21.5626 46.8597 21.6529C46.7797 21.7433 46.6813 21.8155 46.5711 21.8646C46.4608 21.9136 46.3413 21.9385 46.2207 21.9375H46.2375ZM27 5.06249C22.674 5.06217 18.4837 6.57283 15.153 9.33351C11.8223 12.0942 9.56045 15.9315 8.75816 20.1825C9.5332 20.0365 10.2595 19.6991 10.871 19.2011C11.4825 18.703 11.9599 18.0601 12.2597 17.3306C13.2869 14.9177 14.8903 12.7937 16.9293 11.1446C18.9684 9.49561 21.3809 8.37199 23.9552 7.87227C26.5296 7.37256 29.1873 7.51201 31.6952 8.27841C34.2031 9.04481 36.4848 10.4147 38.34 12.2681C39.756 13.6718 40.9002 15.3252 41.715 17.145C42.0332 17.886 42.5213 18.5418 43.1398 19.0592C43.7584 19.5766 44.4901 19.9412 45.2757 20.1234C44.5694 16.4739 42.7888 13.1185 40.1625 10.4878C38.4383 8.75539 36.3865 7.38347 34.1267 6.45203C31.8668 5.52058 29.4442 5.04823 27 5.06249Z" fill="black"/>
<path d="M32.9062 27C32.6825 27 32.4679 26.9111 32.3096 26.7529C32.1514 26.5946 32.0625 26.38 32.0625 26.1562V22.7812C32.0625 22.5575 32.1514 22.3429 32.3096 22.1846C32.4679 22.0264 32.6825 21.9375 32.9062 21.9375C33.13 21.9375 33.3446 22.0264 33.5029 22.1846C33.6611 22.3429 33.75 22.5575 33.75 22.7812V26.1562C33.75 26.38 33.6611 26.5946 33.5029 26.7529C33.3446 26.9111 33.13 27 32.9062 27Z" fill="#F4C046"/>
<path d="M27 33.75C24.8306 33.75 22.7099 33.1067 20.9061 31.9014C19.1023 30.6962 17.6964 28.9831 16.8662 26.9788C16.036 24.9745 15.8188 22.7691 16.242 20.6414C16.6652 18.5136 17.7099 16.5592 19.2439 15.0252C20.7779 13.4912 22.7324 12.4465 24.8601 12.0233C26.9878 11.6 29.1933 11.8173 31.1976 12.6475C33.2018 13.4777 34.9149 14.8835 36.1202 16.6873C37.3255 18.4911 37.9688 20.6118 37.9688 22.7813C37.9688 23.005 37.8799 23.2196 37.7216 23.3779C37.5634 23.5361 37.3488 23.625 37.125 23.625C36.9012 23.625 36.6866 23.5361 36.5284 23.3779C36.3701 23.2196 36.2813 23.005 36.2813 22.7813C36.2813 20.9456 35.7369 19.1512 34.7171 17.6249C33.6972 16.0986 32.2477 14.909 30.5518 14.2065C28.8559 13.504 26.9897 13.3202 25.1893 13.6783C23.3889 14.0365 21.7352 14.9204 20.4372 16.2184C19.1392 17.5164 18.2552 19.1702 17.8971 20.9706C17.539 22.771 17.7228 24.6371 18.4252 26.333C19.1277 28.029 20.3173 29.4785 21.8436 30.4983C23.3699 31.5182 25.1643 32.0625 27 32.0625C27.2238 32.0625 27.4384 32.1514 27.5966 32.3096C27.7549 32.4679 27.8438 32.6825 27.8438 32.9063C27.8438 33.13 27.7549 33.3446 27.5966 33.5029C27.4384 33.6611 27.2238 33.75 27 33.75Z" fill="#FEBD17"/>
<path d="M26.1563 36.2813C26.0452 36.2819 25.9351 36.2606 25.8323 36.2186C25.7295 36.1766 25.636 36.1148 25.5572 36.0366C25.4781 35.9581 25.4153 35.8648 25.3725 35.762C25.3297 35.6592 25.3076 35.5489 25.3076 35.4375C25.3076 35.3261 25.3297 35.2158 25.3725 35.113C25.4153 35.0102 25.4781 34.9169 25.5572 34.8384L27.4978 32.9063L25.5572 30.9741C25.3983 30.8152 25.3091 30.5997 25.3091 30.375C25.3091 30.1503 25.3983 29.9348 25.5572 29.7759C25.7161 29.6171 25.9316 29.5278 26.1563 29.5278C26.381 29.5278 26.5964 29.6171 26.7553 29.7759L29.2866 32.3072C29.3657 32.3856 29.4284 32.479 29.4713 32.5818C29.5141 32.6846 29.5362 32.7949 29.5362 32.9063C29.5362 33.0176 29.5141 33.1279 29.4713 33.2307C29.4284 33.3336 29.3657 33.4269 29.2866 33.5053L26.7553 36.0366C26.6765 36.1148 26.583 36.1766 26.4802 36.2186C26.3774 36.2606 26.2673 36.2819 26.1563 36.2813Z" fill="#F4C046"/>
</svg>
