<svg width="54" height="54" viewBox="0 0 54 54" fill="none" xmlns="http://www.w3.org/2000/svg">
<circle cx="28.08" cy="27" r="24.84" fill="white"/>
<mask id="path-2-inside-1_67_134" fill="white">
<path d="M27 52.3125C13.0427 52.3125 1.6875 40.9573 1.6875 27C1.6875 20.8474 3.92006 14.9175 7.97681 10.3022C8.28563 9.95288 8.81888 9.92081 9.16819 10.2262C9.5175 10.5334 9.55125 11.0683 9.24581 11.4176C5.45906 15.7224 3.375 21.2574 3.375 27C3.375 40.0275 13.9725 50.625 27 50.625C40.0275 50.625 50.625 40.0275 50.625 27C50.625 13.9725 40.0275 3.375 27 3.375C22.7745 3.375 18.63 4.50225 15.0137 6.63694C14.6171 6.86812 14.0974 6.73988 13.8594 6.33825C13.6215 5.93831 13.7548 5.42025 14.1581 5.18231C18.0326 2.89575 22.4724 1.6875 27 1.6875C40.9573 1.6875 52.3125 13.0427 52.3125 27C52.3125 40.9573 40.9573 52.3125 27 52.3125Z"/>
</mask>
<path d="M27 52.3125C13.0427 52.3125 1.6875 40.9573 1.6875 27C1.6875 20.8474 3.92006 14.9175 7.97681 10.3022C8.28563 9.95288 8.81888 9.92081 9.16819 10.2262C9.5175 10.5334 9.55125 11.0683 9.24581 11.4176C5.45906 15.7224 3.375 21.2574 3.375 27C3.375 40.0275 13.9725 50.625 27 50.625C40.0275 50.625 50.625 40.0275 50.625 27C50.625 13.9725 40.0275 3.375 27 3.375C22.7745 3.375 18.63 4.50225 15.0137 6.63694C14.6171 6.86812 14.0974 6.73988 13.8594 6.33825C13.6215 5.93831 13.7548 5.42025 14.1581 5.18231C18.0326 2.89575 22.4724 1.6875 27 1.6875C40.9573 1.6875 52.3125 13.0427 52.3125 27C52.3125 40.9573 40.9573 52.3125 27 52.3125Z" fill="black"/>
<path d="M7.97681 10.3022L6.4784 8.9775L6.47462 8.9818L7.97681 10.3022ZM9.16819 10.2262L10.4888 8.72424L10.4847 8.72065L9.16819 10.2262ZM9.24581 11.4176L10.7475 12.7386L10.7514 12.7341L9.24581 11.4176ZM15.0137 6.63694L16.021 8.36479L16.0304 8.35925L15.0137 6.63694ZM13.8594 6.33825L15.5801 5.31884L15.5783 5.31566L13.8594 6.33825ZM14.1581 5.18231L15.1744 6.90488L15.1746 6.90473L14.1581 5.18231ZM27 50.3125C14.1473 50.3125 3.6875 39.8527 3.6875 27H-0.3125C-0.3125 42.0619 11.9381 54.3125 27 54.3125V50.3125ZM3.6875 27C3.6875 21.3324 5.74377 15.8721 9.479 11.6226L6.47462 8.9818C2.09636 13.9629 -0.3125 20.3624 -0.3125 27H3.6875ZM9.47522 11.6269C9.05116 12.1065 8.32604 12.1466 7.85169 11.7319L10.4847 8.72065C9.31171 7.695 7.52009 7.7992 6.47841 8.97751L9.47522 11.6269ZM7.84759 11.7283C7.36581 11.3047 7.32274 10.5786 7.74021 10.1011L10.7514 12.7341C11.7798 11.5581 11.6692 9.76209 10.4888 8.72425L7.84759 11.7283ZM7.74413 10.0967C3.63533 14.7676 1.375 20.7725 1.375 27H5.375C5.375 21.7423 7.2828 16.6773 10.7475 12.7386L7.74413 10.0967ZM1.375 27C1.375 41.1321 12.8679 52.625 27 52.625V48.625C15.0771 48.625 5.375 38.9229 5.375 27H1.375ZM27 52.625C41.1321 52.625 52.625 41.1321 52.625 27H48.625C48.625 38.9229 38.9229 48.625 27 48.625V52.625ZM52.625 27C52.625 12.8679 41.1321 1.375 27 1.375V5.375C38.9229 5.375 48.625 15.0771 48.625 27H52.625ZM27 1.375C22.4195 1.375 17.9236 2.5968 13.997 4.91462L16.0304 8.35925C19.3364 6.4077 23.1295 5.375 27 5.375V1.375ZM14.0064 4.90911C14.5452 4.59502 15.2495 4.76082 15.5801 5.31884L12.1387 7.35766C12.9452 8.71893 14.6891 9.14123 16.021 8.36476L14.0064 4.90911ZM15.5783 5.31566C15.9104 5.87397 15.7184 6.58395 15.1744 6.90488L13.1419 3.45974C11.7913 4.25655 11.3326 6.00266 12.1406 7.36084L15.5783 5.31566ZM15.1746 6.90473C18.7391 4.80112 22.8276 3.6875 27 3.6875V-0.3125C22.1173 -0.3125 17.3261 0.990385 13.1416 3.45989L15.1746 6.90473ZM27 3.6875C39.8527 3.6875 50.3125 14.1473 50.3125 27H54.3125C54.3125 11.9381 42.0619 -0.3125 27 -0.3125V3.6875ZM50.3125 27C50.3125 39.8527 39.8527 50.3125 27 50.3125V54.3125C42.0619 54.3125 54.3125 42.0619 54.3125 27H50.3125Z" fill="black" mask="url(#path-2-inside-1_67_134)"/>
<path d="M27 48.0938C15.3681 48.0938 5.90625 38.6319 5.90625 27C5.90625 15.3681 15.3681 5.90625 27 5.90625C38.6319 5.90625 48.0938 15.3681 48.0938 27C48.0938 38.6319 38.6319 48.0938 27 48.0938ZM27 7.59375C16.2996 7.59375 7.59375 16.2996 7.59375 27C7.59375 37.7004 16.2996 46.4062 27 46.4062C37.7004 46.4062 46.4062 37.7004 46.4062 27C46.4062 16.2996 37.7004 7.59375 27 7.59375Z" fill="black"/>
<path d="M35.0156 13.9556C34.7962 13.9556 34.5769 13.8712 34.4233 13.7194C34.2546 13.5506 34.1719 13.3312 34.1719 13.1119C34.1719 12.8925 34.2563 12.6731 34.4233 12.5212C34.7439 12.2006 35.3025 12.2006 35.6046 12.5212C35.775 12.6731 35.8577 12.8925 35.8577 13.1119C35.8577 13.3312 35.775 13.5506 35.6063 13.7025C35.4544 13.8712 35.235 13.9556 35.0156 13.9556ZM18.9844 41.7302C18.765 41.7302 18.5456 41.6289 18.3921 41.4787C18.2233 41.3083 18.1406 41.0906 18.1406 40.8864C18.1406 40.6671 18.225 40.4477 18.3769 40.2806C18.6975 39.9752 19.2713 39.9752 19.575 40.2806C19.7454 40.4494 19.8281 40.6671 19.8281 40.8864C19.8281 41.0889 19.7438 41.3083 19.5902 41.4787C19.4231 41.6306 19.2037 41.7302 18.9844 41.7302ZM40.8864 19.8281C40.6671 19.8281 40.4477 19.7437 40.2958 19.5902C40.1271 19.4214 40.0427 19.2037 40.0427 18.9844C40.0427 18.765 40.1288 18.5456 40.2806 18.3921C40.6164 18.0562 41.1733 18.0731 41.4788 18.3921C41.6306 18.5456 41.7302 18.765 41.7302 18.9844C41.7302 19.2037 41.6458 19.4231 41.4788 19.575C41.3269 19.7437 41.1058 19.8281 40.8864 19.8281ZM13.1119 35.8594C12.8925 35.8594 12.69 35.775 12.5213 35.6214C12.3508 35.4375 12.2681 35.2181 12.2681 35.0156C12.2681 34.7962 12.3525 34.5937 12.5061 34.4233C12.8773 34.0875 13.3987 34.1044 13.7211 34.4233C13.8729 34.5769 13.9573 34.7962 13.9573 35.0156C13.9573 35.235 13.8729 35.4544 13.7211 35.6062C13.5506 35.775 13.3481 35.8594 13.1119 35.8594ZM43.0312 27.8437C42.8119 27.8437 42.5925 27.7594 42.4389 27.5906C42.2719 27.4387 42.1875 27.2194 42.1875 27C42.1875 26.7806 42.2719 26.5612 42.4389 26.4077C42.7444 26.0887 43.3013 26.0887 43.6202 26.3908C43.7906 26.5612 43.875 26.7806 43.875 27C43.875 27.2194 43.7906 27.4387 43.6371 27.5906C43.47 27.7594 43.2506 27.8437 43.0312 27.8437ZM10.9688 27.8437C10.7494 27.8437 10.53 27.7594 10.3764 27.5906C10.2094 27.4387 10.125 27.2194 10.125 27C10.125 26.7806 10.2094 26.5612 10.3764 26.4077C10.6819 26.0887 11.2387 26.0887 11.5577 26.3908C11.7281 26.5612 11.8125 26.7806 11.8125 27C11.8125 27.2194 11.7281 27.4387 11.5746 27.5906C11.4075 27.7594 11.1881 27.8437 10.9688 27.8437ZM40.8864 35.8594C40.6671 35.8594 40.4477 35.775 40.2806 35.6214C40.1288 35.4527 40.0427 35.235 40.0427 35.0156C40.0427 34.7962 40.1288 34.5769 40.2806 34.4233C40.6164 34.0875 41.1733 34.1044 41.4788 34.4233C41.6306 34.5769 41.7302 34.7962 41.7302 35.0156C41.7302 35.235 41.6458 35.4544 41.4788 35.6062C41.3269 35.775 41.1058 35.8594 40.8864 35.8594ZM13.1119 19.8281C12.8925 19.8281 12.69 19.7437 12.5213 19.5902C12.3508 19.4062 12.2681 19.1869 12.2681 18.9844C12.2681 18.765 12.3525 18.5625 12.5061 18.3921C12.8773 18.0562 13.3987 18.0731 13.7211 18.3921C13.8729 18.5456 13.9573 18.765 13.9573 18.9844C13.9573 19.2037 13.8729 19.4231 13.7211 19.575C13.5506 19.7437 13.3296 19.8281 13.1119 19.8281ZM35.0156 41.7302C34.7962 41.7302 34.5769 41.6458 34.4233 41.4939C34.2546 41.3083 34.1719 41.1058 34.1719 40.8864C34.1719 40.6671 34.2562 40.4477 34.4081 40.2806C34.7456 39.96 35.2873 39.9752 35.6063 40.2806C35.7767 40.4494 35.8594 40.6671 35.8594 40.8864C35.8594 41.0889 35.775 41.3083 35.6214 41.4787C35.4544 41.6475 35.235 41.7302 35.0156 41.7302ZM18.9844 13.9556C18.765 13.9556 18.5456 13.8712 18.3921 13.7042C18.225 13.5506 18.1406 13.3296 18.1406 13.1119C18.1406 12.8942 18.225 12.6731 18.3921 12.5212C18.6975 12.2006 19.2544 12.2006 19.5733 12.5044C19.7437 12.6731 19.8264 12.8908 19.8264 13.1102C19.8264 13.3296 19.7438 13.5506 19.575 13.7025C19.4063 13.8712 19.2037 13.9556 18.9844 13.9556ZM27 43.875C26.7806 43.875 26.5781 43.7906 26.4077 43.6371C26.2406 43.4531 26.1562 43.2506 26.1562 43.0312C26.1562 42.8119 26.2406 42.5925 26.3925 42.4389C26.7469 42.1031 27.2869 42.12 27.5906 42.4389C27.7594 42.5925 27.8438 42.8119 27.8438 43.0312C27.8438 43.2506 27.7594 43.47 27.5906 43.6219C27.4388 43.7906 27.2194 43.875 27 43.875ZM27 11.8125C26.7806 11.8125 26.5781 11.7281 26.4077 11.5746C26.2406 11.4075 26.1562 11.1881 26.1562 10.9687C26.1562 10.7308 26.2406 10.53 26.3925 10.3764C26.7469 10.0406 27.2869 10.0575 27.5906 10.3764C27.7594 10.53 27.8438 10.7494 27.8438 10.9687C27.8438 11.1881 27.7594 11.4075 27.6058 11.5594C27.4387 11.7281 27.2194 11.8125 27 11.8125ZM37.7393 16.2607C37.4102 15.9317 36.8752 15.9317 36.5462 16.2607L27.4117 25.3952C28.0041 25.5487 28.4513 25.9959 28.6048 26.5882L37.7393 17.4538C38.07 17.1231 38.07 16.5898 37.7393 16.2607ZM26.5882 25.3952L16.2607 15.0677C15.9317 14.7386 15.3967 14.7386 15.0677 15.0677C14.7386 15.3967 14.7386 15.9317 15.0677 16.2607L25.3952 26.5882C25.5487 25.9959 25.9959 25.5487 26.5882 25.3952Z" fill="#F4C046"/>
<path d="M27 29.5312C25.6044 29.5312 24.4688 28.3956 24.4688 27C24.4688 25.6044 25.6044 24.4688 27 24.4688C28.3956 24.4688 29.5312 25.6044 29.5312 27C29.5312 28.3956 28.3956 29.5312 27 29.5312ZM27 26.1562C26.5359 26.1562 26.1562 26.5359 26.1562 27C26.1562 27.4641 26.5359 27.8438 27 27.8438C27.4641 27.8438 27.8438 27.4641 27.8438 27C27.8438 26.5359 27.4641 26.1562 27 26.1562Z" fill="black"/>
<path d="M12.6562 7.59375C12.6562 8.05781 12.2766 8.4375 11.8125 8.4375C11.3484 8.4375 10.9688 8.05781 10.9688 7.59375C10.9688 7.12969 11.3484 6.75 11.8125 6.75C12.2766 6.75 12.6562 7.12969 12.6562 7.59375Z" fill="black"/>
</svg>
