<?xml version="1.0" standalone="no"?>
  <!DOCTYPE svg PUBLIC "-//W3C//DTD SVG 1.1//EN" "http://www.w3.org/Graphics/SVG/1.1/DTD/svg11.dtd" >
  <svg>
  <metadata>
  Created by font-carrier
  </metadata>
  <defs>
  <font id="Karla-Regular" horiz-adv-x="940" vert-adv-y="940" >
    <font-face
      
      font-family="Karla"
      
      font-weight="400"
      
      font-stretch="normal"
      
      units-per-em="1000"
      
      ascent="917"
      
      descent="-252"
      
    />
      <missing-glyph />

      

      
      <glyph glyph-name="uni21" unicode="&#x21;" d="M99 627L182 627L173 176L109 176L99 627M140.50-9Q140.50-9 127.75-9Q115-9 98.50 7.50Q82 24 82 47.50Q82 71 98.50 87.50Q115 104 140.50 104Q166 104 183.50 87.50Q201 71 201 47.50Q201 24 183.50 7.50Q166-9 140.50-9Z"  horiz-adv-x="278" vert-adv-y="1000"  />

      
      <glyph glyph-name="uni22" unicode="&#x22;" d="M110 681L99 461L39 461L28 681L110 681M278 681L267 461L207 461L196 681L278 681Z"  horiz-adv-x="306" vert-adv-y="1000"  />

      
      <glyph glyph-name="uni23" unicode="&#x23;" d="M380 170L226 170L212 31L138 31L152 170L53 170L58 224L158 224L177 402L76 402L82 455L182 455L197 593L271 593L256 455L410 455L425 593L498 593L483 455L586 455L580 402L478 402L459 224L562 224L556 170L453 170L439 31L365 31L380 170M232 224L385 224L404 402L251 402L232 224Z"  horiz-adv-x="627" vert-adv-y="1000"  />

      
      <glyph glyph-name="uni24" unicode="&#x24;" d="M417 330Q486 307 524.50 268.50Q563 230 563 163.50Q563 97 506 46.50Q449-4 347-10L347-91L285-91L285-9Q190-1 129.50 50.50Q69 102 69 189L146 189Q146 76 285 63L285 298L253 310Q170 336 127.50 372Q85 408 85 475Q85 542 135.50 586.50Q186 631 285 638L285 713L347 713L347 637Q434 630 481 587Q528 544 539 476L461 476Q444 556 347 568L347 353L417 330M475 167Q475 241 383 270L347 282L347 62Q410 67 442.50 98Q475 129 475 167M285 569Q228 563 199 536Q170 509 170 472.50Q170 436 190 415.50Q210 395 255 381L285 370L285 569Z"  horiz-adv-x="632" vert-adv-y="1000"  />

      
      <glyph glyph-name="uni25" unicode="&#x25;" d="M188 640Q188 640 214.50 640Q241 640 279 602Q317 564 317 496Q317 428 279.50 390.50Q242 353 188 353Q134 353 97.50 391Q61 429 61 496Q61 563 98 601.50Q135 640 188 640M253 496Q253 543 235 565Q217 587 188 587Q159 587 141 565Q123 543 123 496Q123 449 141 428Q159 407 188 407Q217 407 235 428Q253 449 253 496M534 629L616 629L193 0L112 0L534 629M538 276Q592 276 629.50 238.50Q667 201 667 132.50Q667 64 629.50 26.50Q592-11 538-11Q484-11 447.50 27Q411 65 411 132.50Q411 200 447.50 238Q484 276 538 276M538 223Q509 223 491 201Q473 179 473 132Q473 85 491 64Q509 43 538 43Q567 43 585 64Q603 85 603 132Q603 179 585 201Q567 223 538 223Z"  horiz-adv-x="726" vert-adv-y="1000"  />

      
      <glyph glyph-name="uni26" unicode="&#x26;" d="M725 350Q680 213 610 128L653 91Q673 74 688.50 66Q704 58 728.50 58Q753 58 772.50 76.50Q792 95 795 140L869 140Q865 68 831.50 28.50Q798-11 734-11Q695-11 662 5Q629 21 590 56L564 78Q464-11 336-11Q231-11 160 41.50Q89 94 89 168Q89 242 136.50 279.50Q184 317 276 332L262 345Q185 412 185 492Q185 555 237.50 597Q290 639 376.50 639Q463 639 514.50 597Q566 555 566 495.50Q566 436 527 393Q488 350 400 312L558 173Q626 255 670 380L725 350M325 288Q248 278 211.50 251Q175 224 175 176Q175 128 216.50 93.50Q258 59 344 59Q430 59 511 125L325 288M480 488Q480 524 452.50 548Q425 572 375.50 572Q326 572 298.50 544.50Q271 517 271 485Q271 453 284 428Q297 403 327 377L354 352Q458 400 474 452Q480 469 480 488Z"  horiz-adv-x="916" vert-adv-y="1000"  />

      
      <glyph glyph-name="uni27" unicode="&#x27;" d="M109 677L98 457L38 457L27 677L109 677Z"  horiz-adv-x="136" vert-adv-y="1000"  />

      
      <glyph glyph-name="uni28" unicode="&#x28;" d="M328 687Q155 512 155 307Q155 102 328-73L271-113Q173-24 123 84Q73 192 73 307.50Q73 423 123 530.50Q173 638 271 728L328 687Z"  horiz-adv-x="356" vert-adv-y="1000"  />

      
      <glyph glyph-name="uni29" unicode="&#x29;" d="M28-73Q201 102 201 307Q201 512 28 687L85 728Q183 638 233 530.50Q283 423 283 307.50Q283 192 233 84Q183-24 85-113L28-73Z"  horiz-adv-x="356" vert-adv-y="1000"  />

      
      <glyph glyph-name="uni2a" unicode="&#x2a;" d="M173 516L56 556L80 610L186 556L176 684L238 684L228 556L334 610L358 556L242 516L332 427L288 388L208 492L128 388L83 427L173 516Z"  horiz-adv-x="412" vert-adv-y="1000"  />

      
      <glyph glyph-name="uni2b" unicode="&#x2b;" d="M303 491L303 279L509 279L509 212L303 212L303 0L224 0L224 212L18 212L18 279L224 279L224 491L303 491Z"  horiz-adv-x="527" vert-adv-y="1000"  />

      
      <glyph glyph-name="uni2c" unicode="&#x2c;" d="M105-5Q82-3 67 10Q52 23 52 45Q52 67 67.50 82Q83 97 111.50 97Q140 97 159 74.50Q178 52 178 18Q178-16 156-51.50Q134-87 89-109L30-80Q92-50 105-5Z"  horiz-adv-x="210" vert-adv-y="1000"  />

      
      <glyph glyph-name="uni2d" unicode="&#x2d;" d="M38 325L310 325L310 257L38 257L38 325Z"  horiz-adv-x="349" vert-adv-y="1000"  />

      
      <glyph glyph-name="uni2e" unicode="&#x2e;" d="M88.50-9Q88.50-9 75.75-9Q63-9 46.50 7.50Q30 24 30 47.50Q30 71 46.50 87.50Q63 104 88.50 104Q114 104 131 87.50Q148 71 148 47.50Q148 24 131 7.50Q114-9 88.50-9Z"  horiz-adv-x="179" vert-adv-y="1000"  />

      
      <glyph glyph-name="uni2f" unicode="&#x2f;" d="M308 731L388 731L136-73L57-73L308 731Z"  horiz-adv-x="432" vert-adv-y="1000"  />

      
      <glyph glyph-name="uni30" unicode="&#x30;" d="M298 640Q298 640 355 640Q412 640 478 556Q544 472 544 314.50Q544 157 478 73Q412-11 298-11Q184-11 117.50 72Q51 155 51 314.50Q51 474 117.50 557Q184 640 298 640M462 314.50Q462 314.50 462 375.75Q462 437 420 502.50Q378 568 297.50 568Q217 568 175 502.50Q133 437 133 314.50Q133 192 175 126.50Q217 61 297.50 61Q378 61 420 126.50Q462 192 462 314.50Z"  horiz-adv-x="594" vert-adv-y="1000"  />

      
      <glyph glyph-name="uni31" unicode="&#x31;" d="M49 580Q116 589 166 631L230 631L230 0L152 0L152 537Q102 505 49 502L49 580Z"  horiz-adv-x="331" vert-adv-y="1000"  />

      
      <glyph glyph-name="uni32" unicode="&#x32;" d="M143 73L508 73L508 0L64 0L64 93Q64 204 148 256Q175 273 208 286L332 336Q428 374 428 461Q428 509 395 539.50Q362 570 302.50 570Q243 570 205.50 545Q168 520 162 470L75 470Q80 552 141 596Q202 640 297.50 640Q393 640 453 588Q513 536 513 459.50Q513 383 473.50 338Q434 293 365 266L238 215Q190 195 166.50 169.50Q143 144 143 103L143 73Z"  horiz-adv-x="580" vert-adv-y="1000"  />

      
      <glyph glyph-name="uni33" unicode="&#x33;" d="M505 468Q505 368 395 329Q455 312 492 273Q529 234 529 173Q529 90 466 39.50Q403-11 300-11Q197-11 124.50 42.50Q52 96 52 193L134 193Q136 129 181.50 95Q227 61 297 61Q367 61 405.50 94.50Q444 128 444 177.50Q444 227 407 258.50Q370 290 287 290L215 290L215 353L264 353Q336 353 378 381.50Q420 410 420 458Q420 506 386 537Q352 568 296 568Q240 568 202.50 548.50Q165 529 152 476L70 476Q81 559 139 599.50Q197 640 288.50 640Q380 640 442.50 591.50Q505 543 505 468Z"  horiz-adv-x="591" vert-adv-y="1000"  />

      
      <glyph glyph-name="uni34" unicode="&#x34;" d="M428 638L428 220L537 220L537 152L428 152L428 0L351 0L351 152L26 152L26 213L355 638L428 638M120 213L353 213L353 513L120 213Z"  horiz-adv-x="559" vert-adv-y="1000"  />

      
      <glyph glyph-name="uni35" unicode="&#x35;" d="M427 204Q427 323 272 323L103 323L130 629L479 629L479 557L206 557L189 376Q241 385 288 385Q391 385 450 339.50Q509 294 509 202Q509 110 447 49.50Q385-11 287-11Q189-11 127 38.50Q65 88 65 175L144 175Q144 93 228 68Q254 61 285 61Q349 61 388 101.50Q427 142 427 204Z"  horiz-adv-x="565" vert-adv-y="1000"  />

      
      <glyph glyph-name="uni36" unicode="&#x36;" d="M425 470Q408 568 318 568Q228 568 179.50 494Q131 420 131 292Q131 239 136 204Q142 296 192.50 337.50Q243 379 322 379Q401 379 458 323.50Q515 268 515 181.50Q515 95 456 41.50Q397-12 301-12Q189-12 120 78Q51 168 51 314.50Q51 461 121 550.50Q191 640 312 640Q396 640 449 593Q502 546 510 470L425 470M301.50 309Q301.50 309 273.25 309Q245 309 207.50 273.50Q170 238 170 183Q170 128 207 94.50Q244 61 301 61Q358 61 395.50 94Q433 127 433 185Q433 243 395.50 276Q358 309 301.50 309Z"  horiz-adv-x="573" vert-adv-y="1000"  />

      
      <glyph glyph-name="uni37" unicode="&#x37;" d="M452 629L452 556L164 0L58 0L360 553L24 553L24 629L452 629Z"  horiz-adv-x="470" vert-adv-y="1000"  />

      
      <glyph glyph-name="uni38" unicode="&#x38;" d="M201 318Q76 375 76 473Q76 548 138 594Q200 640 302.50 640Q405 640 471 591Q537 542 537 465Q537 413 502.50 372Q468 331 401 321L418 315Q487 289 524 253.50Q561 218 561 157Q561 81 493.50 35Q426-11 311.50-11Q197-11 126 40Q55 91 55 168Q55 230 95.50 269Q136 308 201 318M276 289Q213 282 175 249.50Q137 217 137 169Q137 121 185 91Q233 61 310.50 61Q388 61 433.50 87Q479 113 479 150Q479 187 455 209.50Q431 232 389 247L276 289M159 463Q159 436 181 416.50Q203 397 244 381L317 353Q377 355 416 384.50Q455 414 455 461.50Q455 509 414 538.50Q373 568 308 568Q243 568 201 539.50Q159 511 159 463Z"  horiz-adv-x="615" vert-adv-y="1000"  />

      
      <glyph glyph-name="uni39" unicode="&#x39;" d="M282 640Q333 640 379 618Q425 596 458 555Q530 467 530 326Q530 81 394 12Q347-11 292-11Q189-11 129 45Q69 101 69 186L152 186Q154 129 188 95Q222 61 274 61Q326 61 358 80Q449 137 449 337Q449 378 444 411Q434 330 385.50 290Q337 250 258.50 250Q180 250 123 305.50Q66 361 66 447Q66 534 125 587Q184 640 282 640M373.50 533.50Q373.50 533.50 354.75 550.25Q336 567 279 567Q222 567 185 534Q148 501 148 443Q148 385 185.50 352Q223 319 279.50 319Q336 319 373.50 354.50Q411 390 411 445Q411 500 373.50 533.50Z"  horiz-adv-x="581" vert-adv-y="1000"  />

      
      <glyph glyph-name="uni3a" unicode="&#x3a;" d="M114.50 23Q114.50 23 101.75 23Q89 23 72.50 39.50Q56 56 56 79.50Q56 103 72.50 119.50Q89 136 114.50 136Q140 136 157 119.50Q174 103 174 79.50Q174 56 157 39.50Q140 23 114.50 23M114.50 329Q114.50 329 101.75 329Q89 329 72.50 345.50Q56 362 56 385.50Q56 409 72.50 425.50Q89 442 114.50 442Q140 442 157 425.50Q174 409 174 385.50Q174 362 157 345.50Q140 329 114.50 329Z"  horiz-adv-x="231" vert-adv-y="1000"  />

      
      <glyph glyph-name="uni3b" unicode="&#x3b;" d="M132-5Q109-3 94 10Q79 23 79 45Q79 67 94.50 82Q110 97 138.50 97Q167 97 186 74.50Q205 52 205 18Q205-16 183-51.50Q161-87 116-109L57-80Q119-50 132-5M140.50 329Q140.50 329 127.75 329Q115 329 98.50 345.50Q82 362 82 385.50Q82 409 98.50 425.50Q115 442 140.50 442Q166 442 183 425.50Q200 409 200 385.50Q200 362 183 345.50Q166 329 140.50 329Z"  horiz-adv-x="262" vert-adv-y="1000"  />

      
      <glyph glyph-name="uni3c" unicode="&#x3c;" d="M408 512L120 305L408 101L356 40L40 271L40 340L356 572L408 512Z"  horiz-adv-x="454" vert-adv-y="1000"  />

      
      <glyph glyph-name="uni3d" unicode="&#x3d;" d="M409 185L409 117L79 117L79 185L409 185M409 377L409 308L79 308L79 377L409 377Z"  horiz-adv-x="488" vert-adv-y="1000"  />

      
      <glyph glyph-name="uni3e" unicode="&#x3e;" d="M98 572L414 340L414 271L98 40L47 101L333 305L47 512L98 572Z"  horiz-adv-x="454" vert-adv-y="1000"  />

      
      <glyph glyph-name="uni3f" unicode="&#x3f;" d="M248 568Q131 568 114 476L30 476Q37 550 91 595Q145 640 242.50 640Q340 640 396.50 592Q453 544 453 475Q453 423 427 388.50Q401 354 343 322Q318 308 301 297Q284 286 274 272Q255 247 255 200L255 161L177 161L177 206Q177 269 198 302.50Q219 336 274 366Q329 396 348 418.50Q367 441 367 479Q367 517 335.50 542.50Q304 568 248 568M217 102Q243 102 260 85Q277 68 277 44.50Q277 21 260 5Q243-11 217-11Q191-11 175 5Q159 21 159 44.50Q159 68 175 85Q191 102 217 102Z"  horiz-adv-x="499" vert-adv-y="1000"  />

      
      <glyph glyph-name="uni40" unicode="&#x40;" d="M575 289Q575 373 516 373Q457 373 410 324.50Q363 276 363 202Q363 149 390.50 120Q418 91 459 91Q500 91 526 114.50Q552 138 575 183L575 289M641 138Q641 87 680 87Q700 87 723.50 100.50Q747 114 766 140Q812 201 812 296Q812 415 731 492Q650 569 511 569Q429 569 362 541Q295 513 248 466Q148 366 148 217Q148 68 254-24.50Q360-117 545-117L545-181Q332-181 198-66Q135-12 101 62.50Q67 137 67 226Q67 315 100 391Q133 467 192 522.50Q251 578 332.50 609Q414 640 505 640Q596 640 667 613Q738 586 788 539.50Q838 493 866 430Q894 367 894 300Q894 178 829.50 103Q765 28 679 28Q636 28 610 46Q584 64 579 98L576 114Q558 76 528 52Q498 28 458 28Q384 28 336.50 77Q289 126 289 201Q289 300 355 367.50Q421 435 512 435Q572 435 606.50 399Q641 363 641 290L641 138Z"  horiz-adv-x="940" vert-adv-y="1000"  />

      
      <glyph glyph-name="uni41" unicode="&#x41;" d="M242 629L338 629L549 0L467 0L413 160L163 160L109 0L26 0L242 629M184 222L393 222L289 532L184 222Z"  horiz-adv-x="575" vert-adv-y="1000"  />

      
      <glyph glyph-name="uni42" unicode="&#x42;" d="M101 629L336 629Q435 629 488.50 582Q542 535 542 464Q542 410 512.50 370Q483 330 423 316Q482 306 517.50 265Q553 224 553 172Q553 56 440 15Q398 0 337 0L101 0L101 629M335 69Q407 69 438 98Q469 127 469 175Q469 223 435 251.50Q401 280 335 280L180 280L180 69L335 69M180 348L334 348Q392 348 426.50 376.50Q461 405 461 455Q461 505 427.50 533Q394 561 334 561L180 561L180 348Z"  horiz-adv-x="622" vert-adv-y="1000"  />

      
      <glyph glyph-name="uni43" unicode="&#x43;" d="M319 640Q420 640 481.50 589.50Q543 539 566 458L481 441Q461 500 418.50 534.50Q376 569 319 569Q240 569 188 503Q136 437 136 319.50Q136 202 182.50 131Q229 60 319 60Q394 60 437.50 99.50Q481 139 481 204L566 204Q566 105 498.50 47Q431-11 313.50-11Q196-11 123.50 79Q51 169 51 320Q51 471 126 555.50Q201 640 319 640Z"  horiz-adv-x="613" vert-adv-y="1000"  />

      
      <glyph glyph-name="uni44" unicode="&#x44;" d="M285 629Q427 629 512.50 543.50Q598 458 598 314.50Q598 171 512.50 85.50Q427 0 285 0L100 0L100 629L285 629M179 69L285 69Q390 69 452 138.50Q514 208 514 315Q514 422 451.50 490.50Q389 559 285 559L179 559L179 69Z"  horiz-adv-x="661" vert-adv-y="1000"  />

      
      <glyph glyph-name="uni45" unicode="&#x45;" d="M100 629L487 629L487 561L179 561L179 350L469 350L469 283L179 283L179 69L487 69L487 0L100 0L100 629Z"  horiz-adv-x="562" vert-adv-y="1000"  />

      
      <glyph glyph-name="uni46" unicode="&#x46;" d="M101 629L483 629L483 561L180 561L180 352L462 352L462 284L180 284L180 0L101 0L101 629Z"  horiz-adv-x="524" vert-adv-y="1000"  />

      
      <glyph glyph-name="uni47" unicode="&#x47;" d="M490 108Q448-11 327-11Q206-11 128.50 77Q51 165 51 314Q51 463 135.50 551Q220 639 346 639Q420 639 475.50 609Q531 579 571 513L495 487Q430 568 343 568Q256 568 195.50 497Q135 426 135 312.50Q135 199 187 130Q239 61 327 61Q399 61 443 109Q487 157 487 251L487 253L329 259L329 311L564 311L564 0L500 0L490 108Z"  horiz-adv-x="645" vert-adv-y="1000"  />

      
      <glyph glyph-name="uni48" unicode="&#x48;" d="M180 629L180 352L489 352L489 629L568 629L568 0L489 0L489 284L180 284L180 0L101 0L101 629L180 629Z"  horiz-adv-x="669" vert-adv-y="1000"  />

      
      <glyph glyph-name="uni49" unicode="&#x49;" d="M101 629L180 629L180 0L101 0L101 629Z"  horiz-adv-x="280" vert-adv-y="1000"  />

      
      <glyph glyph-name="uni4a" unicode="&#x4a;" d="M324 182Q324 79 277.50 34Q231-11 159-11Q87-11 8 31L8 113Q78 65 139.50 65Q201 65 223 95Q245 125 245 182L245 629L324 629L324 182Z"  horiz-adv-x="404" vert-adv-y="1000"  />

      
      <glyph glyph-name="uni4b" unicode="&#x4b;" d="M181 629L181 338L462 629L571 629L296 346L588 0L486 0L243 291L181 227L181 0L101 0L101 629L181 629Z"  horiz-adv-x="609" vert-adv-y="1000"  />

      
      <glyph glyph-name="uni4c" unicode="&#x4c;" d="M180 69L460 69L460 0L101 0L101 629L180 629L180 69Z"  horiz-adv-x="468" vert-adv-y="1000"  />

      
      <glyph glyph-name="uni4d" unicode="&#x4d;" d="M214 629L426 203L636 629L747 629L747 0L668 0L668 517L452 79L399 79L180 524L180 0L101 0L101 629L214 629Z"  horiz-adv-x="848" vert-adv-y="1000"  />

      
      <glyph glyph-name="uni4e" unicode="&#x4e;" d="M193 629L505 124L505 629L584 629L584 0L496 0L179 512L179 0L99 0L99 629L193 629Z"  horiz-adv-x="685" vert-adv-y="1000"  />

      
      <glyph glyph-name="uni4f" unicode="&#x4f;" d="M323 640Q445 640 520.50 556.50Q596 473 596 313.50Q596 154 521 71.50Q446-11 323-11Q200-11 125.50 72.50Q51 156 51 314Q51 473 125.50 556.50Q200 640 323 640M323 569Q235 569 184 503Q133 437 133 313Q133 189 184 125Q235 61 323 61Q411 61 462.50 125Q514 189 514 313Q514 437 462.50 503Q411 569 323 569Z"  horiz-adv-x="646" vert-adv-y="1000"  />

      
      <glyph glyph-name="uni50" unicode="&#x50;" d="M302 629Q406 629 460.50 576.50Q515 524 515 435Q515 346 460.50 294.50Q406 243 302 243L178 243L178 0L99 0L99 629L302 629M302 311Q367 311 400.50 344Q434 377 434 434.50Q434 492 400.50 526.50Q367 561 302 561L178 561L178 311L302 311Z"  horiz-adv-x="554" vert-adv-y="1000"  />

      
      <glyph glyph-name="uni51" unicode="&#x51;" d="M596-148Q556-167 512-167Q427-167 366-78L319-11Q198-9 124.50 74Q51 157 51 315Q51 473 125.50 556.50Q200 640 323 640Q445 640 520.50 556.50Q596 473 596 314Q596 182 543 101.50Q490 21 399-2L430-46Q459-85 499-87Q542-87 596-62L596-148M323 569Q235 569 184 503Q133 437 133 313Q133 189 184 125Q235 61 323 61Q411 61 462.50 125Q514 189 514 313Q514 437 462.50 503Q411 569 323 569Z"  horiz-adv-x="652" vert-adv-y="1000"  />

      
      <glyph glyph-name="uni52" unicode="&#x52;" d="M539 449Q539 449 539 410Q539 371 497.50 323Q456 275 375 261L555 0L453 0L290 257L180 257L180 0L101 0L101 629L320 629Q426 629 482.50 578Q539 527 539 449M314 312Q385 312 421.50 346.50Q458 381 458 437.50Q458 494 422.50 527.50Q387 561 320 561L180 561L180 312L314 312Z"  horiz-adv-x="613" vert-adv-y="1000"  />

      
      <glyph glyph-name="uni53" unicode="&#x53;" d="M436 476Q419 568 301 568Q238 568 204 540.50Q170 513 170 474.50Q170 436 191 416Q212 396 259 381L390 336Q457 313 496.50 273Q536 233 536 160.50Q536 88 474 38.50Q412-11 308-11Q204-11 137.50 41.50Q71 94 69 189L146 189Q146 127 189.50 94Q233 61 301.50 61Q370 61 410 91.50Q450 122 450 163.50Q450 205 425.50 229Q401 253 353 269L242 310Q164 336 124 372Q84 408 84 477.50Q84 547 140 593.50Q196 640 297 640Q398 640 451.50 595.50Q505 551 513 476L436 476Z"  horiz-adv-x="605" vert-adv-y="1000"  />

      
      <glyph glyph-name="uni54" unicode="&#x54;" d="M6 629L495 629L495 561L290 561L290 0L211 0L211 561L6 561L6 629Z"  horiz-adv-x="501" vert-adv-y="1000"  />

      
      <glyph glyph-name="uni55" unicode="&#x55;" d="M166 629L166 227Q166 139 210 100Q254 61 326 61Q398 61 442 100Q486 139 486 227L486 629L565 629L565 227Q565 109 500 49Q435-11 325.50-11Q216-11 151.50 49Q87 109 87 227L87 629L166 629Z"  horiz-adv-x="654" vert-adv-y="1000"  />

      
      <glyph glyph-name="uni56" unicode="&#x56;" d="M101 629L281 100L462 629L545 629L322 0L240 0L18 629L101 629Z"  horiz-adv-x="563" vert-adv-y="1000"  />

      
      <glyph glyph-name="uni57" unicode="&#x57;" d="M102 629L255 106L410 564L463 564L617 106L793 629L880 629L658 0L575 0L438 403L296 0L213 0L14 629L102 629Z"  horiz-adv-x="895" vert-adv-y="1000"  />

      
      <glyph glyph-name="uni58" unicode="&#x58;" d="M593 0L495 0L313 251L144 0L48 0L270 312L47 629L142 629L322 372L488 629L583 629L366 313L593 0Z"  horiz-adv-x="642" vert-adv-y="1000"  />

      
      <glyph glyph-name="uni59" unicode="&#x59;" d="M104 629L273 340L446 629L539 629L313 258L313 0L233 0L233 258L10 629L104 629Z"  horiz-adv-x="549" vert-adv-y="1000"  />

      
      <glyph glyph-name="uni5a" unicode="&#x5a;" d="M73 71L436 554L73 557L73 629L535 629L535 558L172 75L535 72L535 0L73 0L73 71Z"  horiz-adv-x="592" vert-adv-y="1000"  />

      
      <glyph glyph-name="uni5b" unicode="&#x5b;" d="M101 731L299 731L299 661L180 661L180-32L299-32L299-102L101-102L101 731Z"  horiz-adv-x="317" vert-adv-y="1000"  />

      
      <glyph glyph-name="uni5c" unicode="&#x5c;" d="M45 731L124 731L376-73L296-73L45 731Z"  horiz-adv-x="432" vert-adv-y="1000"  />

      
      <glyph glyph-name="uni5d" unicode="&#x5d;" d="M184-102L-14-102L-14-32L105-32L105 661L-14 661L-14 731L184 731L184-102Z"  horiz-adv-x="285" vert-adv-y="1000"  />

      
      <glyph glyph-name="uni5e" unicode="&#x5e;" d="M21 245L197 586L258 586L434 245L346 245L227 491L110 245L21 245Z"  horiz-adv-x="448" vert-adv-y="1000"  />

      
      <glyph glyph-name="uni5f" unicode="&#x5f;" d="M55-56L671-56L671-124L55-124L55-56Z"  horiz-adv-x="726" vert-adv-y="1000"  />

      
      <glyph glyph-name="uni60" unicode="&#x60;" d="M57 860L292 727L269 677L24 790L57 860Z"  horiz-adv-x="315" vert-adv-y="1000"  />

      
      <glyph glyph-name="uni61" unicode="&#x61;" d="M397 310Q397 375 370 403Q343 431 291.50 431Q240 431 208.50 410.50Q177 390 177 346L90 346Q90 456 208 482Q244 490 286 490Q375 490 425 445Q475 400 475 308L475 0L407 0L399 80Q355-11 240-11Q163-11 116.50 32Q70 75 70 139Q70 203 121.50 239Q173 275 250 275Q327 275 397 249L397 310M397 199Q326 219 273 219Q220 219 187 200Q154 181 154 140Q154 50 256 50Q314 50 355.50 91.50Q397 133 397 199Z"  horiz-adv-x="560" vert-adv-y="1000"  />

      
      <glyph glyph-name="uni62" unicode="&#x62;" d="M180 407Q228 490 320 490Q412 490 473 421.50Q534 353 534 240.50Q534 128 472 58.50Q410-11 321-11Q273-11 234.50 13Q196 37 174 84L156 0L101 0L101 681L180 681L180 407M315 420Q315 420 286.50 420Q258 420 220 383.50Q182 347 180 282L180 204Q180 138 219.50 98.50Q259 59 315 59Q371 59 412 108.50Q453 158 453 240Q453 322 412.50 371Q372 420 315 420Z"  horiz-adv-x="584" vert-adv-y="1000"  />

      
      <glyph glyph-name="uni63" unicode="&#x63;" d="M260.50 490Q260.50 490 302.75 490Q345 490 395 446.50Q445 403 460 338L380 331Q367 373 338 396.50Q309 420 274 420Q210 420 170.50 372Q131 324 131 241.50Q131 159 169.50 109Q208 59 265.50 59Q323 59 351.50 85.50Q380 112 380 161L461 161Q461 84 407.50 36.50Q354-11 268-11Q177-11 113.50 58Q50 127 50 241.50Q50 356 113 423Q176 490 260.50 490Z"  horiz-adv-x="515" vert-adv-y="1000"  />

      
      <glyph glyph-name="uni64" unicode="&#x64;" d="M414 407L414 681L492 681L492 0L428 0L418 80Q395 35 357 12Q319-11 274-11Q183-11 121.50 59Q60 129 60 241.50Q60 354 120.50 422Q181 490 273.50 490Q366 490 414 407M278 420Q278 420 249 420Q220 420 180.50 371Q141 322 141 240Q141 158 181 108.50Q221 59 277 59Q333 59 372.50 96.50Q412 134 414 197L414 275Q414 342 375 381Q336 420 278 420Z"  horiz-adv-x="594" vert-adv-y="1000"  />

      
      <glyph glyph-name="uni65" unicode="&#x65;" d="M266 53Q365 53 379 140L460 140Q449 68 396.50 28.50Q344-11 266-11Q170-11 110 57.50Q50 126 50 240Q50 354 110.50 422Q171 490 271.50 490Q372 490 421.50 412Q471 334 456 222L129 222Q129 148 165 100.50Q201 53 266 53M324 415Q301 427 268 427Q207 427 171.50 385.50Q136 344 130 282L385 282Q385 382 324 415Z"  horiz-adv-x="515" vert-adv-y="1000"  />

      
      <glyph glyph-name="uni66" unicode="&#x66;" d="M333 614Q300 627 281 627Q246 627 226 610Q206 593 206 550L206 478L305 478L305 424L206 424L206 0L128 0L128 424L49 424L49 478L128 478L128 551Q128 622 167 655.50Q206 689 257 689Q308 689 347 676L333 614Z"  horiz-adv-x="343" vert-adv-y="1000"  />

      
      <glyph glyph-name="uni67" unicode="&#x67;" d="M121 15Q61 44 61 104Q61 135 84.50 158.50Q108 182 143 190Q89 238 89 316Q89 394 144.50 442Q200 490 276 490Q352 490 405 454Q412 507 447.50 539Q483 571 541 571L534 493Q446 493 442 419Q477 376 477 316Q477 239 421.50 189.50Q366 140 283 140Q226 140 182 163Q162 159 146 144.50Q130 130 130 105Q130 52 218 52L404 52Q471 52 510 23.50Q549-5 549-56Q549-132 472.50-189Q396-246 279-246Q162-246 95-202.50Q28-159 28-93Q28-50 53.50-23Q79 4 121 15M106-90Q106-128 147.50-155.50Q189-183 273.50-183Q358-183 414.50-146.50Q471-110 471-61Q471-38 454.50-21.50Q438-5 404-5L211-5Q160-7 133-29.50Q106-52 106-90M400 316.50Q400 316.50 400 342.25Q400 368 369 400.50Q338 433 283.50 433Q229 433 198 400.50Q167 368 167 316Q167 264 198.50 230.50Q230 197 284 197Q338 197 369 231Q400 265 400 316.50Z"  horiz-adv-x="565" vert-adv-y="1000"  />

      
      <glyph glyph-name="uni68" unicode="&#x68;" d="M180 390Q228 490 339 490Q424 490 471.50 434Q519 378 519 281L519 0L441 0L441 281Q441 350 408.50 385Q376 420 315 420Q254 420 217 368.50Q180 317 180 226L180 0L101 0L101 681L180 681L180 390Z"  horiz-adv-x="604" vert-adv-y="1000"  />

      
      <glyph glyph-name="uni69" unicode="&#x69;" d="M106 479L185 479L185 0L106 0L106 479M145 591Q145 591 133 591Q121 591 107.50 604.50Q94 618 94 640.50Q94 663 107.50 676.50Q121 690 145 690Q169 690 183.50 676.50Q198 663 198 640.50Q198 618 183.50 604.50Q169 591 145 591Z"  horiz-adv-x="299" vert-adv-y="1000"  />

      
      <glyph glyph-name="uni6a" unicode="&#x6a;" d="M160 591Q136 591 122.50 604.50Q109 618 109 640.50Q109 663 122.50 676.50Q136 690 160 690Q184 690 198.50 676.50Q213 663 213 640.50Q213 618 198.50 604.50Q184 591 160 591M33-177Q121-177 121-67L121 480L200 480L200-67Q200-204 110-236Q82-246 48-246Q-14-246-86-209L-82-140Q-19-177 33-177Z"  horiz-adv-x="314" vert-adv-y="1000"  />

      
      <glyph glyph-name="uni6b" unicode="&#x6b;" d="M244 253L180 201L180 0L101 0L101 681L180 681L180 285L411 478L521 478L301 299L532 0L435 0L244 253Z"  horiz-adv-x="564" vert-adv-y="1000"  />

      
      <glyph glyph-name="uni6c" unicode="&#x6c;" d="M101 681L180 681L180 0L101 0L101 681Z"  horiz-adv-x="280" vert-adv-y="1000"  />

      
      <glyph glyph-name="uni6d" unicode="&#x6d;" d="M177 386Q224 490 338 490Q400 490 442 459.50Q484 429 503 375Q548 490 670 490Q756 490 803 434Q850 378 850 281L850 0L772 0L772 281Q772 350 739.50 385Q707 420 646 420Q585 420 551.50 370Q518 320 518 232L518 0L440 0L440 281Q440 350 407.50 385Q375 420 315 420Q255 420 218 371Q181 322 179 235L179 0L100 0L100 478L168 478L177 386Z"  horiz-adv-x="935" vert-adv-y="1000"  />

      
      <glyph glyph-name="uni6e" unicode="&#x6e;" d="M177 386Q224 490 338 490Q423 490 470.50 434Q518 378 518 281L518 0L440 0L440 281Q440 350 407.50 385Q375 420 315 420Q255 420 218 371Q181 322 179 235L179 0L100 0L100 478L168 478L177 386Z"  horiz-adv-x="603" vert-adv-y="1000"  />

      
      <glyph glyph-name="uni6f" unicode="&#x6f;" d="M273 490Q373 490 434.50 425Q496 360 496 239Q496 119 434.50 54Q373-11 273-11Q173-11 111.50 54Q50 119 50 239Q50 360 111.50 425Q173 490 273 490M416 239.50Q416 239.50 416 282.25Q416 325 380 373.50Q344 422 274.50 422Q205 422 168 373.50Q131 325 131 239.50Q131 154 166 105.50Q201 57 270.50 57Q340 57 378 105.50Q416 154 416 239.50Z"  horiz-adv-x="546" vert-adv-y="1000"  />

      
      <glyph glyph-name="uni70" unicode="&#x70;" d="M175 405Q222 490 315.50 490Q409 490 471.50 421Q534 352 534 239Q534 126 471 57.50Q408-11 316-11Q224-11 180 58L180-235L101-235L101 478L166 478L175 405M312 59Q312 59 340 59Q368 59 410.50 107Q453 155 453 238.50Q453 322 412.50 371Q372 420 314 420Q256 420 219 383.50Q182 347 180 285L180 194Q180 131 218 95Q256 59 312 59Z"  horiz-adv-x="594" vert-adv-y="1000"  />

      
      <glyph glyph-name="uni71" unicode="&#x71;" d="M264 490Q366 490 412 400L429 478L483 478L483-81Q483-130 494.50-146.50Q506-163 520.50-170.50Q535-178 556-185L530-246Q462-228 433.50-189Q405-150 405-76L405 76Q364-11 270.50-11Q177-11 114 57.50Q51 126 51 239Q51 352 113.50 421Q176 490 264 490M271 420Q271 420 242 420Q213 420 172.50 371Q132 322 132 238.50Q132 155 175 107Q218 59 275 59Q357 59 392 132Q404 155 405 187L405 278Q405 344 367 382Q329 420 271 420Z"  horiz-adv-x="585" vert-adv-y="1000"  />

      
      <glyph glyph-name="uni72" unicode="&#x72;" d="M296 411Q183 411 179 233L179 0L100 0L100 479L179 479L179 387Q215 487 306 487Q335 487 361 478L357 401Q327 411 296 411Z"  horiz-adv-x="381" vert-adv-y="1000"  />

      
      <glyph glyph-name="uni73" unicode="&#x73;" d="M76 361Q76 420 126.50 455Q177 490 263 490Q349 490 397.50 454Q446 418 448 363L371 363Q362 428 261 428Q212 428 185.50 406Q159 384 159 358.50Q159 333 179 315.50Q199 298 243 285L339 253Q400 234 432.50 204.50Q465 175 465 123.50Q465 72 412 30.50Q359-11 264-11Q169-11 116 31.50Q63 74 60 141L136 141Q138 96 172.50 73.50Q207 51 259 51Q311 51 345 73Q379 95 379 125.50Q379 156 359 172Q339 188 294 200L201 231Q76 268 76 361Z"  horiz-adv-x="526" vert-adv-y="1000"  />

      
      <glyph glyph-name="uni74" unicode="&#x74;" d="M351 14Q265-26 194-3Q143 13 122 64Q111 89 111 124L111 418L34 418L34 478L111 478L111 611L189 611L189 478L339 478L339 418L189 418L189 125Q189 52 257 52Q294 52 340 70L351 14Z"  horiz-adv-x="376" vert-adv-y="1000"  />

      
      <glyph glyph-name="uni75" unicode="&#x75;" d="M426 95Q377-9 267-9Q186-9 136.50 36Q87 81 87 175L87 479L166 479L166 181Q166 60 278 60Q343 60 383.50 110Q424 160 426 238L426 479L505 479L505 0L426 0L426 95Z"  horiz-adv-x="606" vert-adv-y="1000"  />

      
      <glyph glyph-name="uni76" unicode="&#x76;" d="M107 478L251 83L396 478L485 478L295 0L208 0L18 478L107 478Z"  horiz-adv-x="503" vert-adv-y="1000"  />

      
      <glyph glyph-name="uni77" unicode="&#x77;" d="M100 478L216 97L330 455L396 455L509 93L626 478L704 478L548 0L471 0L361 335L253 0L177 0L18 478L100 478Z"  horiz-adv-x="725" vert-adv-y="1000"  />

      
      <glyph glyph-name="uni78" unicode="&#x78;" d="M485 0L389 0L252 181L122 0L26 0L207 239L26 479L122 479L259 299L390 479L486 479L303 239L485 0Z"  horiz-adv-x="512" vert-adv-y="1000"  />

      
      <glyph glyph-name="uni79" unicode="&#x79;" d="M5-139Q54-177 108-177Q148-177 177-137Q198-108 215-49L229 0L33 478L121 478L266 97L379 478L459 478L280-95Q257-168 219.50-207Q182-246 124.50-246Q67-246 5-211L5-139Z"  horiz-adv-x="484" vert-adv-y="1000"  />

      
      <glyph glyph-name="uni7a" unicode="&#x7a;" d="M53 64L334 414L53 414L53 478L423 478L423 414L146 64L423 64L423 0L53 0L53 64Z"  horiz-adv-x="475" vert-adv-y="1000"  />

      
      <glyph glyph-name="uni7b" unicode="&#x7b;" d="M154 303Q206 278 206 190L206 97Q206 16 236.50-26.50Q267-69 341-69L341-138Q128-138 128 96L128 188Q128 231 119.50 249Q111 267 92 267L75 267L75 343L92 343Q111 343 119.50 360.50Q128 378 128 422L128 513Q128 681 242 730Q282 748 341 748L341 679Q267 679 236.50 636.50Q206 594 206 512L206 420Q206 334 154 307L154 303Z"  horiz-adv-x="349" vert-adv-y="1000"  />

      
      <glyph glyph-name="uni7c" unicode="&#x7c;" d="M101 750L180 750L180-122L101-122L101 750Z"  horiz-adv-x="280" vert-adv-y="1000"  />

      
      <glyph glyph-name="uni7d" unicode="&#x7d;" d="M195 307Q143 334 143 420L143 512Q143 594 112.50 636.50Q82 679 8 679L8 748Q221 748 221 513L221 422Q221 378 229.50 360.50Q238 343 257 343L274 343L274 267L257 267Q238 267 229.50 249Q221 231 221 188L221 96Q221-72 107-120Q66-138 8-138L8-69Q82-69 112.50-26.50Q143 16 143 97L143 190Q143 278 195 303L195 307Z"  horiz-adv-x="349" vert-adv-y="1000"  />

      
      <glyph glyph-name="uni7e" unicode="&#x7e;" d="M158 282Q121 282 97 223L53 246Q86 357 160 357Q194 357 261 329.50Q328 302 354 302Q394 302 419 359L462 332Q427 226 349 226Q326 226 278 244Q230 262 216 268Q177 282 158 282Z"  horiz-adv-x="515" vert-adv-y="1000"  />

      
      <glyph glyph-name="unia3" unicode="&#xa3;" d="M400 490Q384 568 298 568Q256 568 227.50 536Q199 504 199 432L199 323L381 323L381 267L199 267L199 163Q199 95 162 69L345 69Q394 69 416.50 89.50Q439 110 445 154L529 154Q523 77 481 38.50Q439 0 345 0L20 0L20 69L48 69Q86 69 103.50 91Q121 113 121 159L121 267L30 267L30 323L121 323L121 432Q121 531 167.50 585.50Q214 640 305 640Q376 640 421 602Q466 564 477 490L400 490Z"  horiz-adv-x="565" vert-adv-y="1000"  />

      
      <glyph glyph-name="unia8" unicode="&#xa8;" d="M76 779Q53 779 38.50 793.50Q24 808 24 829Q24 850 38.50 864.50Q53 879 76 879Q99 879 114.50 864.50Q130 850 130 829Q130 808 114.50 793.50Q99 779 76 779M244.50 779Q244.50 779 233.25 779Q222 779 207 793.50Q192 808 192 829Q192 850 207 864.50Q222 879 244.50 879Q267 879 282.50 864.50Q298 850 298 829Q298 808 282.50 793.50Q267 779 244.50 779Z"  horiz-adv-x="323" vert-adv-y="1000"  />

      
      <glyph glyph-name="unib4" unicode="&#xb4;" d="M290 790L46 677L23 727L258 860L290 790Z"  horiz-adv-x="315" vert-adv-y="1000"  />

      
      <glyph glyph-name="unic0" unicode="&#xc0;" d="M242 629L338 629L549 0L467 0L413 160L163 160L109 0L26 0L242 629M184 222L393 222L289 532L184 222M190 860L425 727L402 677L157 790L190 860Z"  horiz-adv-x="575" vert-adv-y="1000"  />

      
      <glyph glyph-name="unic1" unicode="&#xc1;" d="M242 629L338 629L549 0L467 0L413 160L163 160L109 0L26 0L242 629M184 222L393 222L289 532L184 222M423 790L179 677L156 727L391 860L423 790Z"  horiz-adv-x="575" vert-adv-y="1000"  />

      
      <glyph glyph-name="unic2" unicode="&#xc2;" d="M242 629L338 629L549 0L467 0L413 160L163 160L109 0L26 0L242 629M184 222L393 222L289 532L184 222M469 716L419 677L290 785L160 677L110 716L290 872L469 716Z"  horiz-adv-x="575" vert-adv-y="1000"  />

      
      <glyph glyph-name="unic3" unicode="&#xc3;" d="M242 629L338 629L549 0L467 0L413 160L163 160L109 0L26 0L242 629M184 222L393 222L289 532L184 222M221 770Q189 770 164 719L132 738Q144 789 167 815.50Q190 842 216 842Q242 842 276 825Q322 802 335.50 796Q349 790 362 790Q375 790 389 802.50Q403 815 413 842L448 819Q437 771 412.50 745Q388 719 367.50 719Q347 719 330 725Q313 731 283 746.50Q253 762 242.50 766Q232 770 221 770Z"  horiz-adv-x="575" vert-adv-y="1000"  />

      
      <glyph glyph-name="unic4" unicode="&#xc4;" d="M242 629L338 629L549 0L467 0L413 160L163 160L109 0L26 0L242 629M184 222L393 222L289 532L184 222M226 735Q203 735 188.50 749.50Q174 764 174 785Q174 806 188.50 820.50Q203 835 226 835Q249 835 264.50 820.50Q280 806 280 785Q280 764 264.50 749.50Q249 735 226 735M394.50 735Q394.50 735 383.25 735Q372 735 357 749.50Q342 764 342 785Q342 806 357 820.50Q372 835 394.50 835Q417 835 432.50 820.50Q448 806 448 785Q448 764 432.50 749.50Q417 735 394.50 735Z"  horiz-adv-x="575" vert-adv-y="1000"  />

      
      <glyph glyph-name="unic8" unicode="&#xc8;" d="M100 629L487 629L487 561L179 561L179 350L469 350L469 283L179 283L179 69L487 69L487 0L100 0L100 629M194 860L429 727L406 677L161 790L194 860Z"  horiz-adv-x="564" vert-adv-y="1000"  />

      
      <glyph glyph-name="unic9" unicode="&#xc9;" d="M100 0L487 0L487 69L179 69L179 283L469 283L469 350L179 350L179 561L487 561L487 629L100 629L100 0M427 790L183 677L160 727L395 860L427 790Z"  horiz-adv-x="564" vert-adv-y="1000"  />

      
      <glyph glyph-name="unica" unicode="&#xca;" d="M105 629L492 629L492 561L184 561L184 350L474 350L474 283L184 283L184 69L492 69L492 0L105 0L105 629M479 716L429 677L300 785L170 677L120 716L300 872L479 716Z"  horiz-adv-x="564" vert-adv-y="1000"  />

      
      <glyph glyph-name="unicb" unicode="&#xcb;" d="M100 629L487 629L487 561L179 561L179 350L469 350L469 283L179 283L179 69L487 69L487 0L100 0L100 629M210 735Q187 735 172.50 749.50Q158 764 158 785Q158 806 172.50 820.50Q187 835 210 835Q233 835 248.50 820.50Q264 806 264 785Q264 764 248.50 749.50Q233 735 210 735M378.50 735Q378.50 735 367.25 735Q356 735 341 749.50Q326 764 326 785Q326 806 341 820.50Q356 835 378.50 835Q401 835 416.50 820.50Q432 806 432 785Q432 764 416.50 749.50Q401 735 378.50 735Z"  horiz-adv-x="564" vert-adv-y="1000"  />

      
      <glyph glyph-name="unicc" unicode="&#xcc;" d="M101 629L180 629L180 0L101 0L101 629M40 860L275 727L252 677L7 790L40 860Z"  horiz-adv-x="280" vert-adv-y="1000"  />

      
      <glyph glyph-name="unicd" unicode="&#xcd;" d="M101 0L180 0L180 629L101 629L101 0M273 790L29 677L6 727L241 860L273 790Z"  horiz-adv-x="280" vert-adv-y="1000"  />

      
      <glyph glyph-name="unice" unicode="&#xce;" d="M101 629L180 629L180 0L101 0L101 629M320 716L270 677L141 785L11 677L-39 716L141 872L320 716Z"  horiz-adv-x="280" vert-adv-y="1000"  />

      
      <glyph glyph-name="unicf" unicode="&#xcf;" d="M101 629L180 629L180 0L101 0L101 629M56 735Q33 735 18.50 749.50Q4 764 4 785Q4 806 18.50 820.50Q33 835 56 835Q79 835 94.50 820.50Q110 806 110 785Q110 764 94.50 749.50Q79 735 56 735M224.50 735Q224.50 735 213.25 735Q202 735 187 749.50Q172 764 172 785Q172 806 187 820.50Q202 835 224.50 835Q247 835 262.50 820.50Q278 806 278 785Q278 764 262.50 749.50Q247 735 224.50 735Z"  horiz-adv-x="280" vert-adv-y="1000"  />

      
      <glyph glyph-name="unid1" unicode="&#xd1;" d="M99 629L99 0L179 0L179 512L496 0L584 0L584 629L505 629L505 124L193 629L99 629M274 770Q242 770 217 719L185 738Q197 789 220 815.50Q243 842 269 842Q295 842 328 825Q375 802 388.50 796Q402 790 415 790Q428 790 442 802.50Q456 815 466 842L501 819Q490 771 465.50 745Q441 719 420.50 719Q400 719 383 725Q366 731 336 746.50Q306 762 295.50 766Q285 770 274 770Z"  horiz-adv-x="686" vert-adv-y="1000"  />

      
      <glyph glyph-name="unid2" unicode="&#xd2;" d="M323 640Q445 640 520.50 556.50Q596 473 596 313.50Q596 154 521 71.50Q446-11 323-11Q200-11 125.50 72.50Q51 156 51 314Q51 473 125.50 556.50Q200 640 323 640M323 569Q235 569 184 503Q133 437 133 313Q133 189 184 125Q235 61 323 61Q411 61 462.50 125Q514 189 514 313Q514 437 462.50 503Q411 569 323 569M223 860L458 727L435 677L190 790L223 860Z"  horiz-adv-x="646" vert-adv-y="1000"  />

      
      <glyph glyph-name="unid3" unicode="&#xd3;" d="M323 640Q200 640 125.50 556.50Q51 473 51 314Q51 156 125.50 72.50Q200-11 323-11Q446-11 521 71.50Q596 154 596 313.50Q596 473 520.50 556.50Q445 640 323 640M323 569Q411 569 462.50 503Q514 437 514 313Q514 189 462.50 125Q411 61 323 61Q235 61 184 125Q133 189 133 313Q133 437 184 503Q235 569 323 569M456 790L212 677L189 727L424 860L456 790Z"  horiz-adv-x="646" vert-adv-y="1000"  />

      
      <glyph glyph-name="unid4" unicode="&#xd4;" d="M323 640Q445 640 520.50 556.50Q596 473 596 313.50Q596 154 521 71.50Q446-11 323-11Q200-11 125.50 72.50Q51 156 51 314Q51 473 125.50 556.50Q200 640 323 640M323 569Q235 569 184 503Q133 437 133 313Q133 189 184 125Q235 61 323 61Q411 61 462.50 125Q514 189 514 313Q514 437 462.50 503Q411 569 323 569M502 716L452 677L323 785L193 677L143 716L323 872L502 716Z"  horiz-adv-x="646" vert-adv-y="1000"  />

      
      <glyph glyph-name="unid5" unicode="&#xd5;" d="M323 640Q200 640 125.50 556.50Q51 473 51 314Q51 156 125.50 72.50Q200-11 323-11Q446-11 521 71.50Q596 154 596 313.50Q596 473 520.50 556.50Q445 640 323 640M323 569Q411 569 462.50 503Q514 437 514 313Q514 189 462.50 125Q411 61 323 61Q235 61 184 125Q133 189 133 313Q133 437 184 503Q235 569 323 569M254 770Q222 770 197 719L165 738Q177 789 200 815.50Q223 842 249 842Q275 842 308 825Q355 802 368.50 796Q382 790 395 790Q408 790 422 802.50Q436 815 446 842L481 819Q470 771 445.50 745Q421 719 400.50 719Q380 719 363 725Q346 731 316 746.50Q286 762 275.50 766Q265 770 254 770Z"  horiz-adv-x="646" vert-adv-y="1000"  />

      
      <glyph glyph-name="unid6" unicode="&#xd6;" d="M323 640Q445 640 520.50 556.50Q596 473 596 313.50Q596 154 521 71.50Q446-11 323-11Q200-11 125.50 72.50Q51 156 51 314Q51 473 125.50 556.50Q200 640 323 640M323 569Q235 569 184 503Q133 437 133 313Q133 189 184 125Q235 61 323 61Q411 61 462.50 125Q514 189 514 313Q514 437 462.50 503Q411 569 323 569M238 735Q215 735 200.50 749.50Q186 764 186 785Q186 806 200.50 820.50Q215 835 238 835Q261 835 276.50 820.50Q292 806 292 785Q292 764 276.50 749.50Q261 735 238 735M406.50 735Q406.50 735 395.25 735Q384 735 369 749.50Q354 764 354 785Q354 806 369 820.50Q384 835 406.50 835Q429 835 444.50 820.50Q460 806 460 785Q460 764 444.50 749.50Q429 735 406.50 735Z"  horiz-adv-x="646" vert-adv-y="1000"  />

      
      <glyph glyph-name="unid9" unicode="&#xd9;" d="M166 629L166 227Q166 139 210 100Q254 61 326 61Q398 61 442 100Q486 139 486 227L486 629L565 629L565 227Q565 109 500 49Q435-11 325.50-11Q216-11 151.50 49Q87 109 87 227L87 629L166 629M226 860L461 727L438 677L193 790L226 860Z"  horiz-adv-x="654" vert-adv-y="1000"  />

      
      <glyph glyph-name="unida" unicode="&#xda;" d="M87 629L87 227Q87 109 151.50 49Q216-11 325.50-11Q435-11 500 49Q565 109 565 227L565 629L486 629L486 227Q486 139 442 100Q398 61 326 61Q254 61 210 100Q166 139 166 227L166 629L87 629M459 790L215 677L192 727L427 860L459 790Z"  horiz-adv-x="654" vert-adv-y="1000"  />

      
      <glyph glyph-name="unidb" unicode="&#xdb;" d="M166 629L166 227Q166 139 210 100Q254 61 326 61Q398 61 442 100Q486 139 486 227L486 629L565 629L565 227Q565 109 500 49Q435-11 325.50-11Q216-11 151.50 49Q87 109 87 227L87 629L166 629M505 716L455 677L326 785L196 677L146 716L326 872L505 716Z"  horiz-adv-x="654" vert-adv-y="1000"  />

      
      <glyph glyph-name="unidc" unicode="&#xdc;" d="M166 629L166 227Q166 139 210 100Q254 61 326 61Q398 61 442 100Q486 139 486 227L486 629L565 629L565 227Q565 109 500 49Q435-11 325.50-11Q216-11 151.50 49Q87 109 87 227L87 629L166 629M241 735Q218 735 203.50 749.50Q189 764 189 785Q189 806 203.50 820.50Q218 835 241 835Q264 835 279.50 820.50Q295 806 295 785Q295 764 279.50 749.50Q264 735 241 735M409.50 735Q409.50 735 398.25 735Q387 735 372 749.50Q357 764 357 785Q357 806 372 820.50Q387 835 409.50 835Q432 835 447.50 820.50Q463 806 463 785Q463 764 447.50 749.50Q432 735 409.50 735Z"  horiz-adv-x="654" vert-adv-y="1000"  />

      
      <glyph glyph-name="unie0" unicode="&#xe0;" d="M387 310Q387 375 360 403Q333 431 281.50 431Q230 431 198.50 410.50Q167 390 167 346L80 346Q80 456 198 482Q234 490 276 490Q365 490 415 445Q465 400 465 308L465 0L397 0L389 80Q345-11 230-11Q153-11 106.50 32Q60 75 60 139Q60 203 111.50 239Q163 275 240 275Q317 275 387 249L387 310M387 199Q316 219 263 219Q210 219 177 200Q144 181 144 140Q144 50 246 50Q304 50 345.50 91.50Q387 133 387 199M182 731L417 598L394 548L149 661L182 731Z"  horiz-adv-x="551" vert-adv-y="1000"  />

      
      <glyph glyph-name="unie1" unicode="&#xe1;" d="M387 310Q387 375 360 403Q333 431 281.50 431Q230 431 198.50 410.50Q167 390 167 346L80 346Q80 456 198 482Q234 490 276 490Q365 490 415 445Q465 400 465 308L465 0L397 0L389 80Q345-11 230-11Q153-11 106.50 32Q60 75 60 139Q60 203 111.50 239Q163 275 240 275Q317 275 387 249L387 310M387 199Q316 219 263 219Q210 219 177 200Q144 181 144 140Q144 50 246 50Q303 50 344 90Q385 130 387 193L387 199M415 661L171 548L148 598L383 731L415 661Z"  horiz-adv-x="551" vert-adv-y="1000"  />

      
      <glyph glyph-name="unie2" unicode="&#xe2;" d="M387 310Q387 375 360 403Q333 431 281.50 431Q230 431 198.50 410.50Q167 390 167 346L80 346Q80 456 198 482Q234 490 276 490Q365 490 415 445Q465 400 465 308L465 0L397 0L389 80Q345-11 230-11Q153-11 106.50 32Q60 75 60 139Q60 203 111.50 239Q163 275 240 275Q317 275 387 249L387 310M387 199Q316 219 263 219Q210 219 177 200Q144 181 144 140Q144 50 246 50Q304 50 345.50 91.50Q387 133 387 199M461 587L411 548L282 656L152 548L102 587L282 743L461 587Z"  horiz-adv-x="551" vert-adv-y="1000"  />

      
      <glyph glyph-name="unie3" unicode="&#xe3;" d="M387 310Q387 375 360 403Q333 431 281.50 431Q230 431 198.50 410.50Q167 390 167 346L80 346Q80 456 198 482Q234 490 276 490Q365 490 415 445Q465 400 465 308L465 0L397 0L389 80Q345-11 230-11Q153-11 106.50 32Q60 75 60 139Q60 203 111.50 239Q163 275 240 275Q317 275 387 249L387 310M387 199Q316 219 263 219Q210 219 177 200Q144 181 144 140Q144 50 246 50Q303 50 344 90Q385 130 387 193L387 199M213 641Q181 641 156 590L124 609Q136 660 159 686.50Q182 713 208 713Q234 713 268 696Q314 673 327.50 667Q341 661 354 661Q367 661 381 673.50Q395 686 405 713L440 690Q429 642 404.50 616Q380 590 359.50 590Q339 590 322 596Q305 602 275 617.50Q245 633 234.50 637Q224 641 213 641Z"  horiz-adv-x="551" vert-adv-y="1000"  />

      
      <glyph glyph-name="unie4" unicode="&#xe4;" d="M387 310Q387 375 360 403Q333 431 281.50 431Q230 431 198.50 410.50Q167 390 167 346L80 346Q80 456 198 482Q234 490 276 490Q365 490 415 445Q465 400 465 308L465 0L397 0L389 80Q345-11 230-11Q153-11 106.50 32Q60 75 60 139Q60 203 111.50 239Q163 275 240 275Q317 275 387 249L387 310M387 199Q316 219 263 219Q210 219 177 200Q144 181 144 140Q144 50 246 50Q304 50 345.50 91.50Q387 133 387 199M197 605Q174 605 159.50 619.50Q145 634 145 655Q145 676 159.50 690.50Q174 705 197 705Q220 705 235.50 690.50Q251 676 251 655Q251 634 235.50 619.50Q220 605 197 605M365.50 605Q365.50 605 354.25 605Q343 605 328 619.50Q313 634 313 655Q313 676 328 690.50Q343 705 365.50 705Q388 705 403.50 690.50Q419 676 419 655Q419 634 403.50 619.50Q388 605 365.50 605Z"  horiz-adv-x="551" vert-adv-y="1000"  />

      
      <glyph glyph-name="unie8" unicode="&#xe8;" d="M267 53Q366 53 380 140L461 140Q450 68 397.50 28.50Q345-11 267-11Q171-11 111 57.50Q51 126 51 240Q51 354 111.50 422Q172 490 272.50 490Q373 490 422.50 412Q472 334 457 222L130 222Q130 148 166 100.50Q202 53 267 53M324 415Q302 427 270 427Q208 427 172.50 385.50Q137 344 131 282L386 282Q386 382 324 415M159 736L394 603L371 553L126 666L159 736Z"  horiz-adv-x="514" vert-adv-y="1000"  />

      
      <glyph glyph-name="unie9" unicode="&#xe9;" d="M380 140Q366 53 267 53Q202 53 166 100.50Q130 148 130 222L457 222Q472 334 422.50 412Q373 490 272.50 490Q172 490 111.50 422Q51 354 51 240Q51 126 111 57.50Q171-11 267-11Q345-11 397.50 28.50Q450 68 461 140L380 140M269.50 427Q269.50 427 300.25 427Q331 427 358.50 385.50Q386 344 386 282L131 282Q137 344 172.50 385.50Q208 427 269.50 427M392 666L148 553L125 603L360 736L392 666Z"  horiz-adv-x="514" vert-adv-y="1000"  />

      
      <glyph glyph-name="uniea" unicode="&#xea;" d="M270 53Q369 53 383 140L464 140Q453 68 400.50 28.50Q348-11 270-11Q174-11 114 57.50Q54 126 54 240Q54 354 114.50 422Q175 490 275.50 490Q376 490 425.50 412Q475 334 460 222L133 222Q133 148 169 100.50Q205 53 270 53M328 415Q305 427 272 427Q211 427 175.50 385.50Q140 344 134 282L389 282Q389 382 328 415M442 592L392 553L263 661L133 553L83 592L263 748L442 592Z"  horiz-adv-x="514" vert-adv-y="1000"  />

      
      <glyph glyph-name="unieb" unicode="&#xeb;" d="M267 53Q366 53 380 140L461 140Q450 68 397.50 28.50Q345-11 267-11Q171-11 111 57.50Q51 126 51 240Q51 354 111.50 422Q172 490 272.50 490Q373 490 422.50 412Q472 334 457 222L130 222Q130 148 166 100.50Q202 53 267 53M324 415Q302 427 270 427Q208 427 172.50 385.50Q137 344 131 282L386 282Q386 382 324 415M175 605Q152 605 137.50 619.50Q123 634 123 655Q123 676 137.50 690.50Q152 705 175 705Q198 705 213.50 690.50Q229 676 229 655Q229 634 213.50 619.50Q198 605 175 605M343.50 605Q343.50 605 332.25 605Q321 605 306 619.50Q291 634 291 655Q291 676 306 690.50Q321 705 343.50 705Q366 705 381.50 690.50Q397 676 397 655Q397 634 381.50 619.50Q366 605 343.50 605Z"  horiz-adv-x="514" vert-adv-y="1000"  />

      
      <glyph glyph-name="uniec" unicode="&#xec;" d="M106 479L185 479L185 0L106 0L106 479M45 731L280 598L257 548L12 661L45 731Z"  horiz-adv-x="299" vert-adv-y="1000"  />

      
      <glyph glyph-name="unied" unicode="&#xed;" d="M106 0L185 0L185 479L106 479L106 0M278 661L34 548L11 598L246 731L278 661Z"  horiz-adv-x="299" vert-adv-y="1000"  />

      
      <glyph glyph-name="uniee" unicode="&#xee;" d="M106 479L185 479L185 0L106 0L106 479M325 587L275 548L146 656L16 548L-34 587L146 743L325 587Z"  horiz-adv-x="299" vert-adv-y="1000"  />

      
      <glyph glyph-name="unief" unicode="&#xef;" d="M106 479L185 479L185 0L106 0L106 479M61 605Q38 605 23.50 619.50Q9 634 9 655Q9 676 23.50 690.50Q38 705 61 705Q84 705 99.50 690.50Q115 676 115 655Q115 634 99.50 619.50Q84 605 61 605M229.50 605Q229.50 605 218.25 605Q207 605 192 619.50Q177 634 177 655Q177 676 192 690.50Q207 705 229.50 705Q252 705 267.50 690.50Q283 676 283 655Q283 634 267.50 619.50Q252 605 229.50 605Z"  horiz-adv-x="299" vert-adv-y="1000"  />

      
      <glyph glyph-name="unif1" unicode="&#xf1;" d="M339 490Q225 490 178 386L169 478L101 478L101 0L180 0L180 235Q182 322 219 371Q256 420 316 420Q376 420 408.50 385Q441 350 441 281L441 0L519 0L519 281Q519 378 471.50 434Q424 490 339 490M237 641Q205 641 180 590L148 609Q160 660 183 686.50Q206 713 232 713Q258 713 292 696Q338 673 351.50 667Q365 661 378 661Q391 661 405 673.50Q419 686 429 713L464 690Q453 642 428.50 616Q404 590 383.50 590Q363 590 346 596Q329 602 299 617.50Q269 633 258.50 637Q248 641 237 641Z"  horiz-adv-x="604" vert-adv-y="1000"  />

      
      <glyph glyph-name="unif2" unicode="&#xf2;" d="M274 490Q374 490 435.50 425Q497 360 497 239Q497 119 435.50 54Q374-11 274-11Q174-11 112.50 54Q51 119 51 239Q51 360 112.50 425Q174 490 274 490M417 239.50Q417 239.50 417 282.25Q417 325 381 373.50Q345 422 275.50 422Q206 422 169 373.50Q132 325 132 239.50Q132 154 167 105.50Q202 57 271.50 57Q341 57 379 105.50Q417 154 417 239.50M174 731L409 598L386 548L141 661L174 731Z"  horiz-adv-x="547" vert-adv-y="1000"  />

      
      <glyph glyph-name="unif3" unicode="&#xf3;" d="M274 490Q174 490 112.50 425Q51 360 51 239Q51 119 112.50 54Q174-11 274-11Q374-11 435.50 54Q497 119 497 239Q497 360 435.50 425Q374 490 274 490M132 239.50Q132 239.50 132 282.25Q132 325 169 373.50Q206 422 275.50 422Q345 422 381 373.50Q417 325 417 239.50Q417 154 379 105.50Q341 57 271.50 57Q202 57 167 105.50Q132 154 132 239.50M407 661L163 548L140 598L375 731L407 661Z"  horiz-adv-x="547" vert-adv-y="1000"  />

      
      <glyph glyph-name="unif4" unicode="&#xf4;" d="M274 490Q374 490 435.50 425Q497 360 497 239Q497 119 435.50 54Q374-11 274-11Q174-11 112.50 54Q51 119 51 239Q51 360 112.50 425Q174 490 274 490M417 239.50Q417 239.50 417 282.25Q417 325 381 373.50Q345 422 275.50 422Q206 422 169 373.50Q132 325 132 239.50Q132 154 167 105.50Q202 57 271.50 57Q341 57 379 105.50Q417 154 417 239.50M453 587L403 548L274 656L144 548L94 587L274 743L453 587Z"  horiz-adv-x="547" vert-adv-y="1000"  />

      
      <glyph glyph-name="unif5" unicode="&#xf5;" d="M274 490Q174 490 112.50 425Q51 360 51 239Q51 119 112.50 54Q174-11 274-11Q374-11 435.50 54Q497 119 497 239Q497 360 435.50 425Q374 490 274 490M132 239.50Q132 239.50 132 282.25Q132 325 169 373.50Q206 422 275.50 422Q345 422 381 373.50Q417 325 417 239.50Q417 154 379 105.50Q341 57 271.50 57Q202 57 167 105.50Q132 154 132 239.50M206 641Q174 641 149 590L117 609Q129 660 152 686.50Q175 713 201 713Q227 713 260 696Q307 673 320.50 667Q334 661 347 661Q360 661 374 673.50Q388 686 398 713L433 690Q422 642 397.50 616Q373 590 352.50 590Q332 590 315 596Q298 602 268 617.50Q238 633 227.50 637Q217 641 206 641Z"  horiz-adv-x="547" vert-adv-y="1000"  />

      
      <glyph glyph-name="unif6" unicode="&#xf6;" d="M274 490Q374 490 435.50 425Q497 360 497 239Q497 119 435.50 54Q374-11 274-11Q174-11 112.50 54Q51 119 51 239Q51 360 112.50 425Q174 490 274 490M417 239.50Q417 239.50 417 282.25Q417 325 381 373.50Q345 422 275.50 422Q206 422 169 373.50Q132 325 132 239.50Q132 154 167 105.50Q202 57 271.50 57Q341 57 379 105.50Q417 154 417 239.50M190 605Q167 605 152.50 619.50Q138 634 138 655Q138 676 152.50 690.50Q167 705 190 705Q213 705 228.50 690.50Q244 676 244 655Q244 634 228.50 619.50Q213 605 190 605M358.50 605Q358.50 605 347.25 605Q336 605 321 619.50Q306 634 306 655Q306 676 321 690.50Q336 705 358.50 705Q381 705 396.50 690.50Q412 676 412 655Q412 634 396.50 619.50Q381 605 358.50 605Z"  horiz-adv-x="547" vert-adv-y="1000"  />

      
      <glyph glyph-name="unif9" unicode="&#xf9;" d="M426 95Q377-9 267-9Q186-9 136.50 36Q87 81 87 175L87 479L166 479L166 181Q166 60 278 60Q343 60 383.50 110Q424 160 426 238L426 479L505 479L505 0L426 0L426 95M200 769L435 636L412 586L167 699L200 769Z"  horiz-adv-x="606" vert-adv-y="1000"  />

      
      <glyph glyph-name="unifa" unicode="&#xfa;" d="M267-9Q377-9 426 95L426 0L505 0L505 479L426 479L426 246Q426 163 385 111.50Q344 60 278 60Q166 60 166 181L166 479L87 479L87 175Q87 81 136.50 36Q186-9 267-9M433 699L189 586L166 636L401 769L433 699Z"  horiz-adv-x="606" vert-adv-y="1000"  />

      
      <glyph glyph-name="unifb" unicode="&#xfb;" d="M426 95Q377-9 267-9Q186-9 136.50 36Q87 81 87 175L87 479L166 479L166 181Q166 60 278 60Q343 60 383.50 110Q424 160 426 238L426 479L505 479L505 0L426 0L426 95M480 625L430 586L301 694L171 586L121 625L301 781L480 625Z"  horiz-adv-x="606" vert-adv-y="1000"  />

      
      <glyph glyph-name="unifc" unicode="&#xfc;" d="M426 95Q377-9 267-9Q186-9 136.50 36Q87 81 87 175L87 479L166 479L166 181Q166 60 278 60Q343 60 383.50 110Q424 160 426 238L426 479L505 479L505 0L426 0L426 95M216 605Q193 605 178.50 619.50Q164 634 164 655Q164 676 178.50 690.50Q193 705 216 705Q239 705 254.50 690.50Q270 676 270 655Q270 634 254.50 619.50Q239 605 216 605M384.50 605Q384.50 605 373.25 605Q362 605 347 619.50Q332 634 332 655Q332 676 347 690.50Q362 705 384.50 705Q407 705 422.50 690.50Q438 676 438 655Q438 634 422.50 619.50Q407 605 384.50 605Z"  horiz-adv-x="606" vert-adv-y="1000"  />

      
      <glyph glyph-name="uni0131" unicode="&#x0131;" d="M101 479L180 479L180 0L101 0L101 479Z"  horiz-adv-x="280" vert-adv-y="1000"  />

      
      <glyph glyph-name="uni02BC" unicode="&#x02BC;" d="M111 523Q88 525 73 538Q58 551 58 573Q58 595 73.50 610Q89 625 117.50 625Q146 625 165 602.50Q184 580 184 546Q184 512 162 476.50Q140 441 95 419L36 448Q98 478 111 523Z"  horiz-adv-x="184" vert-adv-y="1000"  />

      
      <glyph glyph-name="uni02C6" unicode="&#x02C6;" d="M383 716L333 677L204 785L74 677L24 716L204 872L383 716Z"  horiz-adv-x="407" vert-adv-y="1000"  />

      
      <glyph glyph-name="uni02DC" unicode="&#x02DC;" d="M112 770Q80 770 55 719L23 738Q35 789 58 815.50Q81 842 107 842Q133 842 166 825Q213 802 226.50 796Q240 790 253 790Q266 790 280 802.50Q294 815 304 842L339 819Q328 771 303.50 745Q279 719 258.50 719Q238 719 221 725Q204 731 174 746.50Q144 762 133.50 766Q123 770 112 770Z"  horiz-adv-x="366" vert-adv-y="1000"  />

      
      <glyph glyph-name="uni2013" unicode="&#x2013;" d="M55 325L419 325L419 257L55 257L55 325Z"  horiz-adv-x="474" vert-adv-y="1000"  />

      
      <glyph glyph-name="uni2014" unicode="&#x2014;" d="M55 325L671 325L671 257L55 257L55 325Z"  horiz-adv-x="726" vert-adv-y="1000"  />

      
      <glyph glyph-name="uni2018" unicode="&#x2018;" d="M162 471Q162 449 146.50 433.50Q131 418 103 418Q75 418 55.50 441Q36 464 36 498.50Q36 533 59.50 568.50Q83 604 128 626L184 597Q122 565 109 521Q132 519 147 506Q162 493 162 471Z"  horiz-adv-x="214" vert-adv-y="1000"  />

      
      <glyph glyph-name="uni2019" unicode="&#x2019;" d="M36 574Q36 596 52 611Q68 626 96.50 626Q125 626 143.50 604Q162 582 162 547Q162 512 138.50 476.50Q115 441 71 418L15 448Q77 480 90 524Q67 526 51.50 539Q36 552 36 574Z"  horiz-adv-x="214" vert-adv-y="1000"  />

      
      <glyph glyph-name="uni20B9" unicode="&#x20B9;" d="M92 629L508 629L508 580L325 580Q394 544 409 477L508 477L508 429L414 429Q407 314 295 270Q255 255 200 250L474 0L362 0L92 248L92 296L153 296Q240 296 282 334Q324 372 327 429L92 429L92 477L323 477Q312 523 270.50 551.50Q229 580 153 580L92 580L92 629Z"  horiz-adv-x="581" vert-adv-y="1000"  />

      
      <glyph glyph-name="uni2212" unicode="&#x2212;" d="M409 325L409 258L79 258L79 325L409 325Z"  horiz-adv-x="488" vert-adv-y="1000"  />

      

  </font>
</defs>
</svg>
