<svg width="676" height="515" viewBox="0 0 676 515" fill="none" xmlns="http://www.w3.org/2000/svg">
  <path d="M307.498 408.925c112.618 0 203.914-91.49 203.914-204.349 0-112.86-91.296-204.35-203.914-204.35-112.619 0-203.915 91.49-203.915 204.35 0 112.859 91.296 204.349 203.915 204.349z" fill="#FFD98F"/>
  <path d="M331.903 217.995s14.371 3.743 15.88 15.763c.754 5.973-9.279 11.87-19.803 19.467a146.107 146.107 0 00-6.299 4.801l10.222-40.031z" fill="#53A17E"/>
  <path d="M10.566 99.453a1.532 1.532 0 01-1.32-.756c-5.32-9.11-8.148-14.97-8.186-15.045-.34-.756-.075-1.625.68-2.003.716-.378 1.621-.114 1.998.605l8.11 14.93c.377.719.151 1.626-.566 2.042-.188.189-.452.227-.716.227z" fill="#fff"/>
  <path d="M527.405 320.963c-.188 0-.377-.037-.528-.113l-31.722-12.285a1.508 1.508 0 01-.868-1.966 1.502 1.502 0 011.961-.869l31.723 12.285a1.508 1.508 0 01.868 1.965 1.512 1.512 0 01-1.434.983zm4.791-7.144c-.415 0-.868-.189-1.132-.529-7.657-8.997-15.277-17.502-22.67-25.289a1.543 1.543 0 01.038-2.154 1.536 1.536 0 012.15.037 607.174 607.174 0 0122.783 25.402 1.501 1.501 0 01-.189 2.117 1.337 1.337 0 01-.98.416zm-68.236-17.426c-.188 0-.377-.038-.528-.113l-31.722-12.286a1.506 1.506 0 01-.868-1.965 1.503 1.503 0 011.961-.87l31.723 12.286a1.507 1.507 0 01.867 1.965c-.264.605-.829.983-1.433.983zm-63.483-24.608a1.2 1.2 0 01-.528-.114l-31.722-12.285a1.507 1.507 0 01-.868-1.965 1.504 1.504 0 011.962-.87l31.722 12.285a1.51 1.51 0 01.868 1.966c-.227.643-.792.983-1.434.983zm84.644-7.107c-.377 0-.717-.113-1.018-.378-8.751-7.9-17.54-15.158-26.178-21.508a1.477 1.477 0 01-.302-2.117 1.47 1.47 0 012.113-.302c8.713 6.426 17.577 13.721 26.403 21.697.604.567.679 1.512.114 2.117-.302.34-.717.491-1.132.491zm-148.089-17.463a1.2 1.2 0 01-.528-.114l-31.722-12.285a1.508 1.508 0 01-.868-1.966 1.504 1.504 0 011.962-.869l31.722 12.285a1.51 1.51 0 01.868 1.966c-.264.642-.83.983-1.434.983zm93.244-22.567c-.264 0-.49-.076-.716-.189a213.755 213.755 0 00-30.705-14.024c-.792-.303-1.207-1.134-.905-1.928a1.467 1.467 0 011.924-.907c10.448 3.78 20.897 8.543 31.119 14.213.717.415.981 1.323.603 2.041a1.525 1.525 0 01-1.32.794zm-156.726-2.004c-.189 0-.378-.038-.529-.113l-31.722-12.285a1.51 1.51 0 01-.868-1.966 1.503 1.503 0 011.962-.869l31.722 12.285a1.508 1.508 0 01.868 1.965 1.51 1.51 0 01-1.433.983zm-108.332-.529h-.189c-11.165-1.323-22.368-4.045-33.307-8.127a1.531 1.531 0 01-.905-1.928 1.526 1.526 0 011.924-.907c10.712 4.007 21.689 6.691 32.59 7.976.83.113 1.433.831 1.32 1.663 0 .756-.679 1.323-1.433 1.323zm33.948-.227a1.54 1.54 0 01-1.509-1.323c-.113-.831.49-1.587 1.32-1.701 7.733-1.02 15.578-2.684 23.387-4.989 3.206-.945 6.374-1.89 9.467-2.76a1.486 1.486 0 011.849 1.059 1.49 1.49 0 01-1.057 1.852c-3.055.869-6.223 1.776-9.43 2.721-7.959 2.382-15.955 4.083-23.839 5.103-.075.038-.151.038-.188.038zm66.085-15.989c-.717 0-1.32-.492-1.471-1.21a1.461 1.461 0 011.169-1.777c11.731-2.457 23.047-4.347 33.684-5.556.83-.076 1.585.491 1.66 1.323.075.831-.49 1.587-1.32 1.663-10.524 1.21-21.765 3.062-33.42 5.519a.93.93 0 01-.302.038zm101.316-4.121c-.075 0-.189 0-.264-.037-10.788-1.89-22.066-2.949-33.571-3.138-.83 0-1.509-.718-1.471-1.55a1.47 1.47 0 011.547-1.474c11.655.189 23.122 1.248 34.061 3.175.83.152 1.358.945 1.207 1.739-.151.756-.792 1.285-1.509 1.285zm-264.719-2.835c-.264 0-.566-.075-.792-.226-9.28-5.784-18.52-12.701-27.46-20.488a1.503 1.503 0 01-.151-2.117c.528-.643 1.509-.681 2.112-.151 8.827 7.711 17.917 14.477 27.046 20.185.716.454.905 1.361.49 2.079-.226.454-.717.718-1.245.718zm108.257-.869c-.189 0-.378-.038-.529-.113l-31.722-12.286a1.508 1.508 0 01-.868-1.965 1.504 1.504 0 011.962-.87l31.722 12.286a1.507 1.507 0 01.868 1.965c-.264.605-.83.983-1.433.983zm-63.483-24.57c-.189 0-.377-.038-.528-.114l-31.723-12.285a1.508 1.508 0 01-.867-1.966 1.503 1.503 0 011.961-.869l31.723 12.285a1.508 1.508 0 01.867 1.966 1.51 1.51 0 01-1.433.983zm-96.149-18.901c-.414 0-.83-.189-1.131-.491-7.355-8.278-14.56-17.275-21.387-26.725-.49-.68-.34-1.625.34-2.117a1.509 1.509 0 012.111.34c6.752 9.375 13.881 18.296 21.2 26.461.565.605.49 1.587-.114 2.117-.302.264-.679.415-1.018.415zm32.704-5.67c-.189 0-.378-.037-.528-.113l-31.723-12.285a1.509 1.509 0 01-.867-1.966 1.502 1.502 0 011.961-.869l31.723 12.285a1.508 1.508 0 01.867 1.966c-.264.604-.83.982-1.433.982z" fill="#fff"/>
  <path d="M564.069 353.888c-.453 0-.905-.189-1.207-.605l-10.336-13.495c-.49-.642-.377-1.587.265-2.116.641-.492 1.584-.378 2.112.264a1236.33 1236.33 0 0110.335 13.533c.491.68.377 1.625-.302 2.117a1.419 1.419 0 01-.867.302z" fill="#fff"/>
  <path d="M355.138 62.144s20.406-27.632 49.338-10.13c28.969 17.5 18.86 58.59 33.872 74.731 15.013 16.141 29.497 72.804-7.921 81.006-37.418 8.203-52.997 1.626-63.37 6.313-10.373 4.65-41.793 15.309-64.463-15.612-22.67-30.92-10.637-110.301 11.354-126.442 21.99-16.141 41.19-9.866 41.19-9.866z" fill="#3E3E3E"/>
  <path d="M385.918 244.758c-15.956 6.237-73.592 3.742-58.127-22.756 6.3-10.811 6.45-25.061 4.414-38.14-1.736-11-4.979-21.169-7.431-27.784-1.773-4.8-3.093-7.711-3.093-7.711s46.508-18.787 50.13 5.519c.226 1.474.264 3.099.15 4.876-.905 14.024 2.679 30.429 6.903 44.378 5.281 17.388 11.58 30.883 11.58 30.883s11.429 4.46-4.526 10.735z" fill="#FFB1A9"/>
  <path d="M378.826 203.102c-20.482-.378-35.91-9.413-46.66-19.241-1.735-11-4.979-21.168-7.431-27.783 9.129-1.814 21.652-3.969 30.403-4.196 5.771-.151 11.617.794 16.634 1.966.227 1.474.264 3.099.151 4.876-.867 14.024 2.678 30.467 6.903 44.378z" fill="#FF7C76"/>
  <path d="M396.29 120.81c-.415 21.395-7.355 69.515-26.592 69.515-24.745 0-46.811-18.598-54.091-57.117-7.657-40.522 12.259-24.419 34.439-19.694 2.602.567 5.205.945 7.808 1.097 24.933 1.285 33.684-3.667 37.342-3.818.793-.076 1.207 3.893 1.094 10.017z" fill="#FFB1A9"/>
  <path d="M317.342 140.996s-16.861-9.223-17.577 2.457c-.717 11.68 9.58 25.818 27.912 22.227 18.332-3.591 7.205-23.852 6.677-23.852-.528-.038-17.012-.832-17.012-.832z" fill="#FFB1A9"/>
  <path d="M495.381 491.406c-5.545-2.003-11.241-4.082-17.125-6.124-10.977-3.817-22.595-7.635-34.929-11.075-8.789-2.457-17.804-3.478-27.045-3.44-28.667.038-59.108 10.017-88.567 17.426-14.862 3.742-29.459 6.804-43.491 7.598 9.581-19.316 13.277-35.797 13.428-50.464.113-9.828-1.32-18.862-3.621-27.405-2.942-10.887-7.242-20.942-11.391-30.807-8.563-20.337-16.522-39.993-10.637-64.564 10.524-44.113 18.483-74.958 18.483-74.958s3.998-11.378 28.931-12.852c2.074-.114 4.451-.227 7.053-.265.906-.038 1.886-.038 2.829-.038-.075-.189-.113-.34-.188-.529-1.32-4.347-2.754-5.594-1.32-8.165 1.282-2.381 3.734-6.917 4.111-7.635.038-.076.038-.114.038-.114s.151 0 .415-.038c4.338-.415 42.699-4.12 53.6.038.188.076.339.151.49.189 6.903 3.024 7.205 11.492 5.507 17.88 13.768.605 23.726 1.172 23.726 1.172l31.949 30.505s4.036 56.814 11.014 106.332c4.3 30.43 9.694 58.1 15.956 68.192 9.732 15.801 17.427 35.117 20.784 49.141z" fill="#53A17E"/>
  <path d="M297.615 445.327c.113-9.828-1.32-18.862-3.621-27.405-2.942-10.887-7.243-20.942-11.392-30.807 3.093-1.966 6.979-3.516 11.807-4.347 17.954-2.987 38.059 17.161 38.059 17.161s-19.878 19.996-34.853 45.398z" fill="#5E8976"/>
  <path d="M291.769 285.431s-.34 93.292 62.426 79.533c62.729-13.76-95.733 34.89-95.733 34.89l-4.489-52.997 37.796-61.426z" fill="#5E8976"/>
  <path d="M332.43 399.929c.264-14.062.302-27.783.151-41.051-.415-41.316-2.527-78.058-4.639-105.653-.264-3.326-.491-6.501-.755-9.525-.151-1.89-.301-3.705-.452-5.481-.114-1.286-.227-2.495-.34-3.705-.113-1.285-.226-2.533-.339-3.78-.34-3.704-.679-7.069-.981-10.131a76.42 76.42 0 016.752-2.494c.151-.038.302-.076.453-.152 12.032-3.628 24.517-3.931 34.438-3.175 8.789.643 15.578 2.155 18.332 2.911.754.227 1.207.378 1.32.453v.076c.038.68.189 5.973.415 12.966.151 3.591.302 7.598.452 11.718.265 6.199.604 12.587.981 17.804l.076.983c5.016 67.322 18.671 154.604 27.912 209.112-28.667.038-59.107 10.017-88.566 17.426 2.829-29.938 4.262-59.8 4.79-88.302z" fill="#4F7966"/>
  <path d="M387.275 242.868c-20.331 7.144-45.792 3.742-60.088.794-.151-1.89-.301-3.705-.452-5.481-.114-1.286-.227-2.495-.34-3.705-.113-1.285-.226-2.532-.339-3.78-.34-3.704-.679-7.069-.981-10.13 14.069-6.086 29.723-6.729 41.681-5.822 6.525.794 12.787 1.739 18.331 2.911.755.227 1.207.378 1.321.454v.075c.037.681.188 5.973.415 12.966.113 3.591.301 7.635.452 11.718z" fill="#fff"/>
  <path d="M404.438 222.91c-5.696 3.628-11.618 6.312-17.615 8.24-.076.038-.113.038-.189.076-22.217 7.031-45.226 3.591-60.578-.492a140.354 140.354 0 01-14.636-4.763 939.821 939.821 0 0113.655-5.367c10.071-4.347 20.935-9.148 30.666-9.337 16.597-.34 29.95 6.426 30.629 6.88 1.924.453 8.977 2.306 18.068 4.763z" fill="#FFB1A9"/>
  <path d="M577.573 270.387c-.038-.945-.076-1.89.151-2.797.792-3.138 2.376-8.959 4.187-13.193 2.602-6.048 5.582-15.687 4.3-20.979-1.283-5.292-2.98-7.22-.264-7.144 2.753.075 8.26 4.762 8.26 9.11-.037 4.347-1.584 12.738-.377 13.041 1.207.34 7.205-2.571 10.939-2.382 3.734.189 9.807 1.928 10.486 3.138.641 1.209.943 4.347-.603 4.952 0 0 6.676 2.872 3.507 7.408 0 0 5.357 3.024 1.849 7.825 0 0 4.602 4.99.339 7.863-4.224 2.872-6.412 2.116-8.11 4.573-1.697 2.495-11.24 7.296-13.051 8.09-1.81.794-7.619 1.323-12.183 8.354-4.564 7.031-17.201-10.962-17.163-13.571.038-2.608 3.584-7.787 6.186-11.189 1.283-1.701 1.584-2.608 1.547-3.099z" fill="#FFB1A9"/>
  <path d="M366.793 347.726c5.055-8.127 9.393-31.223 15.164-30.958 5.809.264 1.66 8.581 0 12.172-1.66 3.591-6.79 14.817-1.811 15.082l-13.353 3.704z" fill="#FFB1A9"/>
  <path d="M597.036 293.823c-8.902 11.378-50.733 62.787-88.604 75.45-1.999.68-3.923 1.285-5.809 1.814-20.67 5.973-35.117 5.103-44.057 3.024-7.77-1.814-11.391-4.574-11.391-4.574l-17.691-32.584-38.21-70.422-2.942-4.838-.076-.983c-.754-10.358-1.32-20.261-1.622-29.447a530.553 530.553 0 01-.264-13.041v-.076c1.886.492 8.94 2.306 18.068 4.801 17.992 4.914 43.944 12.361 53.826 17.086.717.34 1.358.68 1.886.983.415.227.868.567 1.321.945 12.9 10.773 39.04 74.278 39.04 74.278s59.635-29.333 73.78-45.323c1.283-1.474 3.546-1.512 4.866-.113l17.653 18.749c1.169 1.171 1.245 2.986.226 4.271z" fill="#53A17E"/>
  <path d="M424.203 368.706H391.01a9.135 9.135 0 01-6.715-2.949c-1.735-1.852-2.602-4.385-2.414-6.917l5.055-66.113c.377-4.725 4.375-8.43 9.09-8.43h33.194a9.132 9.132 0 016.714 2.949c1.735 1.852 2.603 4.384 2.414 6.917l-5.054 66.113c-.34 4.687-4.338 8.43-9.091 8.43zm-28.101-81.385c-3.169 0-5.847 2.495-6.111 5.67l-5.054 66.113a6.196 6.196 0 001.622 4.65c1.169 1.247 2.753 1.965 4.488 1.965h33.194c3.168 0 5.847-2.494 6.111-5.67l5.054-66.113c.113-1.739-.453-3.364-1.622-4.611-1.169-1.248-2.753-1.966-4.489-1.966h-33.193v-.038z" fill="#fff"/>
  <path d="M417.225 375.661h-33.194c-4.451 0-7.921-3.78-7.582-8.202l5.055-66.113c.302-3.97 3.621-7.069 7.582-7.069h33.193c4.451 0 7.921 3.78 7.582 8.203l-5.055 66.113c-.301 4.006-3.621 7.068-7.581 7.068z" fill="#53A17E"/>
  <path d="M382.786 343.039c4.98.265 15.994-10.508 22.331-11.34 6.337-.831 1.395 6.729 1.395 6.729s3.207-1.021 3.848 1.549c.641 2.571-.641 3.629-.641 3.629s3.055 1.701 1.546 4.272c0 0 1.622 3.175 0 5.481-1.66 2.306-3.282 9.979-18.671 15.8-13.278 5.028-38.626 21.547-48.018 20.828-6.563-.529-7.619-11.529-7.695-18.144a7.47 7.47 0 014.187-6.804c7.205-3.553 21.878-11.264 25.65-17.312l16.068-4.688z" fill="#FFB1A9"/>
  <path d="M502.661 371.087c-20.67 5.973-35.117 5.103-44.057 3.024-2.942-20.865-5.356-43.017-7.166-61.652 9.958 17.993 27.309 43.848 51.223 58.628z" fill="#5E8976"/>
  <path d="M358.231 348.823c3.319-1.248 6.978.68 7.846 4.158l6.073 25.024c.792 3.251-1.283 6.502-4.527 7.182-6.676 1.399-16.483 5.557-35.155 14.704a1571.95 1571.95 0 00-19.727 9.866 173.861 173.861 0 01-18.747 8.165c-34.099 12.55-64.954 11.832-70.348.076-6.186-13.495 14.484-142.659 25.612-160.728.339-.529.641-.983.943-1.323.452-.453.943-.945 1.584-1.474 9.392-7.749 39.153-20.412 59.635-28.577a929.955 929.955 0 0113.655-5.368c.302 3.062.641 6.426.981 10.131.113 1.209.226 2.494.339 3.78.113 1.209.226 2.457.34 3.704l-5.093 19.808c-8.336 6.804-15.653 14.931-16.408 25.364-1.886 25.893-27.309 88.906-27.309 88.906 9.883-2.608 35.193-5.481 54.656-13.381 11.656-4.649 20.294-8.014 25.65-10.017z" fill="#53A17E"/>
  <path d="M187.208 275.452c4.602 6.502 4.942 14.591 4.866 17.918-.037.793-.792 1.36-1.546 1.096-3.169-1.021-10.675-4.007-15.277-10.509-4.602-6.502-4.941-14.591-4.866-17.917.038-.794.793-1.361 1.547-1.096 3.168 1.02 10.675 4.006 15.276 10.508z" fill="#fff"/>
  <path d="M191.131 292.84c-.641 0-1.244-.227-1.772-.605-2.641-2.116-9.016-7.862-11.166-16.103-2.15-8.202.528-16.405 1.773-19.505.34-.831 1.019-1.474 1.924-1.701a2.826 2.826 0 012.489.53c2.641 2.116 9.016 7.862 11.166 16.103 2.15 8.202-.528 16.405-1.773 19.505-.34.831-1.019 1.474-1.924 1.701-.226.037-.49.075-.717.075zm-8.336-34.474c-1.207 3.175-3.244 10.055-1.433 16.897 1.81 6.804 6.978 11.832 9.581 13.986 1.207-3.175 3.244-10.055 1.433-16.897-1.81-6.804-6.978-11.793-9.581-13.986z" fill="#53A17E"/>
  <path d="M469.278 19.883l1.585-12.36c.188-1.437 1.848-2.08 2.942-1.172l9.543 7.975c.264.227.603.378.943.416l12.334 1.588a1.807 1.807 0 011.17 2.948l-7.959 9.564a1.783 1.783 0 00-.415.945l-1.584 12.36c-.189 1.437-1.849 2.08-2.943 1.172l-9.543-7.976a1.777 1.777 0 00-.943-.415l-12.334-1.588a1.807 1.807 0 01-1.169-2.948l7.958-9.564c.227-.264.34-.605.415-.945z" fill="#FFD98F"/>
  <path d="M313.946 155.852c3.368-.69 5.632-3.537 5.057-6.36-.575-2.822-3.772-4.552-7.14-3.863-3.368.69-5.632 3.537-5.056 6.36.575 2.822 3.772 4.552 7.139 3.863z" fill="#fff"/>
  <path d="M311.157 150.975l5.243 20.412c.188.718-.264 1.474-.981 1.664a1.323 1.323 0 01-1.622-.908l-6.337-20.11c-.302-1.02.227-2.116 1.245-2.419 1.018-.302 2.112.227 2.414 1.248.038.037.038.075.038.113z" fill="#fff"/>
  <path d="M530.951 442.568c-14.975 0-27.197-12.21-27.197-27.254 0-15.045 12.184-27.254 27.197-27.254 14.974 0 27.196 12.209 27.196 27.254 0 15.044-12.222 27.254-27.196 27.254zm0-51.182c-13.165 0-23.877 10.736-23.877 23.928s10.712 23.928 23.877 23.928c13.164 0 23.876-10.736 23.876-23.928s-10.712-23.928-23.876-23.928z" fill="#FFD98F"/>
  <path d="M346.953 270.425c-.415 0-.83-.151-1.094-.492l-9.996-10.886c-.566-.605-.528-1.588.075-2.155a1.535 1.535 0 012.15.076l9.996 10.886c.566.605.528 1.588-.075 2.155-.34.302-.717.416-1.056.416z" fill="#EEF6F2"/>
  <path d="M392.292 471.599c-.415 0-.83-.151-1.094-.492l-9.995-10.886a1.543 1.543 0 01.075-2.155 1.536 1.536 0 012.15.076l9.996 10.886c.566.605.528 1.588-.076 2.155a1.571 1.571 0 01-1.056.416z" fill="#EEF6F2"/>
  <path d="M386.408 410.022c-.415 0-.83-.152-1.094-.492l-9.996-10.886c-.566-.605-.528-1.588.075-2.155a1.535 1.535 0 012.15.076l9.996 10.886c.566.605.528 1.588-.075 2.155-.34.302-.717.416-1.056.416z" fill="#EEF6F2"/>
  <path d="M346.462 444.08c-.075 0-.189 0-.264-.038-.83-.151-1.358-.945-1.207-1.776l2.716-14.516a1.509 1.509 0 011.773-1.209c.83.151 1.358.945 1.207 1.776l-2.716 14.516c-.189.718-.83 1.247-1.509 1.247z" fill="#EEF6F2"/>
  <path d="M367.51 301.119c-.189 0-.377-.038-.566-.114a1.507 1.507 0 01-.867-1.965l5.393-13.76a1.503 1.503 0 011.962-.869 1.507 1.507 0 01.867 1.965l-5.393 13.76a1.5 1.5 0 01-1.396.983z" fill="#EEF6F2"/>
  <path d="M350.196 346.857a1.502 1.502 0 01-1.358-.831l-6.525-13.268a1.517 1.517 0 01.679-2.042 1.511 1.511 0 012.037.681l6.525 13.268a1.516 1.516 0 01-.679 2.041 1.48 1.48 0 01-.679.151z" fill="#EEF6F2"/>
  <path d="M283.017 291.328c-.151.038-.302.076-.452.076-.717 0-1.358-.454-1.547-1.172-8.864-31.488-30.629-32.546-30.855-32.584-.339 0-.641-.113-.905-.302.339-.53.641-.983.943-1.323a21.26 21.26 0 011.584-1.475c2.263.341 6.827 1.361 11.957 4.574 6.564 4.083 15.428 12.626 20.369 30.203.264.869-.226 1.739-1.094 2.003z" fill="#4F7966"/>
  <path d="M461.508 241.923a1.7 1.7 0 01-.83.605c-.075.038-4.79 1.587-9.203 6.69-5.884 6.767-8.563 16.784-7.771 28.918.076.907-.603 1.663-1.508 1.739h-.113c-.83 0-1.547-.681-1.622-1.512-1.057-16.557 4.149-26.234 8.713-31.45 3.508-4.007 7.167-6.048 9.128-6.918.717.34 1.358.681 1.886.983.415.265.868.567 1.32.945z" fill="#4F7966"/>
  <path d="M478.218 486.794c-.226 0-.49-.075-.717-.189-.716-.378-1.018-1.323-.603-2.041 1.509-2.835 1.169-5.632-1.056-8.618-10.147-13.571-16.823-35.533-17.087-36.478-.227-.794.226-1.625 1.018-1.89.792-.227 1.622.227 1.886 1.021.075.227 6.79 22.415 16.597 35.532 3.696 4.914 2.753 9.186 1.32 11.87-.302.491-.83.793-1.358.793z" fill="#4F7966"/>
  <path d="M342.162 141.411c1.75 0 3.169-2.911 3.169-6.501 0-3.591-1.419-6.502-3.169-6.502s-3.168 2.911-3.168 6.502c0 3.59 1.418 6.501 3.168 6.501z" fill="#3E3E3E"/>
  <path d="M376.563 141.411c1.749 0 3.168-2.911 3.168-6.501 0-3.591-1.419-6.502-3.168-6.502-1.75 0-3.169 2.911-3.169 6.502 0 3.59 1.419 6.501 3.169 6.501z" fill="#3E3E3E"/>
  <path d="M335.523 125.649c-.264 0-.565-.114-.754-.341-.34-.415-.264-.982.151-1.323.188-.151 4.979-3.893 10.26-.831a.934.934 0 01.339 1.285.928.928 0 01-1.282.34c-4.187-2.419-7.997.529-8.148.681-.151.151-.339.189-.566.189z" fill="#3E3E3E"/>
  <path d="M381.165 126.556c-.189 0-.415-.076-.604-.189-.151-.113-3.998-3.062-8.147-.68a.93.93 0 01-1.283-.341.934.934 0 01.34-1.285c5.318-3.062 10.071.643 10.259.832.415.34.491.907.151 1.323a.925.925 0 01-.716.34z" fill="#3E3E3E"/>
  <path d="M361.815 139.144l4.828 18.938c.075.264-.227.491-.604.491h-6.752c-.377 0-.641-.227-.641-.454l1.924-18.938c.037-.491 1.131-.529 1.245-.037z" fill="#FF7C76"/>
  <path d="M348.839 165.377c2.867 1.55 10.788 5.254 18.747 4.309 1.018-.113 1.584 1.172.792 1.815-3.47 2.948-9.732 7.144-15.465 5.065-6.451-2.344-6.111-7.9-5.583-10.471.151-.718.905-1.058 1.509-.718z" fill="#fff"/>
  <path d="M396.29 120.81c-4.073-.831-9.543-1.209-16.596-.491-11.769 1.247-22.67-3.062-29.648-6.842 2.603.567 5.205.945 7.808 1.096 24.933 1.285 33.684-3.666 37.343-3.818.792-.037 1.207 3.932 1.093 10.055z" fill="#FF7C76"/>
  <path d="M366.643 129.013c-.378 0-.755-.227-.868-.605-.113-.302-2.904-7.068-14.069-8.24-12.297-1.286-21.086-17.54-21.463-18.258a.98.98 0 01.377-1.285c.453-.265 1.019-.076 1.283.378.075.151 8.675 16.065 19.991 17.275 12.372 1.285 15.541 9.11 15.654 9.45a.92.92 0 01-.528 1.209c-.151.038-.264.076-.377.076z" fill="#3E3E3E"/>
  <path d="M358.646 65.282c-.076 0-.151 0-.264-.038-.491-.151-.792-.68-.642-1.172.076-.34 2.339-8.24 7.959-15.574 7.544-9.828 17.54-13.76 28.894-11.378 27.045 5.67 32.213 18.069 32.401 18.598a.92.92 0 01-.528 1.21.918.918 0 01-1.207-.53c-.038-.113-5.13-11.982-31.043-17.426-10.751-2.268-19.803 1.323-26.97 10.622-5.432 7.031-7.657 14.894-7.657 14.97-.151.453-.528.718-.943.718z" fill="#3E3E3E"/>
  <path d="M464.036 183.181h-.189a.962.962 0 01-.754-1.096c.075-.416 8.072-42.715-11.958-48.196-9.015-2.457-17.389-10.281-24.857-23.209-5.545-9.564-8.525-18.523-8.563-18.598a.994.994 0 01.604-1.21.99.99 0 011.207.605c.113.34 11.769 35.003 32.137 40.598 9.053 2.495 14.221 12.058 14.938 27.708.528 11.567-1.585 22.604-1.622 22.718a.987.987 0 01-.943.68z" fill="#3E3E3E"/>
  <path d="M132.59 491.557a2.99 2.99 0 01-2.942-2.457 3.066 3.066 0 012.376-3.553c.83-.151 20.595-3.931 48.244-4.347a3.005 3.005 0 013.055 2.986c.038 1.664-1.32 3.062-2.98 3.062-27.045.416-46.999 4.196-47.187 4.234-.189.076-.378.075-.566.075z" fill="#FFD98F"/>
  <path d="M572.179 514.767c-21.539 0-45-8.543-73.517-18.938l-4.337-1.588c-5.017-1.814-10.977-3.969-17.088-6.123-12.938-4.537-23.99-8.014-34.74-11.038-8.11-2.268-16.672-3.364-26.215-3.327-22.632.038-46.848 6.502-70.273 12.739a1323.72 1323.72 0 01-17.577 4.612c-13.164 3.326-28.705 6.804-44.057 7.711-12.259.718-22.971-.302-32.816-3.137-6.564-1.89-13.542-3.478-20.746-4.725-1.66-.303-2.754-1.853-2.452-3.516.302-1.663 1.848-2.759 3.508-2.457a206.541 206.541 0 0121.387 4.876c9.166 2.646 19.237 3.591 30.78 2.911 14.861-.869 30.025-4.271 42.925-7.522 5.809-1.475 11.769-3.062 17.502-4.574 23.801-6.351 48.395-12.89 71.781-12.928h.302c9.996 0 19.011 1.172 27.573 3.553 10.864 3.024 22.029 6.578 35.08 11.151 6.148 2.155 12.146 4.31 17.162 6.124l4.338 1.588c32.892 11.983 58.843 21.433 82.041 17.766a3.03 3.03 0 013.47 2.533 3.035 3.035 0 01-2.527 3.477c-3.734.567-7.582.832-11.504.832z" fill="#FFD98F"/>
  <path d="M643.13 136.195L515.9 109.508c-12.598-2.646-24.97 5.443-27.611 18.068l-9.731 46.608c-2.264 10.811 3.357 21.471 12.938 25.932l-10.713 26.913c-1.66 4.121 2.942 7.976 6.714 5.595l38.852-24.57 97.506 20.45c12.599 2.646 24.971-5.444 27.611-18.069l9.732-46.608c2.603-12.625-5.469-24.986-18.068-27.632z" fill="#fff"/>
  <path d="M504.886 220.603c-1.207 0-2.414-.378-3.47-1.096-2.263-1.55-3.282-4.233-2.527-6.879l7.544-26.423c-10.109-4.234-16.295-14.591-15.126-25.667l4.979-47.364c1.433-13.721 13.768-23.7 27.422-22.264l129.305 13.684c6.638.718 12.598 3.931 16.785 9.147 4.187 5.179 6.111 11.719 5.432 18.372l-4.979 47.364c-1.358 12.814-12.222 22.377-24.782 22.377a20.91 20.91 0 01-2.641-.151l-98.411-10.395-35.646 27.972c-1.207.87-2.527 1.323-3.885 1.323zm16.22-126.518c-10.939 0-20.369 8.316-21.538 19.43l-4.979 47.364c-1.057 10.055 4.865 19.429 14.409 22.756a1.668 1.668 0 011.056 2.003l-7.959 27.859c-.453 1.512.339 2.684 1.169 3.251.868.567 2.226.869 3.47-.114l36.174-28.388a1.646 1.646 0 011.169-.34l99.091 10.471c11.882 1.247 22.556-7.409 23.839-19.316l4.979-47.364c.603-5.784-1.056-11.416-4.715-15.952-3.659-4.498-8.827-7.333-14.56-7.938L523.407 94.123c-.792 0-1.547-.038-2.301-.038z" fill="#53A17E"/>
  <path d="M525.444 140.58h-.114a1.694 1.694 0 01-1.357-.869l-9.393-18.145a1.65 1.65 0 01.717-2.23 1.643 1.643 0 012.225.718l8.186 15.763 18.897-26.46c.528-.756 1.547-.907 2.301-.378.755.529.906 1.55.377 2.306L526.839 139.9c-.377.415-.867.68-1.395.68z" fill="#53A17E"/>
  <path d="M579.685 148.14l3.206-4.498c.981-1.361 3.131-1.021 3.622.604l1.621 5.293c.189.642.679 1.134 1.321 1.36l5.28 1.664c1.622.529 1.924 2.646.566 3.628l-4.526 3.176c-.566.378-.868 1.02-.868 1.701l.038 5.519c0 1.701-1.924 2.683-3.282 1.663l-4.413-3.327a1.988 1.988 0 00-1.886-.302l-5.243 1.739c-1.622.529-3.131-1.021-2.565-2.608l1.811-5.217c.226-.643.113-1.323-.302-1.89l-3.282-4.46c-1.018-1.361 0-3.289 1.698-3.251l5.507.113a2.318 2.318 0 001.697-.907z" fill="#FFD98F"/>
  <path d="M621.215 154.075l3.206-4.499c.981-1.36 3.131-1.02 3.621.605l1.622 5.292c.188.643.679 1.134 1.32 1.361l5.281 1.663c1.622.53 1.924 2.646.566 3.629l-4.527 3.175c-.566.379-.867 1.021-.867 1.702l.037 5.518c0 1.701-1.923 2.684-3.281 1.664l-4.413-3.327a1.986 1.986 0 00-1.886-.302l-5.244 1.739c-1.622.529-3.13-1.021-2.565-2.609l1.811-5.216c.226-.643.113-1.323-.302-1.89l-3.281-4.461c-1.019-1.36 0-3.288 1.697-3.25l5.507.113c.679-.038 1.32-.378 1.698-.907z" fill="#53A17E"/>
  <path d="M172.233 390.706c-26.064-18.825-47.715-43.849-62.577-72.313a205.652 205.652 0 01-17.351-45.814c-4.074-16.33-6.11-33.264-6.11-50.237h6.034c0 64.526 31.232 125.649 83.55 163.45l-3.546 4.914z" fill="#FFD98F"/>
  <path d="M179.627 187.906c41.185 0 74.572-33.458 74.572-74.731 0-41.273-33.387-74.732-74.572-74.732-41.186 0-74.573 33.459-74.573 74.732 0 41.273 33.387 74.731 74.573 74.731z" fill="#fff"/>
  <path d="M200.863 82.934s-10.562 1.248-12.108 1.815c-1.584.567-3.772-1.021-3.961-3.213-.151-2.23 5.583-15.839 3.395-21.962-2.15-6.124-10.448-7.447-10.373-.34.076 7.106-6.45 17.614-8.94 19.731-2.489 2.117-10.523 19.052-10.523 19.052l-6.3.945-.188-1.248c-.189-1.172-1.283-2.003-2.452-1.814l-20.143 3.024c-1.169.189-1.999 1.285-1.81 2.457l5.318 35.495c.189 1.171 1.283 2.003 2.452 1.814l20.143-3.024c1.169-.189 1.999-1.285 1.81-2.457l-.151-.983c3.886-.189 7.582 2.041 7.582 2.041l38.889-5.859c9.544-1.436 4.15-9.904 4.15-9.904 5.846-4.687.415-10.508.415-10.508 7.581-5.632-.453-11.87-.453-11.87 6.752-11.793-6.752-13.192-6.752-13.192z" fill="#53A17E"/>
  <path d="M168.386 175.961c-42.02 0-76.232-34.247-76.232-76.395 0-42.11 34.175-76.394 76.232-76.394 42.021 0 76.233 34.247 76.233 76.394-.038 42.11-34.212 76.395-76.233 76.395zm0-149.463c-40.209 0-72.912 32.773-72.912 73.068 0 40.296 32.703 73.069 72.912 73.069 40.21 0 72.913-32.773 72.913-73.069 0-40.295-32.703-73.068-72.913-73.068z" fill="#53A17E"/>
  <path d="M141.944 367.723c-.49 0-.98-.227-1.32-.643-.566-.718-.415-1.739.302-2.306l44.925-34.7c.716-.567 1.735-.416 2.3.302.566.718.415 1.739-.301 2.306l-44.925 34.701c-.264.227-.641.34-.981.34z" fill="#EEF6F2"/>
  <path d="M115.427 388.211c-.49 0-.981-.227-1.32-.643-.566-.718-.415-1.739.302-2.306l13.353-10.319c.716-.567 1.735-.416 2.3.302.566.718.415 1.739-.301 2.306l-13.353 10.32c-.302.226-.641.34-.981.34z" fill="#EEF6F2"/>
  <path d="M295.201 59.99a15.06 15.06 0 01-8.751-2.798 15.314 15.314 0 01-6.262-9.866c-.717-4.007.189-8.051 2.565-11.416 4.828-6.88 14.371-8.542 21.236-3.704 6.866 4.838 8.525 14.402 3.697 21.282a15.277 15.277 0 01-9.845 6.275c-.905.15-1.773.226-2.64.226zm.037-27.52c-3.847 0-7.657 1.815-10.033 5.217a12.142 12.142 0 00-2.037 9.148c.566 3.213 2.339 6.048 5.017 7.9a12.076 12.076 0 009.128 2.041c3.206-.567 6.035-2.343 7.884-5.027 3.885-5.519 2.527-13.193-2.98-17.048a11.962 11.962 0 00-6.979-2.23z" fill="#fff"/>
  <path d="M271.928 79.419c-.302 0-.604-.076-.868-.265a1.558 1.558 0 01-.377-2.117l15.39-21.924a1.55 1.55 0 012.112-.378c.679.492.83 1.437.377 2.117l-15.39 21.924a1.57 1.57 0 01-1.244.643z" fill="#fff"/>
  <path d="M211.274 371.881h-.076a1.483 1.483 0 01-1.433-1.55c1.245-32.811 18.105-88.34 18.294-88.907.226-.793 1.094-1.247 1.886-1.02.792.227 1.245 1.096 1.018 1.89-.15.567-16.936 55.718-18.143 88.151-.075.793-.717 1.436-1.546 1.436z" fill="#53A17E"/>
  <path d="M542.908 367.572c-.453 0-.943-.227-1.207-.643a1.517 1.517 0 01.339-2.117c.378-.264 39.041-28.35 52.884-48.914.453-.68 1.396-.869 2.112-.415.679.453.868 1.398.415 2.116-14.107 21.017-52.016 48.536-53.6 49.708a1.884 1.884 0 01-.943.265z" fill="#53A17E"/>
  <path d="M582.326 300.136c-3.282 0-5.96-2.684-5.96-5.973 0-3.288 2.678-5.972 5.96-5.972 3.281 0 5.959 2.684 5.959 5.972 0 3.289-2.678 5.973-5.959 5.973zm0-8.921a2.95 2.95 0 000 5.897 2.95 2.95 0 000-5.897z" fill="#EEF6F2"/>
  <path d="M356.194 381.634c-3.282 0-5.96-2.684-5.96-5.973 0-3.289 2.678-5.972 5.96-5.972 3.281 0 5.959 2.683 5.959 5.972 0 3.289-2.678 5.973-5.959 5.973zm0-8.921a2.949 2.949 0 000 5.897 2.949 2.949 0 000-5.897z" fill="#EEF6F2"/>
  <path d="M164.84 433.95c8.541 0 15.465-6.939 15.465-15.499 0-8.559-6.924-15.498-15.465-15.498s-15.465 6.939-15.465 15.498c0 8.56 6.924 15.499 15.465 15.499z" fill="#EEF6F2"/>
  <path d="M171.894 441.661c-9.354 0-16.974-7.636-16.974-17.01 0-9.375 7.62-17.011 16.974-17.011 9.355 0 16.974 7.636 16.974 17.011 0 9.374-7.582 17.01-16.974 17.01zm0-30.997c-7.695 0-13.956 6.275-13.956 13.987 0 7.711 6.261 13.986 13.956 13.986 7.695 0 13.957-6.275 13.957-13.986 0-7.712-6.224-13.987-13.957-13.987z" fill="#BAD9CB"/>
  <path d="M392.632 370.142c-.377 0-.755-.227-.868-.605-.188-.491.076-1.02.566-1.209 12.561-4.725 15.654-10.66 17.276-13.835.339-.643.603-1.172.943-1.626 1.282-1.814-.038-4.498-.076-4.498-.151-.302-.151-.642.038-.907.264-.454.339-.907.226-1.323-.226-.832-1.131-1.474-1.433-1.663a.978.978 0 01-.49-.756c-.038-.303.113-.605.339-.832 0 0 .792-.756.34-2.684-.114-.529-.378-.718-.566-.831-.641-.378-1.735-.152-2.113-.038-.377.113-.792 0-1.018-.34a.971.971 0 01-.038-1.097c.943-1.474 2.113-4.044 1.547-4.914-.227-.378-.981-.491-2.037-.34-2.905.378-7.091 3.138-11.127 5.821-4.414 2.911-8.563 5.67-11.392 5.519a.985.985 0 01-.905-.983c0-.491.49-.907.981-.907 2.187.114 6.299-2.57 10.259-5.216 4.225-2.797 8.563-5.67 11.92-6.124 1.886-.265 3.206.151 3.885 1.21.943 1.474.151 3.742-.641 5.33.528.037 1.056.151 1.546.453.755.416 1.245 1.134 1.471 2.041.415 1.701.114 2.911-.264 3.629.566.492 1.245 1.21 1.509 2.193.226.756.151 1.549-.188 2.343.452 1.059 1.282 3.818-.302 6.011-.227.302-.491.793-.792 1.398-1.773 3.402-5.093 9.753-18.295 14.742-.075 0-.188.038-.301.038z" fill="#FF7C76"/>
  <path d="M294.22 370.52c-.717 0-1.358-.491-1.471-1.247-.151-.832.377-1.626 1.207-1.777 12.938-2.419 26.479-5.33 38.097-10.017 11.92-4.801 20.52-8.127 25.687-10.055a1.535 1.535 0 011.962.87c.302.756-.113 1.663-.868 1.965-5.13 1.928-13.73 5.255-25.612 10.055-11.844 4.801-25.574 7.711-38.663 10.206h-.339z" fill="#4F7966"/>
</svg>
